<?xml version="1.0" encoding="UTF-8"?>
<svg xmlns="http://www.w3.org/2000/svg" xmlns:xlink="http://www.w3.org/1999/xlink" width="504pt" height="504pt" viewBox="0 0 504 504" version="1.1">
<g id="surface10">
<rect x="0" y="0" width="504" height="504" style="fill:rgb(100%,100%,100%);fill-opacity:1;stroke:none;"/>
<path style="fill-rule:nonzero;fill:rgb(0%,0%,0%);fill-opacity:1;stroke-width:0.75;stroke-linecap:round;stroke-linejoin:round;stroke:rgb(20%,20%,20%);stroke-opacity:1;stroke-miterlimit:10;" d="M 306.636719 397.125 L 299.804688 403.953125 L 289.5625 414.199219 L 286.148438 421.027344 L 282.730469 427.855469 L 279.316406 434.6875 L 275.902344 444.929688 L 272.488281 451.761719 L 272.488281 458.589844 L 269.074219 465.417969 L 258.828125 472.246094 L 252 468.832031 L 214.4375 468.832031 L 207.609375 458.589844 L 207.609375 451.761719 L 204.195312 444.929688 L 204.195312 438.101562 L 197.363281 427.855469 L 193.949219 421.027344 L 193.949219 397.125 L 190.535156 390.296875 L 190.535156 342.488281 L 193.949219 335.660156 L 193.949219 318.585938 L 197.363281 311.757812 L 197.363281 281.023438 L 193.949219 274.195312 L 193.949219 219.558594 L 197.363281 212.730469 L 197.363281 202.488281 L 200.78125 195.65625 L 200.78125 188.828125 L 204.195312 178.585938 L 207.609375 171.753906 L 207.609375 158.097656 L 211.023438 147.851562 L 214.4375 141.023438 L 214.4375 123.949219 L 217.851562 117.121094 L 217.851562 110.289062 L 221.269531 103.460938 L 221.269531 93.214844 L 228.097656 79.558594 L 228.097656 72.726562 L 234.925781 62.484375 L 238.339844 55.65625 L 238.339844 38.582031 L 245.171875 31.753906 L 252 31.753906 L 255.414062 38.582031 L 258.828125 48.824219 L 258.828125 62.484375 L 262.242188 69.3125 L 262.242188 110.289062 L 265.660156 117.121094 L 265.660156 141.023438 L 269.074219 147.851562 L 269.074219 171.753906 L 272.488281 178.585938 L 272.488281 188.828125 L 275.902344 195.65625 L 275.902344 202.488281 L 279.316406 209.316406 L 279.316406 226.390625 L 282.730469 233.21875 L 282.730469 263.953125 L 286.148438 274.195312 L 286.148438 281.023438 L 289.5625 287.855469 L 292.976562 294.683594 L 292.976562 304.929688 L 296.390625 311.757812 L 296.390625 318.585938 L 299.804688 328.832031 L 303.21875 335.660156 L 306.636719 342.488281 L 306.636719 359.5625 L 310.050781 366.390625 L 313.464844 373.222656 L 313.464844 380.050781 L 310.050781 390.296875 Z M 306.636719 397.125 "/>
</g>
</svg>
