<?xml version="1.0" encoding="UTF-8"?>
<svg xmlns="http://www.w3.org/2000/svg" xmlns:xlink="http://www.w3.org/1999/xlink" width="504pt" height="504pt" viewBox="0 0 504 504" version="1.1">
<g id="surface155">
<rect x="0" y="0" width="504" height="504" style="fill:rgb(100%,100%,100%);fill-opacity:1;stroke:none;"/>
<path style="fill-rule:nonzero;fill:rgb(0%,0%,0%);fill-opacity:1;stroke-width:0.75;stroke-linecap:round;stroke-linejoin:round;stroke:rgb(20%,20%,20%);stroke-opacity:1;stroke-miterlimit:10;" d="M 207.242188 189.578125 L 200.175781 189.578125 L 202.53125 180.15625 L 202.53125 166.019531 L 204.886719 158.953125 L 209.597656 149.53125 L 214.308594 135.398438 L 216.667969 128.332031 L 221.378906 118.910156 L 228.445312 116.554688 L 233.15625 109.488281 L 233.15625 100.0625 L 237.867188 85.929688 L 242.578125 78.863281 L 247.289062 69.441406 L 252 55.308594 L 252 48.242188 L 254.355469 38.820312 L 261.421875 31.753906 L 266.132812 36.464844 L 268.488281 45.886719 L 275.554688 67.085938 L 280.265625 76.507812 L 284.976562 90.640625 L 287.332031 100.0625 L 292.046875 107.132812 L 292.046875 121.265625 L 294.402344 130.6875 L 301.46875 151.886719 L 301.46875 168.375 L 303.824219 175.441406 L 308.535156 184.867188 L 308.535156 222.554688 L 310.890625 229.621094 L 308.535156 236.6875 L 308.535156 269.667969 L 306.179688 276.734375 L 306.179688 330.914062 L 308.535156 337.980469 L 306.179688 345.046875 L 306.179688 354.46875 L 301.46875 361.535156 L 301.46875 368.601562 L 299.113281 375.667969 L 292.046875 385.089844 L 289.691406 392.15625 L 289.691406 399.222656 L 280.265625 406.292969 L 275.554688 420.425781 L 270.84375 427.492188 L 268.488281 436.914062 L 268.488281 443.980469 L 254.355469 453.402344 L 244.933594 455.757812 L 237.867188 460.46875 L 235.511719 467.535156 L 226.089844 472.246094 L 219.023438 469.890625 L 211.953125 467.535156 L 207.242188 460.46875 L 202.53125 451.046875 L 200.175781 443.980469 L 200.175781 436.914062 L 197.820312 429.847656 L 202.53125 420.425781 L 202.53125 413.359375 L 204.886719 406.292969 L 202.53125 396.867188 L 202.53125 389.800781 L 200.175781 382.734375 L 200.175781 352.113281 L 197.820312 345.046875 L 193.109375 335.625 L 197.820312 328.558594 L 200.175781 321.488281 L 200.175781 305 L 202.53125 297.933594 L 202.53125 267.3125 L 200.175781 257.890625 L 197.820312 250.820312 L 197.820312 236.6875 L 200.175781 227.265625 L 200.175781 220.199219 L 204.886719 213.132812 L 207.242188 206.066406 Z M 207.242188 189.578125 "/>
</g>
</svg>
