<?xml version="1.0" encoding="UTF-8"?>
<svg xmlns="http://www.w3.org/2000/svg" xmlns:xlink="http://www.w3.org/1999/xlink" width="504pt" height="504pt" viewBox="0 0 504 504" version="1.1">
<g id="surface160">
<rect x="0" y="0" width="504" height="504" style="fill:rgb(100%,100%,100%);fill-opacity:1;stroke:none;"/>
<path style="fill-rule:nonzero;fill:rgb(0%,0%,0%);fill-opacity:1;stroke-width:0.75;stroke-linecap:round;stroke-linejoin:round;stroke:rgb(20%,20%,20%);stroke-opacity:1;stroke-miterlimit:10;" d="M 189.84375 472.246094 L 181.738281 472.246094 L 176.332031 464.140625 L 173.628906 456.035156 L 173.628906 410.09375 L 176.332031 401.984375 L 179.035156 393.878906 L 181.738281 385.769531 L 184.4375 377.664062 L 184.4375 372.257812 L 187.140625 364.152344 L 192.546875 356.042969 L 195.25 347.9375 L 197.953125 339.828125 L 197.953125 331.722656 L 200.652344 323.613281 L 203.355469 315.507812 L 203.355469 285.78125 L 206.058594 277.671875 L 206.058594 261.457031 L 200.652344 253.351562 L 200.652344 245.242188 L 197.953125 237.136719 L 195.25 229.03125 L 195.25 223.625 L 192.546875 215.515625 L 192.546875 199.300781 L 195.25 191.195312 L 195.25 166.875 L 192.546875 158.765625 L 192.546875 129.039062 L 195.25 120.933594 L 195.25 104.71875 L 197.953125 96.609375 L 203.355469 88.503906 L 203.355469 74.992188 L 206.058594 66.882812 L 206.058594 42.5625 L 208.761719 34.453125 L 216.867188 31.753906 L 224.976562 37.15625 L 230.378906 42.5625 L 238.488281 45.265625 L 243.894531 53.371094 L 252 61.480469 L 260.105469 66.882812 L 265.511719 74.992188 L 273.621094 83.097656 L 281.726562 91.207031 L 284.429688 99.3125 L 289.835938 107.421875 L 295.238281 112.824219 L 297.941406 120.933594 L 303.347656 129.039062 L 311.453125 137.148438 L 316.859375 153.359375 L 322.261719 161.46875 L 327.667969 169.574219 L 330.371094 177.683594 L 330.371094 183.089844 L 324.964844 191.195312 L 322.261719 199.300781 L 314.15625 207.410156 L 311.453125 215.515625 L 311.453125 231.730469 L 314.15625 239.839844 L 311.453125 247.945312 L 311.453125 269.566406 L 314.15625 277.671875 L 314.15625 285.78125 L 311.453125 293.886719 L 306.046875 301.996094 L 306.046875 310.101562 L 303.347656 318.210938 L 303.347656 323.613281 L 300.644531 331.722656 L 297.941406 339.828125 L 295.238281 347.9375 L 295.238281 356.042969 L 292.535156 364.152344 L 289.835938 372.257812 L 284.429688 380.367188 L 284.429688 388.472656 L 281.726562 396.578125 L 281.726562 401.984375 L 279.023438 410.09375 L 270.917969 415.496094 L 262.808594 420.902344 L 254.703125 429.007812 L 249.296875 437.117188 L 241.191406 445.222656 L 233.082031 450.628906 L 224.976562 456.035156 L 219.570312 458.734375 L 211.464844 461.4375 L 203.355469 466.84375 L 195.25 466.84375 Z M 189.84375 472.246094 "/>
</g>
</svg>
