<?xml version="1.0" encoding="UTF-8"?>
<svg xmlns="http://www.w3.org/2000/svg" xmlns:xlink="http://www.w3.org/1999/xlink" width="504pt" height="504pt" viewBox="0 0 504 504" version="1.1">
<g id="surface165">
<rect x="0" y="0" width="504" height="504" style="fill:rgb(100%,100%,100%);fill-opacity:1;stroke:none;"/>
<path style="fill-rule:nonzero;fill:rgb(0%,0%,0%);fill-opacity:1;stroke-width:0.75;stroke-linecap:round;stroke-linejoin:round;stroke:rgb(20%,20%,20%);stroke-opacity:1;stroke-miterlimit:10;" d="M 239.847656 447.945312 L 233.773438 457.058594 L 227.695312 463.132812 L 218.582031 472.246094 L 212.507812 469.210938 L 203.394531 466.171875 L 197.316406 460.097656 L 197.316406 450.984375 L 194.28125 444.90625 L 191.242188 435.792969 L 188.203125 429.71875 L 188.203125 420.605469 L 185.167969 414.527344 L 185.167969 368.960938 L 188.203125 359.84375 L 188.203125 338.582031 L 191.242188 329.464844 L 191.242188 308.203125 L 194.28125 299.085938 L 194.28125 283.898438 L 197.316406 277.820312 L 197.316406 232.253906 L 194.28125 223.140625 L 194.28125 217.0625 L 191.242188 207.949219 L 191.242188 186.683594 L 194.28125 177.570312 L 194.28125 171.496094 L 197.316406 162.382812 L 197.316406 116.8125 L 200.355469 110.738281 L 206.429688 101.625 L 209.46875 95.546875 L 212.507812 86.433594 L 212.507812 71.246094 L 215.546875 65.167969 L 215.546875 40.867188 L 224.660156 31.753906 L 230.734375 31.753906 L 239.847656 40.867188 L 245.925781 46.941406 L 248.960938 56.054688 L 252 62.132812 L 258.074219 71.246094 L 264.152344 74.28125 L 270.226562 83.394531 L 276.304688 86.433594 L 282.378906 95.546875 L 288.453125 101.625 L 294.53125 107.699219 L 297.570312 113.777344 L 303.644531 122.890625 L 306.683594 128.964844 L 306.683594 168.457031 L 309.71875 174.535156 L 309.71875 198.835938 L 312.757812 204.914062 L 315.796875 214.027344 L 315.796875 220.101562 L 318.832031 229.214844 L 318.832031 265.671875 L 315.796875 274.785156 L 315.796875 289.972656 L 309.71875 296.050781 L 309.71875 305.164062 L 306.683594 311.238281 L 303.644531 320.351562 L 303.644531 326.429688 L 300.605469 335.542969 L 300.605469 341.617188 L 294.53125 350.730469 L 294.53125 356.808594 L 291.492188 365.921875 L 291.492188 381.109375 L 288.453125 387.1875 L 288.453125 396.300781 L 285.417969 402.375 L 279.339844 411.488281 L 276.304688 417.566406 L 267.191406 423.640625 L 264.152344 429.71875 L 255.039062 435.792969 L 248.960938 438.832031 Z M 239.847656 447.945312 "/>
</g>
</svg>
