<?xml version="1.0" encoding="UTF-8"?>
<svg xmlns="http://www.w3.org/2000/svg" xmlns:xlink="http://www.w3.org/1999/xlink" width="504pt" height="504pt" viewBox="0 0 504 504" version="1.1">
<g id="surface170">
<rect x="0" y="0" width="504" height="504" style="fill:rgb(100%,100%,100%);fill-opacity:1;stroke:none;"/>
<path style="fill-rule:nonzero;fill:rgb(0%,0%,0%);fill-opacity:1;stroke-width:0.75;stroke-linecap:round;stroke-linejoin:round;stroke:rgb(20%,20%,20%);stroke-opacity:1;stroke-miterlimit:10;" d="M 244.5 472.246094 L 239.042969 468.15625 L 230.863281 461.335938 L 222.679688 454.519531 L 218.585938 447.699219 L 214.496094 439.519531 L 210.40625 431.335938 L 207.675781 423.152344 L 204.949219 414.96875 L 202.222656 406.789062 L 200.859375 398.605469 L 198.132812 391.785156 L 198.132812 342.691406 L 199.496094 335.871094 L 199.496094 319.507812 L 200.859375 311.324219 L 200.859375 294.957031 L 202.222656 286.777344 L 203.585938 279.957031 L 204.949219 271.773438 L 204.949219 255.410156 L 202.222656 247.226562 L 200.859375 239.042969 L 200.859375 207.675781 L 202.222656 199.496094 L 202.222656 183.128906 L 203.585938 174.949219 L 203.585938 151.761719 L 202.222656 143.582031 L 198.132812 135.398438 L 195.402344 127.214844 L 192.675781 119.03125 L 191.3125 112.214844 L 191.3125 87.667969 L 192.675781 79.484375 L 192.675781 71.300781 L 196.765625 63.117188 L 200.859375 56.300781 L 206.3125 48.117188 L 210.40625 39.933594 L 214.496094 31.753906 L 222.679688 34.480469 L 230.863281 38.570312 L 239.042969 39.933594 L 245.863281 45.390625 L 254.046875 48.117188 L 262.226562 50.84375 L 270.410156 53.570312 L 278.59375 57.664062 L 286.777344 63.117188 L 293.59375 69.9375 L 293.59375 84.9375 L 296.324219 93.121094 L 299.050781 101.304688 L 299.050781 117.667969 L 301.777344 125.851562 L 303.140625 134.035156 L 304.503906 140.851562 L 304.503906 149.035156 L 305.867188 157.21875 L 305.867188 165.402344 L 307.234375 173.582031 L 309.960938 189.949219 L 311.324219 196.765625 L 311.324219 204.949219 L 308.597656 221.316406 L 308.597656 237.679688 L 309.960938 245.863281 L 311.324219 252.683594 L 311.324219 285.414062 L 312.6875 293.59375 L 311.324219 301.777344 L 311.324219 349.507812 L 309.960938 357.691406 L 308.597656 364.511719 L 307.234375 372.691406 L 304.503906 380.875 L 303.140625 389.058594 L 300.414062 397.242188 L 299.050781 405.421875 L 297.6875 413.605469 L 294.957031 420.425781 L 294.957031 428.609375 L 293.59375 436.789062 L 293.59375 444.972656 L 289.503906 453.15625 L 284.046875 461.335938 L 275.867188 465.429688 L 269.046875 466.792969 L 260.863281 468.15625 L 252.683594 470.882812 Z M 244.5 472.246094 "/>
</g>
</svg>
