<?xml version="1.0" encoding="UTF-8"?>
<svg xmlns="http://www.w3.org/2000/svg" xmlns:xlink="http://www.w3.org/1999/xlink" width="504pt" height="504pt" viewBox="0 0 504 504" version="1.1">
<g id="surface55">
<rect x="0" y="0" width="504" height="504" style="fill:rgb(100%,100%,100%);fill-opacity:1;stroke:none;"/>
<path style="fill-rule:nonzero;fill:rgb(0%,0%,0%);fill-opacity:1;stroke-width:0.75;stroke-linecap:round;stroke-linejoin:round;stroke:rgb(20%,20%,20%);stroke-opacity:1;stroke-miterlimit:10;" d="M 240.285156 444.132812 L 235.597656 453.503906 L 230.914062 458.191406 L 221.539062 467.5625 L 216.855469 472.246094 L 207.480469 467.5625 L 202.796875 458.191406 L 202.796875 406.640625 L 207.480469 397.269531 L 207.480469 355.09375 L 202.796875 345.722656 L 202.796875 336.351562 L 207.480469 331.664062 L 207.480469 162.964844 L 212.167969 158.277344 L 212.167969 59.867188 L 216.855469 50.496094 L 216.855469 41.125 L 221.539062 36.4375 L 230.914062 31.753906 L 244.972656 31.753906 L 254.34375 36.4375 L 254.34375 50.496094 L 263.714844 59.867188 L 263.714844 78.613281 L 268.402344 87.984375 L 268.402344 97.359375 L 273.085938 102.042969 L 277.773438 111.417969 L 277.773438 139.53125 L 282.460938 148.90625 L 282.460938 200.453125 L 287.144531 209.824219 L 287.144531 256.6875 L 291.832031 261.371094 L 291.832031 298.859375 L 296.519531 308.234375 L 296.519531 359.78125 L 301.203125 369.152344 L 301.203125 373.839844 L 268.402344 406.640625 L 263.714844 416.015625 L 263.714844 420.699219 L 254.34375 430.074219 L 249.65625 434.757812 Z M 240.285156 444.132812 "/>
</g>
</svg>
