<?xml version="1.0" encoding="UTF-8"?>
<svg xmlns="http://www.w3.org/2000/svg" xmlns:xlink="http://www.w3.org/1999/xlink" width="504pt" height="504pt" viewBox="0 0 504 504" version="1.1">
<g id="surface30">
<rect x="0" y="0" width="504" height="504" style="fill:rgb(100%,100%,100%);fill-opacity:1;stroke:none;"/>
<path style="fill-rule:nonzero;fill:rgb(0%,0%,0%);fill-opacity:1;stroke-width:0.75;stroke-linecap:round;stroke-linejoin:round;stroke:rgb(20%,20%,20%);stroke-opacity:1;stroke-miterlimit:10;" d="M 203.628906 390.339844 L 200.40625 384.535156 L 201.050781 376.152344 L 199.757812 368.414062 L 200.40625 360.027344 L 200.40625 352.289062 L 195.890625 343.90625 L 197.824219 336.164062 L 197.179688 328.425781 L 193.308594 320.042969 L 191.375 312.300781 L 193.308594 303.917969 L 193.308594 296.179688 L 191.375 288.4375 L 189.441406 280.054688 L 190.085938 272.316406 L 190.085938 263.929688 L 190.730469 256.191406 L 190.085938 248.453125 L 190.730469 240.070312 L 190.730469 232.328125 L 193.957031 223.945312 L 193.308594 216.207031 L 192.019531 207.820312 L 192.019531 192.34375 L 191.375 183.957031 L 192.019531 176.21875 L 190.730469 167.835938 L 190.730469 160.09375 L 189.441406 151.710938 L 189.441406 143.972656 L 188.152344 136.234375 L 186.214844 127.847656 L 186.859375 120.109375 L 186.214844 111.726562 L 186.859375 103.984375 L 187.503906 96.246094 L 186.214844 87.863281 L 184.925781 80.121094 L 182.992188 71.738281 L 182.992188 56.261719 L 181.703125 47.875 L 181.703125 40.136719 L 182.992188 31.753906 L 190.085938 33.042969 L 198.46875 37.554688 L 205.5625 44.652344 L 213.304688 51.101562 L 221.042969 58.839844 L 227.492188 66.578125 L 235.875 73.027344 L 241.679688 79.476562 L 249.421875 85.28125 L 264.898438 93.023438 L 272.636719 98.824219 L 279.734375 104.628906 L 286.828125 113.015625 L 291.339844 120.109375 L 297.144531 127.203125 L 304.886719 133.652344 L 312.625 138.8125 L 318.429688 146.550781 L 321.652344 154.292969 L 322.296875 162.03125 L 317.785156 170.414062 L 315.847656 178.152344 L 317.785156 186.539062 L 318.429688 194.277344 L 317.140625 202.660156 L 318.429688 210.402344 L 320.363281 218.140625 L 320.363281 234.265625 L 321.007812 242.648438 L 322.296875 250.386719 L 321.652344 258.773438 L 321.652344 274.25 L 322.296875 282.636719 L 321.007812 290.375 L 321.652344 298.757812 L 321.652344 306.496094 L 322.296875 314.238281 L 321.007812 322.621094 L 321.652344 330.359375 L 321.652344 338.746094 L 321.007812 346.484375 L 319.71875 354.222656 L 319.074219 362.609375 L 320.363281 370.347656 L 322.296875 378.730469 L 321.007812 386.46875 L 315.847656 394.855469 L 310.042969 401.304688 L 302.304688 403.238281 L 293.921875 408.398438 L 286.183594 412.914062 L 279.085938 418.71875 L 272.636719 424.523438 L 266.832031 432.90625 L 261.675781 439.355469 L 254.578125 443.226562 L 247.484375 450.964844 L 240.390625 456.769531 L 233.941406 464.507812 L 227.492188 471.601562 L 219.753906 472.246094 L 211.367188 467.734375 L 204.917969 461.285156 L 200.40625 452.898438 L 204.273438 445.804688 L 203.628906 438.066406 L 205.5625 430.328125 L 206.210938 422.585938 L 208.144531 414.203125 L 205.5625 406.464844 L 205.5625 398.078125 Z M 203.628906 390.339844 "/>
</g>
</svg>
