<?xml version="1.0" encoding="UTF-8"?>
<svg xmlns="http://www.w3.org/2000/svg" xmlns:xlink="http://www.w3.org/1999/xlink" width="504pt" height="504pt" viewBox="0 0 504 504" version="1.1">
<g id="surface115">
<rect x="0" y="0" width="504" height="504" style="fill:rgb(100%,100%,100%);fill-opacity:1;stroke:none;"/>
<path style="fill-rule:nonzero;fill:rgb(0%,0%,0%);fill-opacity:1;stroke-width:0.75;stroke-linecap:round;stroke-linejoin:round;stroke:rgb(20%,20%,20%);stroke-opacity:1;stroke-miterlimit:10;" d="M 237.492188 469.609375 L 229.578125 472.246094 L 221.667969 466.972656 L 216.390625 459.058594 L 211.117188 451.144531 L 211.117188 443.234375 L 208.476562 432.683594 L 200.566406 408.941406 L 197.925781 401.03125 L 195.289062 393.117188 L 195.289062 377.289062 L 192.652344 369.378906 L 192.652344 335.085938 L 190.015625 327.175781 L 184.738281 319.261719 L 179.464844 311.347656 L 176.824219 303.433594 L 176.824219 287.609375 L 179.464844 279.695312 L 182.101562 271.78125 L 184.738281 263.871094 L 187.375 253.320312 L 190.015625 245.40625 L 192.652344 237.492188 L 192.652344 229.578125 L 195.289062 221.667969 L 195.289062 213.753906 L 197.925781 205.839844 L 200.566406 197.925781 L 200.566406 182.101562 L 197.925781 174.1875 L 195.289062 163.636719 L 195.289062 155.722656 L 190.015625 147.8125 L 197.925781 139.898438 L 200.566406 131.984375 L 205.839844 124.070312 L 211.117188 116.160156 L 211.117188 84.507812 L 208.476562 73.957031 L 208.476562 66.042969 L 211.117188 58.128906 L 213.753906 50.214844 L 216.390625 42.304688 L 221.667969 34.390625 L 229.578125 31.753906 L 237.492188 37.027344 L 245.40625 39.664062 L 253.320312 42.304688 L 261.230469 44.941406 L 279.695312 44.941406 L 287.609375 50.214844 L 292.882812 55.492188 L 298.160156 63.40625 L 306.074219 68.679688 L 311.347656 76.59375 L 311.347656 100.332031 L 316.625 110.882812 L 321.898438 118.796875 L 324.535156 126.710938 L 327.175781 134.621094 L 327.175781 200.566406 L 324.535156 208.476562 L 324.535156 255.957031 L 321.898438 263.871094 L 321.898438 298.160156 L 319.261719 306.074219 L 316.625 313.984375 L 313.984375 321.898438 L 311.347656 329.8125 L 311.347656 337.726562 L 308.710938 345.636719 L 306.074219 353.550781 L 306.074219 395.753906 L 308.710938 403.667969 L 303.433594 411.582031 L 298.160156 419.492188 L 298.160156 427.40625 L 295.523438 435.320312 L 292.882812 443.234375 L 292.882812 451.144531 L 287.609375 459.058594 L 277.058594 464.335938 L 269.144531 464.335938 L 261.230469 466.972656 L 253.320312 469.609375 Z M 237.492188 469.609375 "/>
</g>
</svg>
