<?xml version="1.0" encoding="UTF-8"?>
<svg xmlns="http://www.w3.org/2000/svg" xmlns:xlink="http://www.w3.org/1999/xlink" width="504pt" height="504pt" viewBox="0 0 504 504" version="1.1">
<g id="surface105">
<rect x="0" y="0" width="504" height="504" style="fill:rgb(100%,100%,100%);fill-opacity:1;stroke:none;"/>
<path style="fill-rule:nonzero;fill:rgb(0%,0%,0%);fill-opacity:1;stroke-width:0.75;stroke-linecap:round;stroke-linejoin:round;stroke:rgb(20%,20%,20%);stroke-opacity:1;stroke-miterlimit:10;" d="M 213.179688 466.035156 L 207.484375 460.859375 L 204.894531 453.097656 L 203.859375 445.332031 L 200.753906 437.566406 L 200.238281 429.804688 L 199.71875 422.039062 L 198.683594 414.273438 L 197.132812 406.511719 L 195.0625 390.980469 L 194.542969 383.21875 L 194.027344 375.453125 L 192.992188 367.6875 L 192.472656 359.925781 L 190.402344 352.160156 L 189.886719 344.394531 L 188.851562 336.632812 L 189.367188 328.867188 L 189.367188 321.101562 L 187.816406 313.339844 L 187.296875 305.574219 L 187.296875 297.808594 L 186.78125 290.046875 L 186.78125 282.28125 L 186.261719 274.515625 L 185.746094 266.753906 L 183.675781 251.222656 L 183.675781 243.460938 L 183.15625 235.695312 L 183.675781 227.929688 L 183.15625 220.167969 L 183.15625 196.875 L 182.640625 189.109375 L 183.15625 181.34375 L 182.640625 173.582031 L 182.121094 165.816406 L 182.121094 142.523438 L 183.15625 134.757812 L 183.675781 126.996094 L 185.226562 119.230469 L 185.746094 111.464844 L 186.78125 103.703125 L 187.296875 95.9375 L 187.816406 88.171875 L 188.851562 80.410156 L 190.921875 64.878906 L 191.4375 57.117188 L 192.472656 49.351562 L 197.132812 41.585938 L 202.308594 33.824219 L 210.074219 31.753906 L 217.320312 36.929688 L 224.046875 42.621094 L 226.636719 50.386719 L 230.261719 58.152344 L 232.847656 65.914062 L 235.953125 73.679688 L 239.578125 81.445312 L 245.789062 89.207031 L 252.519531 96.972656 L 255.625 104.738281 L 260.28125 112.5 L 266.492188 120.265625 L 271.152344 128.03125 L 275.292969 135.792969 L 280.988281 143.558594 L 288.234375 150.289062 L 292.890625 157.535156 L 295.480469 165.296875 L 299.105469 173.0625 L 303.761719 180.308594 L 306.351562 188.074219 L 309.972656 195.839844 L 313.597656 203.601562 L 315.148438 211.367188 L 316.183594 219.132812 L 318.773438 226.894531 L 321.878906 234.660156 L 319.808594 242.425781 L 318.773438 250.1875 L 317.738281 257.953125 L 316.183594 265.71875 L 314.632812 273.480469 L 313.078125 281.246094 L 311.007812 289.011719 L 309.457031 296.773438 L 307.386719 304.539062 L 305.832031 312.304688 L 303.761719 320.066406 L 299.621094 335.597656 L 297.550781 343.359375 L 294.960938 351.125 L 293.410156 358.890625 L 292.375 366.652344 L 290.304688 374.417969 L 288.75 382.183594 L 288.234375 389.945312 L 286.164062 397.710938 L 285.128906 405.476562 L 280.988281 412.722656 L 278.398438 420.484375 L 276.847656 428.25 L 273.738281 436.015625 L 271.152344 443.777344 L 267.527344 451.542969 L 263.90625 459.308594 L 259.765625 467.070312 L 252 470.695312 L 244.234375 472.246094 L 236.472656 472.246094 L 228.707031 471.730469 L 220.941406 468.625 Z M 213.179688 466.035156 "/>
</g>
</svg>
