<?xml version="1.0" encoding="UTF-8"?>
<svg xmlns="http://www.w3.org/2000/svg" xmlns:xlink="http://www.w3.org/1999/xlink" width="504pt" height="504pt" viewBox="0 0 504 504" version="1.1">
<g id="surface145">
<rect x="0" y="0" width="504" height="504" style="fill:rgb(100%,100%,100%);fill-opacity:1;stroke:none;"/>
<path style="fill-rule:nonzero;fill:rgb(0%,0%,0%);fill-opacity:1;stroke-width:0.75;stroke-linecap:round;stroke-linejoin:round;stroke:rgb(20%,20%,20%);stroke-opacity:1;stroke-miterlimit:10;" d="M 186.28125 356.796875 L 182.726562 353.242188 L 175.625 351.46875 L 168.519531 342.585938 L 168.519531 335.480469 L 166.742188 326.601562 L 166.742188 310.613281 L 164.964844 301.734375 L 164.964844 294.628906 L 163.191406 285.746094 L 163.191406 276.867188 L 161.414062 269.761719 L 161.414062 260.882812 L 159.636719 253.777344 L 156.085938 244.894531 L 154.308594 236.015625 L 154.308594 228.910156 L 152.53125 220.027344 L 152.53125 212.921875 L 150.757812 204.042969 L 150.757812 154.308594 L 152.53125 147.203125 L 152.53125 138.324219 L 154.308594 131.21875 L 156.085938 122.335938 L 156.085938 97.472656 L 157.863281 90.367188 L 159.636719 81.484375 L 161.414062 72.605469 L 164.964844 65.5 L 168.519531 56.617188 L 170.296875 49.515625 L 175.625 40.632812 L 184.503906 33.527344 L 191.609375 31.753906 L 200.492188 40.632812 L 207.59375 45.960938 L 216.476562 53.066406 L 223.582031 60.171875 L 230.6875 63.722656 L 237.789062 72.605469 L 244.894531 79.710938 L 253.777344 86.8125 L 262.65625 93.917969 L 269.761719 99.246094 L 278.644531 106.351562 L 285.746094 109.90625 L 294.628906 117.007812 L 303.507812 122.335938 L 310.613281 124.113281 L 317.71875 132.996094 L 323.046875 140.101562 L 330.152344 147.203125 L 335.480469 156.085938 L 339.035156 163.191406 L 342.585938 172.070312 L 342.585938 179.175781 L 346.136719 188.058594 L 347.914062 196.9375 L 349.691406 204.042969 L 349.691406 212.921875 L 351.46875 220.027344 L 351.46875 237.789062 L 353.242188 244.894531 L 351.46875 253.777344 L 351.46875 260.882812 L 349.691406 269.761719 L 344.363281 278.644531 L 344.363281 285.746094 L 340.808594 294.628906 L 339.035156 301.734375 L 333.703125 310.613281 L 328.375 319.496094 L 324.824219 326.601562 L 319.496094 335.480469 L 315.941406 342.585938 L 310.613281 351.46875 L 305.285156 360.347656 L 298.179688 363.898438 L 289.300781 365.675781 L 282.195312 367.453125 L 273.3125 372.78125 L 273.3125 413.632812 L 271.539062 422.515625 L 269.761719 429.621094 L 267.984375 438.5 L 262.65625 443.828125 L 260.882812 452.710938 L 255.550781 461.589844 L 252 468.695312 L 244.894531 472.246094 L 228.910156 472.246094 L 220.027344 468.695312 L 216.476562 461.589844 L 211.148438 452.710938 L 209.371094 445.605469 L 204.042969 436.722656 L 204.042969 404.753906 L 200.492188 395.871094 L 200.492188 379.886719 L 198.714844 371.003906 L 195.160156 363.898438 Z M 186.28125 356.796875 "/>
</g>
</svg>
