<?xml version="1.0" encoding="UTF-8"?>
<svg xmlns="http://www.w3.org/2000/svg" xmlns:xlink="http://www.w3.org/1999/xlink" width="504pt" height="504pt" viewBox="0 0 504 504" version="1.1">
<g id="surface150">
<rect x="0" y="0" width="504" height="504" style="fill:rgb(100%,100%,100%);fill-opacity:1;stroke:none;"/>
<path style="fill-rule:nonzero;fill:rgb(0%,0%,0%);fill-opacity:1;stroke-width:0.75;stroke-linecap:round;stroke-linejoin:round;stroke:rgb(20%,20%,20%);stroke-opacity:1;stroke-miterlimit:10;" d="M 229.863281 467.820312 L 223.222656 467.820312 L 227.652344 461.179688 L 225.4375 454.539062 L 225.4375 361.570312 L 227.652344 352.714844 L 227.652344 308.445312 L 225.4375 299.589844 L 225.4375 292.949219 L 223.222656 284.097656 L 223.222656 261.960938 L 225.4375 253.105469 L 225.4375 230.972656 L 223.222656 222.117188 L 223.222656 175.632812 L 225.4375 168.992188 L 225.4375 138.003906 L 223.222656 131.363281 L 223.222656 53.886719 L 225.4375 45.035156 L 227.652344 38.394531 L 234.292969 31.753906 L 240.933594 31.753906 L 249.785156 38.394531 L 254.214844 51.675781 L 256.425781 60.527344 L 260.855469 67.167969 L 260.855469 76.023438 L 263.066406 82.664062 L 263.066406 91.519531 L 265.28125 98.160156 L 265.28125 107.011719 L 267.496094 113.652344 L 267.496094 122.507812 L 269.707031 129.148438 L 271.921875 138.003906 L 271.921875 153.496094 L 274.136719 160.136719 L 274.136719 168.992188 L 276.347656 175.632812 L 276.347656 197.769531 L 278.5625 206.621094 L 278.5625 213.261719 L 280.777344 222.117188 L 278.5625 228.757812 L 278.5625 284.097656 L 276.347656 290.738281 L 276.347656 430.191406 L 274.136719 436.832031 L 271.921875 445.683594 L 269.707031 452.324219 L 265.28125 461.179688 L 260.855469 467.820312 L 252 472.246094 L 245.359375 472.246094 L 236.503906 470.035156 Z M 229.863281 467.820312 "/>
</g>
</svg>
