<?xml version="1.0" encoding="UTF-8"?>
<svg xmlns="http://www.w3.org/2000/svg" xmlns:xlink="http://www.w3.org/1999/xlink" width="504pt" height="504pt" viewBox="0 0 504 504" version="1.1">
<g id="surface135">
<rect x="0" y="0" width="504" height="504" style="fill:rgb(100%,100%,100%);fill-opacity:1;stroke:none;"/>
<path style="fill-rule:nonzero;fill:rgb(0%,0%,0%);fill-opacity:1;stroke-width:0.75;stroke-linecap:round;stroke-linejoin:round;stroke:rgb(20%,20%,20%);stroke-opacity:1;stroke-miterlimit:10;" d="M 252 466.453125 L 246.203125 472.246094 L 234.613281 466.453125 L 223.019531 466.453125 L 211.429688 460.65625 L 205.632812 454.859375 L 199.835938 443.269531 L 194.039062 437.472656 L 194.039062 431.675781 L 199.835938 420.085938 L 199.835938 194.039062 L 205.632812 188.242188 L 205.632812 89.710938 L 199.835938 83.914062 L 199.835938 66.527344 L 205.632812 60.730469 L 205.632812 54.9375 L 217.222656 43.34375 L 223.019531 43.34375 L 228.816406 37.546875 L 240.40625 31.753906 L 263.59375 31.753906 L 280.980469 49.140625 L 280.980469 54.9375 L 286.777344 60.730469 L 292.570312 72.324219 L 292.570312 83.914062 L 298.367188 95.507812 L 304.164062 101.304688 L 304.164062 112.894531 L 309.960938 118.691406 L 309.960938 362.125 L 304.164062 367.921875 L 304.164062 402.695312 L 298.367188 408.492188 L 298.367188 414.289062 L 292.570312 425.878906 L 292.570312 431.675781 L 280.980469 443.269531 L 275.183594 449.0625 L 269.386719 454.859375 L 257.796875 460.65625 Z M 252 466.453125 "/>
</g>
</svg>
