<?xml version="1.0" encoding="UTF-8"?>
<svg xmlns="http://www.w3.org/2000/svg" xmlns:xlink="http://www.w3.org/1999/xlink" width="504pt" height="504pt" viewBox="0 0 504 504" version="1.1">
<g id="surface20">
<rect x="0" y="0" width="504" height="504" style="fill:rgb(100%,100%,100%);fill-opacity:1;stroke:none;"/>
<path style="fill-rule:nonzero;fill:rgb(0%,0%,0%);fill-opacity:1;stroke-width:0.75;stroke-linecap:round;stroke-linejoin:round;stroke:rgb(20%,20%,20%);stroke-opacity:1;stroke-miterlimit:10;" d="M 267.097656 401.199219 L 263.546875 408.304688 L 259.992188 417.1875 L 252.886719 420.738281 L 247.558594 427.84375 L 244.007812 434.949219 L 236.902344 442.050781 L 233.351562 449.15625 L 226.246094 454.484375 L 220.917969 461.589844 L 212.035156 468.695312 L 204.929688 472.246094 L 201.378906 465.144531 L 201.378906 434.949219 L 199.601562 426.066406 L 197.824219 418.960938 L 196.050781 411.855469 L 196.050781 404.753906 L 194.273438 395.871094 L 194.273438 342.585938 L 196.050781 335.480469 L 196.050781 305.285156 L 194.273438 298.179688 L 194.273438 282.195312 L 196.050781 275.089844 L 196.050781 259.105469 L 197.824219 252 L 197.824219 228.910156 L 196.050781 221.804688 L 196.050781 205.820312 L 197.824219 198.714844 L 197.824219 191.609375 L 199.601562 184.503906 L 201.378906 175.625 L 201.378906 161.414062 L 199.601562 152.53125 L 199.601562 145.429688 L 197.824219 138.324219 L 197.824219 85.039062 L 196.050781 77.933594 L 196.050781 61.949219 L 197.824219 54.84375 L 197.824219 38.855469 L 203.15625 31.753906 L 210.257812 33.527344 L 217.363281 42.410156 L 222.691406 49.515625 L 229.796875 53.066406 L 236.902344 60.171875 L 244.007812 69.050781 L 251.113281 74.378906 L 258.214844 76.15625 L 261.769531 83.261719 L 267.097656 92.144531 L 274.203125 99.246094 L 277.753906 106.351562 L 291.964844 120.5625 L 295.515625 127.667969 L 299.070312 134.769531 L 302.621094 143.652344 L 300.84375 150.757812 L 300.84375 157.863281 L 302.621094 164.964844 L 307.949219 173.847656 L 307.949219 180.953125 L 309.726562 188.058594 L 307.949219 196.9375 L 307.949219 241.34375 L 306.175781 250.222656 L 302.621094 264.433594 L 302.621094 287.523438 L 300.84375 294.628906 L 300.84375 347.914062 L 297.292969 355.019531 L 291.964844 363.898438 L 290.1875 371.003906 L 286.636719 378.109375 L 279.53125 385.214844 L 272.425781 394.09375 Z M 267.097656 401.199219 "/>
</g>
</svg>
