<?xml version="1.0" encoding="UTF-8"?>
<svg xmlns="http://www.w3.org/2000/svg" xmlns:xlink="http://www.w3.org/1999/xlink" width="504pt" height="504pt" viewBox="0 0 504 504" version="1.1">
<g id="surface70">
<rect x="0" y="0" width="504" height="504" style="fill:rgb(100%,100%,100%);fill-opacity:1;stroke:none;"/>
<path style="fill-rule:nonzero;fill:rgb(0%,0%,0%);fill-opacity:1;stroke-width:0.75;stroke-linecap:round;stroke-linejoin:round;stroke:rgb(20%,20%,20%);stroke-opacity:1;stroke-miterlimit:10;" d="M 228.351562 448.882812 L 226.070312 442.617188 L 218.664062 435.207031 L 211.824219 430.648438 L 203.277344 423.808594 L 202.707031 415.832031 L 202.707031 407.285156 L 203.847656 399.308594 L 201.566406 391.898438 L 196.4375 385.628906 L 190.171875 378.792969 L 188.460938 370.8125 L 184.472656 363.976562 L 178.203125 358.277344 L 172.503906 354.289062 L 170.796875 345.742188 L 171.367188 337.761719 L 172.503906 329.214844 L 172.503906 321.238281 L 173.074219 312.6875 L 173.074219 296.734375 L 170.226562 288.1875 L 171.367188 280.207031 L 172.503906 271.660156 L 172.503906 255.132812 L 171.367188 247.15625 L 173.074219 238.609375 L 174.214844 230.628906 L 174.214844 222.652344 L 173.074219 214.105469 L 172.503906 206.695312 L 172.503906 198.148438 L 170.796875 190.742188 L 170.226562 182.191406 L 171.367188 174.214844 L 172.503906 165.667969 L 173.074219 157.6875 L 173.074219 149.140625 L 175.355469 141.734375 L 177.0625 133.753906 L 179.914062 125.777344 L 183.902344 119.507812 L 189.601562 112.101562 L 195.300781 105.261719 L 199.859375 97.855469 L 202.707031 90.445312 L 205.558594 83.609375 L 209.546875 76.769531 L 215.8125 69.363281 L 220.375 62.523438 L 224.363281 55.117188 L 231.199219 47.707031 L 234.621094 40.871094 L 240.316406 34.03125 L 247.15625 31.753906 L 253.996094 35.742188 L 258.554688 43.148438 L 262.542969 50.558594 L 265.390625 57.964844 L 269.378906 65.375 L 272.800781 73.351562 L 275.648438 80.191406 L 281.917969 84.75 L 287.046875 91.015625 L 288.1875 99.5625 L 292.175781 106.972656 L 299.582031 114.378906 L 306.992188 119.507812 L 312.6875 124.636719 L 319.527344 131.476562 L 322.375 139.453125 L 319.527344 147.433594 L 321.808594 155.410156 L 326.9375 162.25 L 330.925781 169.085938 L 332.632812 177.0625 L 333.773438 185.042969 L 332.632812 193.589844 L 330.925781 201.566406 L 328.644531 208.40625 L 328.644531 233.480469 L 330.925781 240.316406 L 330.925781 248.867188 L 329.785156 256.84375 L 327.503906 265.390625 L 319.527344 270.519531 L 312.121094 277.929688 L 304.710938 283.625 L 297.875 290.464844 L 291.035156 299.011719 L 287.617188 306.421875 L 283.625 313.257812 L 281.347656 321.238281 L 279.636719 329.785156 L 275.648438 337.761719 L 275.078125 346.3125 L 275.078125 354.289062 L 275.648438 362.265625 L 273.9375 370.8125 L 273.9375 378.792969 L 276.21875 387.339844 L 277.929688 395.316406 L 276.789062 403.296875 L 275.648438 410.703125 L 272.800781 419.25 L 269.378906 426.660156 L 263.113281 432.929688 L 259.125 440.90625 L 258.554688 448.3125 L 260.832031 456.292969 L 261.402344 464.269531 L 257.984375 471.679688 L 250.574219 472.246094 L 242.027344 469.398438 L 234.050781 464.839844 L 231.199219 456.292969 Z M 228.351562 448.882812 "/>
</g>
</svg>
