<?xml version="1.0" encoding="UTF-8"?>
<svg xmlns="http://www.w3.org/2000/svg" xmlns:xlink="http://www.w3.org/1999/xlink" width="504pt" height="504pt" viewBox="0 0 504 504" version="1.1">
<g id="surface80">
<rect x="0" y="0" width="504" height="504" style="fill:rgb(100%,100%,100%);fill-opacity:1;stroke:none;"/>
<path style="fill-rule:nonzero;fill:rgb(0%,0%,0%);fill-opacity:1;stroke-width:0.75;stroke-linecap:round;stroke-linejoin:round;stroke:rgb(20%,20%,20%);stroke-opacity:1;stroke-miterlimit:10;" d="M 300.71875 382.398438 L 300.132812 389.984375 L 301.882812 396.984375 L 302.46875 404.570312 L 302.46875 412.738281 L 298.382812 417.988281 L 293.714844 423.824219 L 286.714844 424.988281 L 278.546875 424.988281 L 272.128906 430.824219 L 263.960938 437.824219 L 256.375 443.074219 L 248.207031 448.910156 L 240.621094 455.910156 L 232.453125 461.746094 L 224.871094 467.582031 L 217.285156 472.246094 L 211.449219 465.832031 L 205.035156 459.414062 L 200.367188 451.246094 L 201.53125 443.660156 L 201.53125 427.90625 L 200.949219 419.738281 L 200.367188 412.152344 L 201.53125 403.984375 L 201.53125 396.402344 L 202.699219 388.234375 L 202.699219 380.648438 L 201.53125 373.0625 L 201.53125 365.480469 L 200.367188 357.894531 L 200.367188 349.726562 L 199.199219 342.140625 L 196.28125 333.972656 L 195.699219 326.972656 L 196.863281 319.386719 L 198.03125 312.386719 L 198.03125 304.21875 L 199.199219 296.632812 L 198.03125 288.464844 L 198.03125 242.375 L 200.367188 234.207031 L 201.53125 226.621094 L 200.949219 218.453125 L 198.03125 210.867188 L 199.199219 203.28125 L 199.199219 195.699219 L 200.367188 188.113281 L 201.53125 180.527344 L 200.367188 172.359375 L 201.53125 164.777344 L 202.699219 156.609375 L 203.28125 149.023438 L 205.035156 140.855469 L 206.199219 133.855469 L 205.035156 126.269531 L 206.785156 118.101562 L 209.699219 110.515625 L 212.035156 102.347656 L 214.367188 94.761719 L 215.535156 86.59375 L 217.867188 79.011719 L 222.535156 70.84375 L 224.285156 63.257812 L 225.453125 55.089844 L 227.203125 48.089844 L 228.953125 41.085938 L 232.453125 34.085938 L 238.289062 31.753906 L 242.375 37.585938 L 247.039062 42.835938 L 249.375 49.839844 L 251.707031 57.421875 L 256.375 65.589844 L 259.875 73.175781 L 262.792969 81.34375 L 265.710938 88.929688 L 270.378906 97.097656 L 274.460938 104.683594 L 276.796875 112.851562 L 279.128906 120.433594 L 280.296875 128.019531 L 282.628906 134.4375 L 283.796875 142.023438 L 284.964844 149.023438 L 284.964844 156.609375 L 286.132812 164.777344 L 286.132812 172.359375 L 287.296875 180.527344 L 286.132812 188.113281 L 286.132812 196.28125 L 287.296875 203.28125 L 287.296875 211.449219 L 288.464844 219.035156 L 291.964844 227.203125 L 294.300781 234.789062 L 294.300781 242.957031 L 297.800781 250.542969 L 299.550781 258.125 L 300.132812 265.710938 L 301.300781 272.710938 L 301.300781 280.878906 L 303.632812 288.464844 L 305.96875 296.632812 L 305.96875 304.21875 L 307.136719 312.386719 L 307.136719 319.96875 L 308.300781 328.140625 L 307.136719 335.722656 L 307.136719 343.890625 L 308.300781 351.476562 L 308.300781 359.644531 L 307.136719 367.230469 L 303.632812 374.8125 Z M 300.71875 382.398438 "/>
</g>
</svg>
