<?xml version="1.0" encoding="UTF-8"?>
<svg xmlns="http://www.w3.org/2000/svg" xmlns:xlink="http://www.w3.org/1999/xlink" width="504pt" height="504pt" viewBox="0 0 504 504" version="1.1">
<g id="surface45">
<rect x="0" y="0" width="504" height="504" style="fill:rgb(100%,100%,100%);fill-opacity:1;stroke:none;"/>
<path style="fill-rule:nonzero;fill:rgb(0%,0%,0%);fill-opacity:1;stroke-width:0.75;stroke-linecap:round;stroke-linejoin:round;stroke:rgb(20%,20%,20%);stroke-opacity:1;stroke-miterlimit:10;" d="M 245.324219 472.246094 L 237.816406 472.246094 L 229.476562 468.910156 L 222.800781 464.738281 L 215.292969 459.734375 L 212.789062 452.226562 L 213.625 443.882812 L 215.292969 436.375 L 216.960938 429.699219 L 216.960938 421.355469 L 214.457031 413.847656 L 211.953125 405.507812 L 210.285156 398.832031 L 203.613281 393.828125 L 199.441406 386.316406 L 196.9375 378.808594 L 193.601562 370.464844 L 190.265625 355.449219 L 191.097656 347.105469 L 192.765625 339.597656 L 193.601562 331.257812 L 194.433594 323.746094 L 196.9375 315.40625 L 204.445312 313.734375 L 207.785156 307.0625 L 207.785156 291.210938 L 206.949219 282.867188 L 206.949219 275.359375 L 204.445312 267.015625 L 204.445312 259.507812 L 207.785156 252 L 209.453125 243.65625 L 208.617188 236.148438 L 202.777344 228.640625 L 200.273438 221.132812 L 199.441406 213.625 L 199.441406 119.351562 L 201.109375 111.007812 L 203.613281 103.5 L 205.28125 95.15625 L 205.28125 80.140625 L 206.113281 71.796875 L 206.949219 64.289062 L 208.617188 55.945312 L 211.953125 50.105469 L 216.960938 42.597656 L 222.800781 36.757812 L 229.476562 31.753906 L 236.984375 35.921875 L 241.15625 42.597656 L 248.664062 47.601562 L 252 54.277344 L 256.171875 60.953125 L 261.175781 69.292969 L 263.679688 76.800781 L 267.015625 85.144531 L 270.355469 92.652344 L 272.855469 100.996094 L 274.523438 108.503906 L 278.695312 115.179688 L 282.867188 122.6875 L 285.371094 130.195312 L 288.707031 138.539062 L 292.046875 146.046875 L 297.050781 152.722656 L 297.886719 160.230469 L 298.71875 167.738281 L 300.386719 176.082031 L 301.222656 183.589844 L 302.890625 191.933594 L 302.890625 199.441406 L 303.726562 206.949219 L 305.394531 215.292969 L 308.730469 222.800781 L 309.566406 231.144531 L 309.566406 238.652344 L 311.234375 246.160156 L 312.066406 254.503906 L 313.734375 261.175781 L 313.734375 269.519531 L 312.902344 277.027344 L 312.902344 285.371094 L 312.066406 292.878906 L 311.234375 300.386719 L 309.566406 307.894531 L 308.730469 315.40625 L 306.226562 323.746094 L 306.226562 331.257812 L 307.0625 338.765625 L 305.394531 347.105469 L 302.890625 354.617188 L 302.054688 362.957031 L 301.222656 370.464844 L 299.554688 378.808594 L 297.886719 386.316406 L 293.714844 393.828125 L 289.542969 402.167969 L 286.207031 408.84375 L 283.703125 417.1875 L 278.695312 424.695312 L 274.523438 431.367188 L 271.1875 439.710938 L 267.015625 446.386719 L 262.84375 454.726562 L 257.003906 460.566406 L 251.164062 467.242188 Z M 245.324219 472.246094 "/>
</g>
</svg>
