<?xml version="1.0" encoding="UTF-8"?>
<svg xmlns="http://www.w3.org/2000/svg" xmlns:xlink="http://www.w3.org/1999/xlink" width="504pt" height="504pt" viewBox="0 0 504 504" version="1.1">
<g id="surface60">
<rect x="0" y="0" width="504" height="504" style="fill:rgb(100%,100%,100%);fill-opacity:1;stroke:none;"/>
<path style="fill-rule:nonzero;fill:rgb(0%,0%,0%);fill-opacity:1;stroke-width:0.75;stroke-linecap:round;stroke-linejoin:round;stroke:rgb(20%,20%,20%);stroke-opacity:1;stroke-miterlimit:10;" d="M 267.546875 464.472656 L 259.773438 467.066406 L 252 467.066406 L 236.453125 472.246094 L 210.542969 472.246094 L 202.769531 469.65625 L 194.996094 464.472656 L 192.402344 456.699219 L 189.8125 448.925781 L 189.8125 417.832031 L 187.222656 410.058594 L 187.222656 360.828125 L 184.628906 353.054688 L 184.628906 296.050781 L 182.039062 288.277344 L 184.628906 280.503906 L 184.628906 249.410156 L 182.039062 241.636719 L 182.039062 176.855469 L 184.628906 169.082031 L 184.628906 137.988281 L 187.222656 130.214844 L 187.222656 122.441406 L 189.8125 114.667969 L 192.402344 104.304688 L 192.402344 96.53125 L 194.996094 88.757812 L 194.996094 73.210938 L 200.175781 57.664062 L 202.769531 49.890625 L 205.359375 42.117188 L 210.542969 34.34375 L 218.316406 31.753906 L 226.089844 34.34375 L 231.269531 42.117188 L 236.453125 52.480469 L 241.636719 60.253906 L 244.226562 68.027344 L 249.410156 75.800781 L 254.589844 83.574219 L 257.183594 91.347656 L 262.363281 99.121094 L 267.546875 106.894531 L 270.136719 114.667969 L 272.730469 122.441406 L 275.320312 130.214844 L 277.910156 140.582031 L 280.503906 148.355469 L 288.277344 153.535156 L 311.597656 176.855469 L 316.777344 192.402344 L 316.777344 215.722656 L 319.371094 223.496094 L 319.371094 264.957031 L 321.960938 272.730469 L 321.960938 288.277344 L 319.371094 296.050781 L 314.1875 303.824219 L 306.414062 309.003906 L 298.640625 314.1875 L 288.277344 321.960938 L 285.683594 329.734375 L 280.503906 337.507812 L 280.503906 345.28125 L 277.910156 353.054688 L 275.320312 360.828125 L 275.320312 425.605469 L 277.910156 433.378906 L 277.910156 448.925781 L 275.320312 456.699219 Z M 267.546875 464.472656 "/>
</g>
</svg>
