<?xml version="1.0" encoding="UTF-8"?>
<svg xmlns="http://www.w3.org/2000/svg" xmlns:xlink="http://www.w3.org/1999/xlink" width="504pt" height="504pt" viewBox="0 0 504 504" version="1.1">
<g id="surface85">
<rect x="0" y="0" width="504" height="504" style="fill:rgb(100%,100%,100%);fill-opacity:1;stroke:none;"/>
<path style="fill-rule:nonzero;fill:rgb(0%,0%,0%);fill-opacity:1;stroke-width:0.75;stroke-linecap:round;stroke-linejoin:round;stroke:rgb(20%,20%,20%);stroke-opacity:1;stroke-miterlimit:10;" d="M 243.84375 455.933594 L 235.683594 464.089844 L 227.527344 464.089844 L 219.371094 455.933594 L 219.371094 447.777344 L 211.214844 439.617188 L 203.054688 431.460938 L 194.898438 423.304688 L 194.898438 415.148438 L 186.742188 406.988281 L 186.742188 276.472656 L 178.585938 268.316406 L 178.585938 105.167969 L 170.425781 97.011719 L 170.425781 88.851562 L 178.585938 80.695312 L 178.585938 56.222656 L 203.054688 31.753906 L 211.214844 31.753906 L 235.683594 56.222656 L 243.84375 56.222656 L 252 64.382812 L 260.15625 64.382812 L 268.316406 72.539062 L 268.316406 80.695312 L 276.472656 88.851562 L 284.628906 88.851562 L 292.785156 97.011719 L 292.785156 113.324219 L 309.101562 129.640625 L 309.101562 203.054688 L 317.257812 211.214844 L 317.257812 243.84375 L 325.414062 252 L 325.414062 349.886719 L 333.574219 358.046875 L 333.574219 423.304688 L 325.414062 431.460938 L 325.414062 439.617188 L 317.257812 447.777344 L 309.101562 455.933594 L 309.101562 464.089844 L 300.945312 472.246094 L 276.472656 472.246094 L 268.316406 464.089844 L 260.15625 455.933594 Z M 243.84375 455.933594 "/>
</g>
</svg>
