<?xml version="1.0" encoding="UTF-8"?>
<svg xmlns="http://www.w3.org/2000/svg" xmlns:xlink="http://www.w3.org/1999/xlink" width="504pt" height="504pt" viewBox="0 0 504 504" version="1.1">
<g id="surface90">
<rect x="0" y="0" width="504" height="504" style="fill:rgb(100%,100%,100%);fill-opacity:1;stroke:none;"/>
<path style="fill-rule:nonzero;fill:rgb(0%,0%,0%);fill-opacity:1;stroke-width:0.75;stroke-linecap:round;stroke-linejoin:round;stroke:rgb(20%,20%,20%);stroke-opacity:1;stroke-miterlimit:10;" d="M 206.726562 327.863281 L 199.386719 327.863281 L 204.28125 320.523438 L 204.28125 305.839844 L 206.726562 298.496094 L 209.175781 288.707031 L 209.175781 225.082031 L 211.621094 217.738281 L 211.621094 210.398438 L 214.070312 200.609375 L 214.070312 178.585938 L 211.621094 168.796875 L 214.070312 161.453125 L 216.515625 154.113281 L 218.960938 144.324219 L 218.960938 122.296875 L 216.515625 112.507812 L 216.515625 48.882812 L 218.960938 41.539062 L 223.855469 34.199219 L 233.644531 31.753906 L 248.328125 31.753906 L 258.117188 36.644531 L 265.460938 36.644531 L 272.800781 41.539062 L 280.144531 46.433594 L 287.484375 56.222656 L 292.378906 63.566406 L 294.824219 70.90625 L 294.824219 78.25 L 297.273438 88.039062 L 299.71875 95.378906 L 302.167969 102.722656 L 302.167969 112.507812 L 304.613281 119.851562 L 304.613281 144.324219 L 302.167969 151.664062 L 302.167969 176.136719 L 299.71875 183.476562 L 299.71875 190.820312 L 297.273438 200.609375 L 294.824219 207.949219 L 294.824219 239.765625 L 299.71875 244.660156 L 302.167969 254.445312 L 302.167969 269.128906 L 299.71875 276.472656 L 299.71875 325.414062 L 297.273438 332.757812 L 292.378906 340.097656 L 292.378906 362.125 L 294.824219 371.914062 L 294.824219 379.253906 L 292.378906 386.597656 L 289.929688 393.9375 L 287.484375 403.726562 L 287.484375 411.066406 L 282.589844 418.410156 L 277.695312 428.199219 L 275.25 435.539062 L 272.800781 442.882812 L 270.355469 450.222656 L 260.566406 460.011719 L 255.671875 467.355469 L 250.777344 472.246094 L 233.644531 472.246094 L 226.304688 469.800781 L 218.960938 464.90625 L 214.070312 455.117188 L 211.621094 447.777344 L 209.175781 440.433594 L 204.28125 433.09375 L 204.28125 408.621094 L 206.726562 398.832031 L 206.726562 367.019531 L 204.28125 359.675781 L 206.726562 352.335938 Z M 206.726562 327.863281 "/>
</g>
</svg>
