<?xml version="1.0" encoding="UTF-8"?>
<svg xmlns="http://www.w3.org/2000/svg" xmlns:xlink="http://www.w3.org/1999/xlink" width="504pt" height="504pt" viewBox="0 0 504 504" version="1.1">
<g id="surface130">
<rect x="0" y="0" width="504" height="504" style="fill:rgb(100%,100%,100%);fill-opacity:1;stroke:none;"/>
<path style="fill-rule:nonzero;fill:rgb(0%,0%,0%);fill-opacity:1;stroke-width:0.75;stroke-linecap:round;stroke-linejoin:round;stroke:rgb(20%,20%,20%);stroke-opacity:1;stroke-miterlimit:10;" d="M 222.683594 365.507812 L 219.675781 362.5 L 221.179688 356.484375 L 221.179688 348.96875 L 219.675781 341.453125 L 219.675781 333.933594 L 222.683594 326.417969 L 222.683594 303.867188 L 221.179688 296.351562 L 221.179688 288.832031 L 222.683594 281.316406 L 222.683594 251.25 L 224.1875 243.730469 L 225.691406 236.214844 L 228.699219 228.699219 L 228.699219 212.160156 L 230.199219 204.644531 L 230.199219 197.125 L 231.703125 189.609375 L 231.703125 174.574219 L 228.699219 167.058594 L 227.195312 159.539062 L 227.195312 152.023438 L 228.699219 144.507812 L 230.199219 136.988281 L 230.199219 129.472656 L 228.699219 121.957031 L 230.199219 114.4375 L 230.199219 91.886719 L 231.703125 84.371094 L 231.703125 76.855469 L 233.207031 69.335938 L 234.710938 61.820312 L 237.71875 54.304688 L 240.722656 46.785156 L 245.234375 39.269531 L 251.25 31.753906 L 257.261719 34.757812 L 260.269531 42.277344 L 263.277344 49.792969 L 266.28125 57.308594 L 267.785156 64.828125 L 267.785156 87.378906 L 269.289062 94.894531 L 269.289062 102.410156 L 270.792969 109.929688 L 270.792969 117.445312 L 272.296875 124.960938 L 272.296875 139.996094 L 273.800781 149.015625 L 273.800781 156.535156 L 275.300781 164.050781 L 275.300781 186.601562 L 276.804688 194.117188 L 276.804688 201.636719 L 278.308594 209.152344 L 278.308594 231.703125 L 281.316406 239.222656 L 281.316406 246.738281 L 282.820312 254.253906 L 282.820312 284.324219 L 281.316406 291.839844 L 281.316406 306.875 L 282.820312 314.390625 L 282.820312 329.425781 L 284.324219 336.941406 L 282.820312 344.460938 L 282.820312 367.011719 L 281.316406 374.527344 L 281.316406 404.59375 L 278.308594 412.113281 L 276.804688 419.628906 L 276.804688 427.144531 L 275.300781 434.664062 L 275.300781 443.683594 L 270.792969 449.695312 L 267.785156 457.214844 L 264.777344 464.730469 L 260.269531 472.246094 L 252.75 472.246094 L 245.234375 470.746094 L 237.71875 463.226562 L 231.703125 455.710938 L 228.699219 448.195312 L 227.195312 440.675781 L 227.195312 425.644531 L 224.1875 418.125 L 222.683594 410.609375 L 224.1875 403.089844 L 225.691406 395.574219 L 225.691406 380.539062 Z M 222.683594 365.507812 "/>
</g>
</svg>
