<?xml version="1.0" encoding="UTF-8"?>
<svg xmlns="http://www.w3.org/2000/svg" xmlns:xlink="http://www.w3.org/1999/xlink" width="504pt" height="504pt" viewBox="0 0 504 504" version="1.1">
<g id="surface95">
<rect x="0" y="0" width="504" height="504" style="fill:rgb(100%,100%,100%);fill-opacity:1;stroke:none;"/>
<path style="fill-rule:nonzero;fill:rgb(0%,0%,0%);fill-opacity:1;stroke-width:0.75;stroke-linecap:round;stroke-linejoin:round;stroke:rgb(20%,20%,20%);stroke-opacity:1;stroke-miterlimit:10;" d="M 222.351562 468.011719 L 213.878906 472.246094 L 209.644531 463.777344 L 205.410156 455.304688 L 205.410156 442.597656 L 209.644531 434.128906 L 209.644531 256.234375 L 205.410156 247.765625 L 205.410156 120.699219 L 201.171875 112.226562 L 201.171875 35.988281 L 209.644531 31.753906 L 218.117188 35.988281 L 226.585938 40.222656 L 230.824219 40.222656 L 239.292969 44.457031 L 247.765625 52.929688 L 252 61.402344 L 256.234375 69.871094 L 260.472656 78.34375 L 264.707031 82.578125 L 264.707031 91.050781 L 268.941406 99.519531 L 277.414062 107.992188 L 281.648438 116.460938 L 290.121094 124.933594 L 290.121094 129.167969 L 294.355469 137.640625 L 294.355469 146.113281 L 298.589844 154.582031 L 298.589844 192.703125 L 302.828125 201.171875 L 302.828125 209.644531 L 298.589844 218.117188 L 298.589844 294.355469 L 294.355469 302.828125 L 294.355469 357.886719 L 290.121094 366.359375 L 290.121094 387.539062 L 285.882812 396.007812 L 285.882812 404.480469 L 281.648438 412.949219 L 277.414062 421.421875 L 277.414062 425.65625 L 273.175781 434.128906 L 268.941406 442.597656 L 260.472656 459.542969 L 252 459.542969 L 247.765625 463.777344 L 239.292969 468.011719 Z M 222.351562 468.011719 "/>
</g>
</svg>
