<?xml version="1.0" encoding="UTF-8"?>
<svg xmlns="http://www.w3.org/2000/svg" xmlns:xlink="http://www.w3.org/1999/xlink" width="504pt" height="504pt" viewBox="0 0 504 504" version="1.1">
<g id="surface110">
<rect x="0" y="0" width="504" height="504" style="fill:rgb(100%,100%,100%);fill-opacity:1;stroke:none;"/>
<path style="fill-rule:nonzero;fill:rgb(0%,0%,0%);fill-opacity:1;stroke-width:0.75;stroke-linecap:round;stroke-linejoin:round;stroke:rgb(20%,20%,20%);stroke-opacity:1;stroke-miterlimit:10;" d="M 204.582031 158.007812 L 202.898438 151.835938 L 199.535156 143.417969 L 199.535156 127.707031 L 200.09375 119.289062 L 200.09375 111.433594 L 199.535156 103.578125 L 198.972656 95.160156 L 197.289062 87.304688 L 196.726562 79.449219 L 196.167969 71.59375 L 195.605469 63.175781 L 195.605469 47.464844 L 197.851562 39.046875 L 203.460938 31.753906 L 211.316406 32.3125 L 219.734375 34.558594 L 227.589844 37.925781 L 235.445312 41.851562 L 243.300781 48.585938 L 248.914062 54.757812 L 256.769531 60.371094 L 264.066406 66.542969 L 269.675781 73.277344 L 274.726562 80.570312 L 279.214844 88.425781 L 283.703125 96.285156 L 288.195312 104.140625 L 291.558594 111.996094 L 294.367188 120.414062 L 295.488281 128.269531 L 297.734375 136.125 L 299.417969 144.542969 L 299.417969 152.398438 L 300.539062 160.253906 L 301.660156 168.671875 L 302.222656 176.527344 L 303.34375 184.382812 L 303.90625 192.800781 L 305.027344 200.65625 L 305.589844 208.511719 L 307.273438 216.929688 L 308.394531 224.785156 L 305.027344 232.078125 L 303.90625 240.496094 L 303.34375 248.351562 L 302.222656 256.207031 L 302.222656 264.625 L 301.660156 272.480469 L 301.101562 280.335938 L 301.660156 288.195312 L 301.101562 296.609375 L 301.101562 304.464844 L 301.660156 312.324219 L 301.101562 320.738281 L 299.976562 328.597656 L 297.734375 336.453125 L 297.734375 344.867188 L 298.292969 352.726562 L 298.292969 400.984375 L 296.050781 408.839844 L 296.050781 417.257812 L 294.925781 432.96875 L 294.925781 440.824219 L 296.050781 449.242188 L 293.804688 457.097656 L 293.242188 464.953125 L 284.828125 467.199219 L 276.972656 469.441406 L 269.675781 470.566406 L 261.257812 469.441406 L 253.402344 470.566406 L 245.546875 472.246094 L 237.691406 466.074219 L 232.078125 462.148438 L 230.957031 454.851562 L 230.957031 446.433594 L 229.835938 438.578125 L 229.273438 430.722656 L 227.589844 422.304688 L 227.027344 414.449219 L 225.347656 406.59375 L 224.222656 398.175781 L 223.664062 390.320312 L 222.539062 382.464844 L 220.855469 375.171875 L 220.855469 366.753906 L 219.171875 358.898438 L 216.929688 351.042969 L 214.121094 342.625 L 213 334.769531 L 213 310.640625 L 211.316406 302.785156 L 210.757812 294.367188 L 211.316406 286.511719 L 211.316406 262.382812 L 210.757812 254.523438 L 209.074219 246.109375 L 209.074219 238.253906 L 210.757812 230.394531 L 210.757812 206.265625 L 209.074219 198.410156 L 207.390625 189.992188 L 205.707031 182.136719 L 205.144531 174.28125 L 205.144531 165.863281 Z M 204.582031 158.007812 "/>
</g>
</svg>
