<?xml version="1.0" encoding="UTF-8"?>
<svg xmlns="http://www.w3.org/2000/svg" xmlns:xlink="http://www.w3.org/1999/xlink" width="504pt" height="504pt" viewBox="0 0 504 504" version="1.1">
<g id="surface65">
<rect x="0" y="0" width="504" height="504" style="fill:rgb(100%,100%,100%);fill-opacity:1;stroke:none;"/>
<path style="fill-rule:nonzero;fill:rgb(0%,0%,0%);fill-opacity:1;stroke-width:0.75;stroke-linecap:round;stroke-linejoin:round;stroke:rgb(20%,20%,20%);stroke-opacity:1;stroke-miterlimit:10;" d="M 231.445312 469.3125 L 222.632812 469.3125 L 225.570312 463.4375 L 216.761719 457.566406 L 210.886719 454.628906 L 202.078125 448.753906 L 202.078125 419.386719 L 199.140625 410.578125 L 199.140625 378.277344 L 202.078125 372.402344 L 202.078125 334.226562 L 199.140625 325.414062 L 199.140625 319.542969 L 196.203125 310.734375 L 196.203125 301.921875 L 199.140625 296.050781 L 199.140625 281.367188 L 202.078125 272.554688 L 202.078125 111.042969 L 205.015625 105.167969 L 205.015625 66.992188 L 207.949219 58.183594 L 207.949219 43.5 L 210.886719 34.6875 L 216.761719 31.753906 L 222.632812 37.625 L 231.445312 46.433594 L 234.378906 52.308594 L 237.316406 61.117188 L 240.253906 69.929688 L 243.191406 75.800781 L 246.125 84.613281 L 249.0625 90.484375 L 252 99.292969 L 257.875 108.105469 L 260.808594 113.976562 L 263.746094 122.789062 L 263.746094 128.660156 L 269.621094 137.472656 L 272.554688 146.28125 L 275.492188 152.152344 L 278.429688 160.964844 L 281.367188 166.835938 L 284.304688 175.648438 L 290.175781 184.457031 L 293.113281 190.332031 L 298.984375 199.140625 L 304.859375 205.015625 L 307.796875 213.824219 L 307.796875 237.316406 L 304.859375 246.125 L 304.859375 298.984375 L 298.984375 304.859375 L 293.113281 313.667969 L 287.238281 322.480469 L 284.304688 328.351562 L 278.429688 337.164062 L 278.429688 360.65625 L 275.492188 366.527344 L 269.621094 375.339844 L 269.621094 398.832031 L 266.683594 404.707031 L 263.746094 413.515625 L 263.746094 428.199219 L 260.808594 437.007812 L 257.875 442.882812 L 257.875 460.5 L 252 466.375 L 246.125 472.246094 L 240.253906 472.246094 Z M 231.445312 469.3125 "/>
</g>
</svg>
