<?xml version="1.0" encoding="UTF-8"?>
<svg xmlns="http://www.w3.org/2000/svg" xmlns:xlink="http://www.w3.org/1999/xlink" width="504pt" height="504pt" viewBox="0 0 504 504" version="1.1">
<g id="surface140">
<rect x="0" y="0" width="504" height="504" style="fill:rgb(100%,100%,100%);fill-opacity:1;stroke:none;"/>
<path style="fill-rule:nonzero;fill:rgb(0%,0%,0%);fill-opacity:1;stroke-width:0.75;stroke-linecap:round;stroke-linejoin:round;stroke:rgb(20%,20%,20%);stroke-opacity:1;stroke-miterlimit:10;" d="M 255.167969 469.078125 L 245.660156 469.078125 L 242.492188 462.742188 L 232.984375 459.570312 L 226.648438 456.402344 L 210.800781 456.402344 L 207.632812 446.894531 L 207.632812 408.867188 L 210.800781 399.359375 L 210.800781 342.316406 L 213.972656 335.980469 L 213.972656 304.289062 L 210.800781 294.78125 L 207.632812 288.445312 L 207.632812 272.597656 L 210.800781 263.089844 L 210.800781 152.175781 L 207.632812 142.667969 L 207.632812 101.472656 L 204.464844 95.132812 L 204.464844 79.289062 L 201.296875 69.78125 L 198.125 63.441406 L 198.125 53.933594 L 194.957031 47.597656 L 204.464844 41.257812 L 210.800781 34.921875 L 220.308594 31.753906 L 229.816406 34.921875 L 236.15625 34.921875 L 245.660156 38.089844 L 252 44.429688 L 258.339844 53.933594 L 261.507812 60.273438 L 267.84375 69.78125 L 267.84375 76.117188 L 274.183594 85.625 L 274.183594 91.964844 L 280.519531 101.472656 L 280.519531 107.808594 L 283.691406 117.316406 L 286.859375 123.652344 L 290.027344 133.160156 L 290.027344 142.667969 L 293.199219 149.007812 L 296.367188 158.511719 L 296.367188 164.851562 L 299.535156 174.359375 L 299.535156 196.542969 L 302.703125 206.050781 L 302.703125 263.089844 L 305.875 269.429688 L 305.875 294.78125 L 309.042969 301.121094 L 309.042969 348.65625 L 305.875 358.164062 L 305.875 364.5 L 302.703125 374.007812 L 296.367188 380.347656 L 290.027344 386.683594 L 286.859375 396.191406 L 283.691406 402.527344 L 283.691406 427.882812 L 286.859375 434.21875 L 286.859375 459.570312 L 280.519531 465.910156 L 271.015625 472.246094 L 264.675781 469.078125 Z M 255.167969 469.078125 "/>
</g>
</svg>
