<?xml version="1.0" encoding="UTF-8"?>
<svg xmlns="http://www.w3.org/2000/svg" xmlns:xlink="http://www.w3.org/1999/xlink" width="504pt" height="504pt" viewBox="0 0 504 504" version="1.1">
<g id="surface125">
<rect x="0" y="0" width="504" height="504" style="fill:rgb(100%,100%,100%);fill-opacity:1;stroke:none;"/>
<path style="fill-rule:nonzero;fill:rgb(0%,0%,0%);fill-opacity:1;stroke-width:0.75;stroke-linecap:round;stroke-linejoin:round;stroke:rgb(20%,20%,20%);stroke-opacity:1;stroke-miterlimit:10;" d="M 194.734375 326.882812 L 188.128906 324.683594 L 185.925781 318.074219 L 185.925781 293.847656 L 183.722656 287.238281 L 183.722656 232.175781 L 185.925781 225.570312 L 190.332031 216.761719 L 196.9375 207.949219 L 199.140625 201.34375 L 199.140625 170.507812 L 196.9375 161.699219 L 199.140625 155.089844 L 199.140625 146.28125 L 201.34375 139.671875 L 201.34375 115.445312 L 203.546875 108.839844 L 207.949219 100.027344 L 212.355469 91.21875 L 212.355469 84.613281 L 216.761719 75.800781 L 223.367188 71.398438 L 225.570312 62.585938 L 229.976562 55.980469 L 234.378906 47.167969 L 238.785156 40.5625 L 245.390625 31.753906 L 252 31.753906 L 258.609375 38.359375 L 263.011719 44.96875 L 267.417969 53.777344 L 271.824219 60.382812 L 280.632812 69.195312 L 287.238281 78.003906 L 287.238281 84.613281 L 289.441406 93.421875 L 291.644531 100.027344 L 298.253906 106.636719 L 298.253906 113.242188 L 302.65625 122.054688 L 307.0625 128.660156 L 309.265625 137.472656 L 311.46875 144.078125 L 311.46875 183.722656 L 313.667969 192.53125 L 315.871094 199.140625 L 315.871094 207.949219 L 318.074219 214.558594 L 318.074219 223.367188 L 320.277344 229.976562 L 320.277344 260.808594 L 318.074219 269.621094 L 315.871094 276.226562 L 313.667969 285.039062 L 313.667969 315.871094 L 315.871094 324.683594 L 315.871094 331.289062 L 313.667969 340.097656 L 313.667969 346.707031 L 311.46875 355.515625 L 309.265625 362.125 L 304.859375 370.933594 L 300.453125 377.542969 L 298.253906 386.351562 L 296.050781 392.957031 L 296.050781 401.769531 L 293.847656 408.375 L 291.644531 417.1875 L 289.441406 425.996094 L 287.238281 432.601562 L 282.835938 441.414062 L 278.429688 448.019531 L 274.023438 456.832031 L 271.824219 463.4375 L 265.214844 472.246094 L 249.796875 472.246094 L 243.191406 467.84375 L 234.378906 465.640625 L 227.773438 461.234375 L 221.164062 454.628906 L 214.558594 452.425781 L 207.949219 443.617188 L 203.546875 434.804688 L 203.546875 412.78125 L 201.34375 403.972656 L 196.9375 397.363281 L 194.734375 388.554688 Z M 194.734375 326.882812 "/>
</g>
</svg>
