<?xml version="1.0" encoding="UTF-8"?>
<svg xmlns="http://www.w3.org/2000/svg" xmlns:xlink="http://www.w3.org/1999/xlink" width="504pt" height="504pt" viewBox="0 0 504 504" version="1.1">
<g id="surface40">
<rect x="0" y="0" width="504" height="504" style="fill:rgb(100%,100%,100%);fill-opacity:1;stroke:none;"/>
<path style="fill-rule:nonzero;fill:rgb(0%,0%,0%);fill-opacity:1;stroke-width:0.75;stroke-linecap:round;stroke-linejoin:round;stroke:rgb(20%,20%,20%);stroke-opacity:1;stroke-miterlimit:10;" d="M 210.179688 433.214844 L 199.027344 438.792969 L 193.453125 433.214844 L 187.878906 422.066406 L 182.300781 422.066406 L 171.148438 416.488281 L 165.574219 410.914062 L 159.996094 399.761719 L 154.421875 394.183594 L 154.421875 360.730469 L 148.847656 349.578125 L 148.847656 310.546875 L 154.421875 299.394531 L 154.421875 293.820312 L 159.996094 282.667969 L 159.996094 277.089844 L 165.574219 265.941406 L 165.574219 260.363281 L 171.148438 249.210938 L 171.148438 243.636719 L 176.726562 232.484375 L 176.726562 210.179688 L 182.300781 199.027344 L 182.300781 193.453125 L 187.878906 182.300781 L 193.453125 176.726562 L 199.027344 165.574219 L 204.605469 159.996094 L 204.605469 143.269531 L 210.179688 132.117188 L 210.179688 126.542969 L 215.757812 115.390625 L 215.757812 76.359375 L 221.332031 65.207031 L 221.332031 42.902344 L 232.484375 31.753906 L 238.058594 31.753906 L 249.210938 37.328125 L 254.789062 42.902344 L 265.941406 54.054688 L 271.515625 59.632812 L 277.089844 70.785156 L 277.089844 76.359375 L 282.667969 87.511719 L 288.242188 98.664062 L 288.242188 120.964844 L 293.820312 132.117188 L 299.394531 137.695312 L 299.394531 148.847656 L 304.972656 154.421875 L 304.972656 182.300781 L 310.546875 187.878906 L 310.546875 204.605469 L 316.121094 215.757812 L 321.699219 221.332031 L 327.273438 232.484375 L 327.273438 238.058594 L 332.851562 249.210938 L 332.851562 254.789062 L 338.425781 265.941406 L 338.425781 271.515625 L 344.003906 282.667969 L 344.003906 321.699219 L 349.578125 332.851562 L 349.578125 349.578125 L 355.152344 355.152344 L 355.152344 399.761719 L 349.578125 405.335938 L 349.578125 455.519531 L 344.003906 466.671875 L 338.425781 472.246094 L 321.699219 472.246094 L 310.546875 466.671875 L 293.820312 466.671875 L 288.242188 461.097656 L 277.089844 455.519531 L 271.515625 455.519531 L 260.363281 449.945312 L 254.789062 449.945312 L 243.636719 444.367188 L 238.058594 444.367188 L 226.910156 438.792969 L 221.332031 438.792969 Z M 210.179688 433.214844 "/>
</g>
</svg>
