<?xml version="1.0" encoding="UTF-8"?>
<svg xmlns="http://www.w3.org/2000/svg" xmlns:xlink="http://www.w3.org/1999/xlink" width="504pt" height="504pt" viewBox="0 0 504 504" version="1.1">
<g id="surface50">
<rect x="0" y="0" width="504" height="504" style="fill:rgb(100%,100%,100%);fill-opacity:1;stroke:none;"/>
<path style="fill-rule:nonzero;fill:rgb(0%,0%,0%);fill-opacity:1;stroke-width:0.75;stroke-linecap:round;stroke-linejoin:round;stroke:rgb(20%,20%,20%);stroke-opacity:1;stroke-miterlimit:10;" d="M 289.082031 413.816406 L 280.09375 418.308594 L 280.09375 456.515625 L 273.351562 463.257812 L 266.609375 467.753906 L 257.617188 472.246094 L 250.875 470 L 241.886719 467.753906 L 232.898438 467.753906 L 226.15625 465.503906 L 217.164062 463.257812 L 210.421875 463.257812 L 201.433594 458.761719 L 194.691406 452.019531 L 192.441406 443.03125 L 192.441406 436.289062 L 194.691406 427.300781 L 196.9375 420.558594 L 196.9375 395.835938 L 199.183594 386.847656 L 199.183594 380.101562 L 201.433594 371.113281 L 201.433594 364.371094 L 205.925781 355.382812 L 208.175781 348.640625 L 208.175781 332.90625 L 205.925781 323.917969 L 205.925781 301.445312 L 203.679688 292.453125 L 203.679688 283.464844 L 205.925781 276.722656 L 205.925781 101.421875 L 208.175781 92.433594 L 208.175781 76.699219 L 205.925781 69.957031 L 208.175781 60.96875 L 208.175781 54.226562 L 210.421875 45.238281 L 210.421875 38.496094 L 217.164062 31.753906 L 223.90625 34 L 232.898438 40.742188 L 241.886719 47.484375 L 248.628906 54.226562 L 257.617188 60.96875 L 264.359375 65.464844 L 271.101562 74.453125 L 271.101562 81.195312 L 275.597656 90.183594 L 277.84375 96.925781 L 282.339844 105.917969 L 284.585938 112.660156 L 289.082031 121.648438 L 293.578125 128.390625 L 295.824219 137.382812 L 298.074219 146.371094 L 300.320312 153.113281 L 302.566406 162.101562 L 307.0625 166.597656 L 307.0625 175.585938 L 309.308594 182.328125 L 309.308594 198.0625 L 311.558594 207.050781 L 311.558594 213.792969 L 309.308594 222.785156 L 307.0625 231.773438 L 307.0625 285.710938 L 304.816406 294.699219 L 302.566406 301.445312 L 302.566406 310.433594 L 300.320312 319.421875 L 300.320312 335.15625 L 298.074219 341.898438 L 298.074219 382.351562 L 300.320312 389.09375 L 298.074219 398.082031 L 293.578125 404.824219 Z M 289.082031 413.816406 "/>
</g>
</svg>
