<?xml version="1.0" encoding="UTF-8"?>
<svg xmlns="http://www.w3.org/2000/svg" xmlns:xlink="http://www.w3.org/1999/xlink" width="504pt" height="504pt" viewBox="0 0 504 504" version="1.1">
<g id="surface15">
<rect x="0" y="0" width="504" height="504" style="fill:rgb(100%,100%,100%);fill-opacity:1;stroke:none;"/>
<path style="fill-rule:nonzero;fill:rgb(0%,0%,0%);fill-opacity:1;stroke-width:0.75;stroke-linecap:round;stroke-linejoin:round;stroke:rgb(20%,20%,20%);stroke-opacity:1;stroke-miterlimit:10;" d="M 218.117188 468.617188 L 212.066406 472.246094 L 204.804688 468.617188 L 202.382812 460.144531 L 202.382812 452.886719 L 201.171875 445.625 L 202.382812 438.363281 L 202.382812 422.632812 L 203.59375 415.371094 L 203.59375 400.847656 L 204.804688 392.378906 L 206.015625 385.117188 L 207.222656 377.855469 L 208.433594 370.59375 L 209.644531 363.335938 L 210.855469 354.863281 L 210.855469 324.609375 L 209.644531 317.347656 L 210.855469 310.085938 L 210.855469 295.566406 L 209.644531 287.09375 L 208.433594 279.832031 L 208.433594 272.574219 L 207.222656 265.3125 L 207.222656 227.796875 L 206.015625 219.324219 L 206.015625 204.804688 L 207.222656 197.542969 L 207.222656 181.8125 L 208.433594 174.550781 L 208.433594 144.296875 L 209.644531 137.035156 L 209.644531 129.773438 L 210.855469 122.511719 L 212.066406 114.042969 L 212.066406 92.257812 L 213.273438 85 L 213.273438 39.011719 L 214.484375 31.753906 L 221.746094 31.753906 L 226.585938 39.011719 L 229.007812 47.484375 L 235.058594 53.535156 L 238.6875 60.796875 L 242.320312 68.054688 L 249.578125 76.527344 L 254.421875 82.578125 L 256.839844 89.839844 L 260.472656 97.101562 L 266.523438 104.359375 L 267.730469 112.832031 L 270.152344 120.09375 L 274.992188 127.355469 L 278.625 134.613281 L 281.042969 141.875 L 284.675781 150.347656 L 288.304688 157.609375 L 290.726562 163.660156 L 293.144531 170.917969 L 295.566406 179.390625 L 296.777344 186.652344 L 300.40625 193.914062 L 302.828125 201.171875 L 299.195312 208.433594 L 296.777344 216.90625 L 295.566406 224.167969 L 294.355469 231.425781 L 291.933594 245.949219 L 290.726562 254.421875 L 289.515625 261.679688 L 289.515625 268.941406 L 288.304688 276.203125 L 288.304688 284.675781 L 287.09375 291.933594 L 287.09375 299.195312 L 288.304688 306.457031 L 287.09375 313.71875 L 287.09375 322.1875 L 285.882812 329.449219 L 284.675781 336.710938 L 284.675781 343.972656 L 283.464844 352.441406 L 283.464844 359.703125 L 284.675781 366.964844 L 285.882812 374.226562 L 289.515625 381.488281 L 283.464844 389.957031 L 276.203125 397.21875 L 264.101562 411.742188 L 258.050781 417.792969 L 252 426.261719 L 248.371094 433.523438 L 241.109375 438.363281 L 233.847656 445.625 L 227.796875 454.09375 Z M 218.117188 468.617188 "/>
</g>
</svg>
