<?xml version="1.0" encoding="UTF-8"?>
<svg xmlns="http://www.w3.org/2000/svg" xmlns:xlink="http://www.w3.org/1999/xlink" width="504pt" height="504pt" viewBox="0 0 504 504" version="1.1">
<g id="surface100">
<rect x="0" y="0" width="504" height="504" style="fill:rgb(100%,100%,100%);fill-opacity:1;stroke:none;"/>
<path style="fill-rule:nonzero;fill:rgb(0%,0%,0%);fill-opacity:1;stroke-width:0.75;stroke-linecap:round;stroke-linejoin:round;stroke:rgb(20%,20%,20%);stroke-opacity:1;stroke-miterlimit:10;" d="M 270.699219 451.46875 L 266.542969 459.78125 L 258.234375 468.09375 L 237.457031 468.09375 L 229.144531 472.246094 L 212.523438 472.246094 L 204.210938 468.09375 L 195.898438 451.46875 L 195.898438 380.824219 L 191.742188 372.511719 L 191.742188 343.421875 L 195.898438 335.113281 L 195.898438 301.867188 L 200.054688 293.554688 L 200.054688 189.664062 L 195.898438 185.511719 L 195.898438 127.332031 L 200.054688 119.019531 L 200.054688 110.707031 L 204.210938 102.398438 L 204.210938 48.375 L 212.523438 44.21875 L 220.832031 35.90625 L 224.988281 35.90625 L 233.300781 31.753906 L 241.609375 31.753906 L 249.921875 40.0625 L 258.234375 56.6875 L 262.390625 64.996094 L 270.699219 73.308594 L 274.855469 81.621094 L 283.167969 89.929688 L 287.324219 98.242188 L 287.324219 110.707031 L 291.476562 119.019531 L 291.476562 127.332031 L 295.632812 135.640625 L 295.632812 152.265625 L 299.789062 160.578125 L 299.789062 173.042969 L 303.945312 181.355469 L 308.101562 189.664062 L 312.257812 197.976562 L 312.257812 239.53125 L 308.101562 247.84375 L 308.101562 276.933594 L 303.945312 285.246094 L 303.945312 347.578125 L 308.101562 355.890625 L 308.101562 364.203125 L 303.945312 372.511719 L 303.945312 380.824219 L 299.789062 389.136719 L 299.789062 397.445312 L 295.632812 405.757812 L 295.632812 414.070312 L 291.476562 418.226562 L 287.324219 426.535156 L 279.011719 443.160156 Z M 270.699219 451.46875 "/>
</g>
</svg>
