<?xml version="1.0" encoding="UTF-8"?>
<svg xmlns="http://www.w3.org/2000/svg" xmlns:xlink="http://www.w3.org/1999/xlink" width="504pt" height="504pt" viewBox="0 0 504 504" version="1.1">
<g id="surface120">
<rect x="0" y="0" width="504" height="504" style="fill:rgb(100%,100%,100%);fill-opacity:1;stroke:none;"/>
<path style="fill-rule:nonzero;fill:rgb(0%,0%,0%);fill-opacity:1;stroke-width:0.75;stroke-linecap:round;stroke-linejoin:round;stroke:rgb(20%,20%,20%);stroke-opacity:1;stroke-miterlimit:10;" d="M 328.832031 467.125 L 318.585938 472.246094 L 313.464844 467.125 L 303.21875 467.125 L 292.976562 462.003906 L 282.730469 462.003906 L 277.609375 456.882812 L 267.367188 456.882812 L 257.121094 451.761719 L 185.414062 451.761719 L 180.292969 446.636719 L 170.046875 441.515625 L 164.925781 431.273438 L 164.925781 380.050781 L 159.804688 369.808594 L 159.804688 292.976562 L 164.925781 282.730469 L 164.925781 246.878906 L 170.046875 236.632812 L 170.046875 113.703125 L 164.925781 103.460938 L 164.925781 72.726562 L 170.046875 62.484375 L 170.046875 52.238281 L 180.292969 41.996094 L 185.414062 41.996094 L 195.65625 36.875 L 205.902344 31.753906 L 231.511719 31.753906 L 241.757812 36.875 L 246.878906 41.996094 L 257.121094 47.117188 L 292.976562 82.972656 L 298.097656 93.214844 L 303.21875 103.460938 L 303.21875 108.582031 L 308.34375 118.828125 L 308.34375 134.191406 L 313.464844 144.4375 L 313.464844 154.679688 L 318.585938 164.925781 L 318.585938 190.535156 L 323.707031 200.78125 L 323.707031 226.390625 L 328.832031 231.511719 L 328.832031 277.609375 L 333.953125 287.855469 L 333.953125 323.707031 L 339.074219 328.832031 L 339.074219 339.074219 L 333.953125 349.320312 L 333.953125 390.296875 L 339.074219 400.539062 L 339.074219 436.394531 L 344.195312 446.636719 L 344.195312 456.882812 L 339.074219 462.003906 Z M 328.832031 467.125 "/>
</g>
</svg>
