<?xml version="1.0" encoding="UTF-8"?>
<svg xmlns="http://www.w3.org/2000/svg" xmlns:xlink="http://www.w3.org/1999/xlink" width="504pt" height="504pt" viewBox="0 0 504 504" version="1.1">
<g id="surface35">
<rect x="0" y="0" width="504" height="504" style="fill:rgb(100%,100%,100%);fill-opacity:1;stroke:none;"/>
<path style="fill-rule:nonzero;fill:rgb(0%,0%,0%);fill-opacity:1;stroke-width:0.75;stroke-linecap:round;stroke-linejoin:round;stroke:rgb(20%,20%,20%);stroke-opacity:1;stroke-miterlimit:10;" d="M 298.125 365.988281 L 294.261719 373.714844 L 291.363281 380.960938 L 287.5 388.6875 L 284.121094 395.933594 L 280.253906 403.660156 L 275.910156 411.390625 L 273.011719 417.667969 L 269.148438 424.429688 L 265.28125 430.710938 L 261.417969 438.4375 L 257.070312 446.164062 L 252.722656 453.410156 L 247.410156 461.140625 L 242.582031 468.867188 L 236.300781 472.246094 L 230.988281 465.484375 L 224.710938 459.207031 L 221.328125 451.480469 L 219.878906 443.75 L 218.429688 436.507812 L 216.984375 428.777344 L 215.535156 421.53125 L 214.085938 413.804688 L 211.667969 406.078125 L 210.703125 398.832031 L 210.703125 391.105469 L 211.1875 383.859375 L 208.773438 376.132812 L 206.839844 368.402344 L 204.90625 361.15625 L 203.941406 353.429688 L 201.527344 346.183594 L 198.144531 338.457031 L 196.695312 330.730469 L 196.695312 323.484375 L 196.214844 315.757812 L 198.144531 308.027344 L 199.59375 300.78125 L 201.042969 293.054688 L 201.527344 285.808594 L 200.078125 278.082031 L 201.527344 270.355469 L 204.425781 263.109375 L 206.839844 255.382812 L 207.804688 248.136719 L 208.773438 240.40625 L 209.738281 232.679688 L 207.804688 225.433594 L 210.21875 217.707031 L 210.703125 210.460938 L 207.804688 202.734375 L 207.324219 195.007812 L 206.355469 187.761719 L 207.804688 180.03125 L 208.773438 172.789062 L 207.324219 165.058594 L 206.839844 157.332031 L 207.324219 150.085938 L 207.804688 142.359375 L 207.324219 134.632812 L 207.804688 127.386719 L 207.324219 119.65625 L 205.875 112.414062 L 204.90625 104.683594 L 205.390625 96.957031 L 206.839844 89.710938 L 207.324219 81.984375 L 207.804688 74.738281 L 208.289062 67.011719 L 209.253906 59.28125 L 210.21875 52.039062 L 211.1875 44.308594 L 211.667969 37.066406 L 216.015625 31.753906 L 223.746094 37.546875 L 230.507812 42.859375 L 238.234375 48.65625 L 245.480469 54.9375 L 253.207031 61.699219 L 257.554688 68.460938 L 260.933594 75.703125 L 266.730469 81.5 L 270.59375 88.746094 L 275.425781 96.472656 L 280.738281 104.203125 L 287.5 110.964844 L 294.746094 117.242188 L 297.160156 124.972656 L 300.542969 132.214844 L 303.441406 139.945312 L 305.371094 147.1875 L 305.371094 154.917969 L 305.855469 162.644531 L 306.820312 169.890625 L 303.921875 177.617188 L 303.441406 184.863281 L 304.40625 192.589844 L 303.921875 200.320312 L 304.886719 207.5625 L 304.886719 215.292969 L 303.921875 222.535156 L 303.921875 230.265625 L 304.886719 237.992188 L 305.855469 245.238281 L 307.304688 252.964844 L 307.304688 260.210938 L 307.785156 267.9375 L 307.304688 275.667969 L 307.304688 298.367188 L 306.335938 305.613281 L 305.855469 313.339844 L 307.304688 320.585938 L 307.304688 328.3125 L 304.886719 336.042969 L 303.441406 343.285156 L 301.507812 351.015625 L 300.542969 358.261719 Z M 298.125 365.988281 "/>
</g>
</svg>
