<?xml version="1.0" encoding="UTF-8"?>
<svg xmlns="http://www.w3.org/2000/svg" xmlns:xlink="http://www.w3.org/1999/xlink" width="504pt" height="504pt" viewBox="0 0 504 504" version="1.1">
<g id="surface75">
<rect x="0" y="0" width="504" height="504" style="fill:rgb(100%,100%,100%);fill-opacity:1;stroke:none;"/>
<path style="fill-rule:nonzero;fill:rgb(0%,0%,0%);fill-opacity:1;stroke-width:0.75;stroke-linecap:round;stroke-linejoin:round;stroke:rgb(20%,20%,20%);stroke-opacity:1;stroke-miterlimit:10;" d="M 246.09375 471.066406 L 239.007812 472.246094 L 235.464844 463.980469 L 233.105469 456.894531 L 233.105469 448.628906 L 230.742188 441.542969 L 229.5625 433.277344 L 229.5625 426.191406 L 228.382812 419.105469 L 227.199219 410.839844 L 227.199219 403.753906 L 222.476562 396.667969 L 216.570312 391.941406 L 208.304688 386.039062 L 207.125 380.132812 L 210.667969 373.046875 L 214.210938 364.78125 L 216.570312 357.695312 L 218.933594 349.429688 L 220.113281 342.34375 L 221.296875 334.078125 L 221.296875 319.90625 L 222.476562 311.636719 L 223.65625 304.550781 L 224.839844 296.285156 L 226.019531 289.199219 L 226.019531 251.410156 L 223.65625 243.144531 L 223.65625 236.058594 L 222.476562 228.972656 L 221.296875 220.703125 L 222.476562 213.617188 L 223.65625 205.351562 L 224.839844 198.265625 L 226.019531 190 L 226.019531 167.5625 L 227.199219 160.476562 L 227.199219 152.210938 L 228.382812 145.125 L 228.382812 129.769531 L 229.5625 122.683594 L 230.742188 114.417969 L 231.921875 107.332031 L 233.105469 99.066406 L 235.464844 91.980469 L 236.648438 83.714844 L 239.007812 76.628906 L 241.371094 69.542969 L 243.734375 61.277344 L 246.09375 54.191406 L 249.636719 45.921875 L 250.820312 38.835938 L 252 31.753906 L 257.90625 35.292969 L 261.449219 42.378906 L 263.808594 50.648438 L 264.992188 57.734375 L 267.351562 66 L 268.535156 73.085938 L 270.894531 80.171875 L 272.078125 88.4375 L 273.257812 95.523438 L 275.617188 103.789062 L 276.800781 110.875 L 280.34375 119.144531 L 282.703125 126.226562 L 286.246094 132.132812 L 288.609375 140.398438 L 288.609375 155.753906 L 289.789062 162.839844 L 289.789062 178.191406 L 290.972656 185.277344 L 292.152344 193.542969 L 292.152344 224.246094 L 294.515625 230.152344 L 294.515625 276.210938 L 295.695312 283.296875 L 295.695312 321.085938 L 296.875 329.351562 L 295.695312 336.4375 L 295.695312 343.523438 L 292.152344 350.609375 L 287.429688 357.695312 L 285.066406 365.960938 L 281.523438 373.046875 L 280.34375 380.132812 L 276.800781 388.398438 L 275.617188 395.484375 L 274.4375 403.753906 L 274.4375 410.839844 L 273.257812 419.105469 L 272.078125 426.191406 L 270.894531 433.277344 L 269.714844 441.542969 L 268.535156 448.628906 L 264.992188 456.894531 L 260.265625 462.800781 L 253.179688 467.523438 Z M 246.09375 471.066406 "/>
</g>
</svg>
