<?xml version="1.0" encoding="UTF-8"?>
<svg xmlns="http://www.w3.org/2000/svg" xmlns:xlink="http://www.w3.org/1999/xlink" width="504pt" height="504pt" viewBox="0 0 504 504" version="1.1">
<g id="surface25">
<rect x="0" y="0" width="504" height="504" style="fill:rgb(100%,100%,100%);fill-opacity:1;stroke:none;"/>
<path style="fill-rule:nonzero;fill:rgb(0%,0%,0%);fill-opacity:1;stroke-width:0.75;stroke-linecap:round;stroke-linejoin:round;stroke:rgb(20%,20%,20%);stroke-opacity:1;stroke-miterlimit:10;" d="M 220.378906 448.945312 L 219.269531 445.617188 L 215.9375 437.851562 L 213.71875 430.085938 L 211.5 422.316406 L 210.390625 414.550781 L 210.390625 406.785156 L 209.28125 399.015625 L 208.171875 392.359375 L 207.0625 384.59375 L 207.0625 369.058594 L 208.171875 361.292969 L 208.171875 337.992188 L 207.0625 330.222656 L 204.84375 314.691406 L 203.734375 306.921875 L 201.515625 291.390625 L 201.515625 283.621094 L 200.40625 276.964844 L 199.296875 269.199219 L 199.296875 253.664062 L 200.40625 245.898438 L 200.40625 191.527344 L 199.296875 183.761719 L 199.296875 138.269531 L 201.515625 130.503906 L 202.625 122.734375 L 205.953125 114.96875 L 207.0625 107.203125 L 209.28125 99.433594 L 211.5 91.667969 L 214.828125 83.902344 L 218.160156 76.132812 L 220.378906 68.367188 L 224.816406 60.601562 L 228.144531 52.832031 L 231.472656 46.175781 L 235.910156 38.410156 L 242.570312 31.753906 L 249.226562 38.410156 L 255.882812 46.175781 L 261.429688 52.832031 L 263.652344 60.601562 L 266.980469 68.367188 L 271.417969 76.132812 L 273.636719 83.902344 L 278.074219 99.433594 L 281.402344 107.203125 L 283.621094 114.96875 L 286.953125 122.734375 L 289.171875 129.394531 L 293.609375 144.925781 L 295.828125 152.695312 L 296.9375 160.460938 L 300.265625 168.226562 L 303.59375 175.996094 L 304.703125 183.761719 L 303.59375 191.527344 L 302.484375 199.296875 L 302.484375 222.597656 L 301.375 230.363281 L 299.15625 238.128906 L 299.15625 244.789062 L 298.046875 252.554688 L 298.046875 260.320312 L 296.9375 268.089844 L 296.9375 275.855469 L 295.828125 283.621094 L 295.828125 291.390625 L 293.609375 306.921875 L 293.609375 314.691406 L 292.5 322.457031 L 292.5 330.222656 L 291.390625 337.992188 L 291.390625 360.183594 L 290.28125 367.949219 L 290.28125 422.316406 L 289.171875 430.085938 L 289.171875 437.851562 L 288.0625 445.617188 L 285.839844 453.386719 L 282.511719 461.152344 L 274.746094 467.808594 L 268.089844 470.027344 L 260.320312 472.246094 L 252.554688 472.246094 L 244.789062 471.136719 L 237.019531 467.808594 L 229.253906 464.480469 L 223.707031 456.714844 Z M 220.378906 448.945312 "/>
</g>
</svg>
