<?xml version="1.0" encoding="UTF-8"?>
<svg xmlns="http://www.w3.org/2000/svg" xmlns:xlink="http://www.w3.org/1999/xlink" width="504pt" height="504pt" viewBox="0 0 504 504" version="1.1">
<g id="surface250">
<rect x="0" y="0" width="504" height="504" style="fill:rgb(100%,100%,100%);fill-opacity:1;stroke:none;"/>
<path style="fill-rule:nonzero;fill:rgb(0%,0%,0%);fill-opacity:1;stroke-width:0.75;stroke-linecap:round;stroke-linejoin:round;stroke:rgb(20%,20%,20%);stroke-opacity:1;stroke-miterlimit:10;" d="M 226.785156 469.160156 L 218.550781 468.132812 L 202.082031 468.132812 L 194.878906 465.042969 L 186.644531 462.984375 L 186.644531 430.050781 L 185.617188 421.816406 L 182.527344 414.613281 L 182.527344 365.210938 L 179.441406 358.007812 L 179.441406 307.578125 L 180.472656 299.34375 L 182.527344 291.109375 L 182.527344 258.175781 L 179.441406 250.972656 L 179.441406 242.738281 L 175.324219 235.53125 L 174.296875 227.300781 L 172.238281 219.066406 L 172.238281 210.832031 L 175.324219 202.597656 L 175.324219 153.195312 L 179.441406 144.964844 L 179.441406 112.03125 L 182.527344 104.824219 L 182.527344 71.890625 L 185.617188 63.65625 L 186.644531 55.421875 L 186.644531 47.191406 L 189.734375 39.984375 L 191.792969 31.753906 L 198.996094 34.839844 L 212.375 48.21875 L 220.609375 52.335938 L 227.8125 60.570312 L 235.019531 63.65625 L 241.195312 69.832031 L 248.398438 76.007812 L 254.574219 82.183594 L 260.75 89.386719 L 267.953125 93.503906 L 272.070312 100.707031 L 278.246094 106.882812 L 282.359375 114.085938 L 285.449219 122.320312 L 285.449219 138.789062 L 289.566406 147.023438 L 292.652344 154.226562 L 295.742188 161.429688 L 299.859375 169.664062 L 305.003906 175.839844 L 307.0625 184.074219 L 310.148438 191.277344 L 313.238281 198.480469 L 317.355469 206.714844 L 320.441406 213.917969 L 321.472656 222.152344 L 325.585938 229.359375 L 329.703125 237.589844 L 331.761719 244.796875 L 331.761719 285.964844 L 328.675781 293.167969 L 327.644531 301.402344 L 323.527344 309.636719 L 321.472656 316.839844 L 317.355469 324.042969 L 310.148438 333.304688 L 307.0625 340.511719 L 302.945312 348.746094 L 299.859375 355.949219 L 295.742188 364.183594 L 290.59375 371.386719 L 286.476562 378.589844 L 282.359375 385.796875 L 281.332031 394.027344 L 278.246094 401.234375 L 274.128906 409.46875 L 270.011719 416.671875 L 265.894531 424.90625 L 261.777344 432.109375 L 259.71875 440.34375 L 255.601562 448.578125 L 252.515625 455.78125 L 248.398438 462.984375 L 242.222656 469.160156 L 235.019531 472.246094 Z M 226.785156 469.160156 "/>
</g>
</svg>
