<?xml version="1.0" encoding="UTF-8"?>
<svg xmlns="http://www.w3.org/2000/svg" xmlns:xlink="http://www.w3.org/1999/xlink" width="504pt" height="504pt" viewBox="0 0 504 504" version="1.1">
<g id="surface255">
<rect x="0" y="0" width="504" height="504" style="fill:rgb(100%,100%,100%);fill-opacity:1;stroke:none;"/>
<path style="fill-rule:nonzero;fill:rgb(0%,0%,0%);fill-opacity:1;stroke-width:0.75;stroke-linecap:round;stroke-linejoin:round;stroke:rgb(20%,20%,20%);stroke-opacity:1;stroke-miterlimit:10;" d="M 255.796875 472.246094 L 248.203125 472.246094 L 243.140625 467.183594 L 235.542969 464.652344 L 220.355469 464.652344 L 210.230469 462.121094 L 202.632812 459.589844 L 195.039062 451.996094 L 195.039062 436.804688 L 197.570312 429.210938 L 197.570312 398.832031 L 195.039062 391.238281 L 195.039062 373.515625 L 189.976562 365.921875 L 189.976562 358.328125 L 192.507812 350.730469 L 192.507812 343.136719 L 197.570312 327.949219 L 197.570312 320.351562 L 200.101562 312.757812 L 200.101562 249.46875 L 202.632812 241.875 L 202.632812 186.179688 L 205.164062 178.585938 L 205.164062 163.394531 L 202.632812 155.800781 L 202.632812 148.203125 L 205.164062 140.609375 L 205.164062 122.890625 L 207.695312 115.292969 L 207.695312 107.699219 L 210.230469 100.105469 L 210.230469 92.511719 L 212.761719 84.914062 L 212.761719 77.320312 L 217.824219 62.132812 L 220.355469 54.535156 L 222.886719 46.941406 L 227.949219 36.816406 L 235.542969 31.753906 L 243.140625 39.347656 L 248.203125 46.941406 L 250.734375 54.535156 L 255.796875 62.132812 L 255.796875 69.726562 L 260.859375 77.320312 L 263.390625 84.914062 L 265.921875 92.511719 L 268.457031 102.636719 L 270.988281 110.230469 L 276.050781 117.824219 L 278.582031 125.421875 L 283.644531 133.015625 L 288.707031 148.203125 L 291.238281 155.800781 L 293.769531 163.394531 L 296.304688 170.988281 L 298.835938 178.585938 L 301.367188 188.710938 L 303.898438 196.304688 L 303.898438 203.898438 L 306.429688 211.496094 L 311.492188 226.683594 L 311.492188 249.46875 L 314.023438 257.0625 L 311.492188 264.65625 L 311.492188 350.730469 L 308.960938 360.859375 L 301.367188 368.453125 L 301.367188 383.640625 L 298.835938 391.238281 L 298.835938 398.832031 L 296.304688 406.425781 L 296.304688 421.617188 L 293.769531 429.210938 L 291.238281 436.804688 L 286.175781 446.933594 L 283.644531 454.527344 L 278.582031 462.121094 L 270.988281 467.183594 L 263.390625 469.714844 Z M 255.796875 472.246094 "/>
</g>
</svg>
