<?xml version="1.0" encoding="UTF-8"?>
<svg xmlns="http://www.w3.org/2000/svg" xmlns:xlink="http://www.w3.org/1999/xlink" width="504pt" height="504pt" viewBox="0 0 504 504" version="1.1">
<g id="surface260">
<rect x="0" y="0" width="504" height="504" style="fill:rgb(100%,100%,100%);fill-opacity:1;stroke:none;"/>
<path style="fill-rule:nonzero;fill:rgb(0%,0%,0%);fill-opacity:1;stroke-width:0.75;stroke-linecap:round;stroke-linejoin:round;stroke:rgb(20%,20%,20%);stroke-opacity:1;stroke-miterlimit:10;" d="M 228.597656 469.496094 L 220.339844 469.496094 L 214.832031 461.234375 L 214.832031 455.730469 L 209.328125 447.46875 L 206.574219 439.210938 L 206.574219 408.925781 L 203.820312 400.667969 L 203.820312 378.644531 L 201.066406 370.382812 L 201.066406 279.53125 L 203.820312 271.273438 L 203.820312 240.988281 L 201.066406 232.726562 L 203.820312 227.222656 L 203.820312 202.445312 L 201.066406 196.9375 L 201.066406 188.679688 L 198.316406 180.417969 L 198.316406 172.160156 L 195.5625 166.652344 L 195.5625 158.394531 L 201.066406 150.136719 L 203.820312 141.875 L 209.328125 133.617188 L 212.078125 128.109375 L 214.832031 119.851562 L 220.339844 111.59375 L 223.09375 103.332031 L 225.84375 97.828125 L 225.84375 89.566406 L 228.597656 81.308594 L 231.351562 73.046875 L 234.105469 67.542969 L 236.859375 59.28125 L 242.363281 51.023438 L 245.117188 42.765625 L 247.871094 37.257812 L 256.128906 31.753906 L 264.390625 40.011719 L 269.894531 48.269531 L 275.402344 56.53125 L 286.414062 67.542969 L 289.167969 75.800781 L 291.921875 84.0625 L 294.671875 89.566406 L 294.671875 97.828125 L 300.179688 114.34375 L 300.179688 158.394531 L 297.425781 166.652344 L 297.425781 188.679688 L 300.179688 196.9375 L 300.179688 205.199219 L 302.933594 213.457031 L 305.683594 218.960938 L 305.683594 257.507812 L 308.4375 265.765625 L 308.4375 304.308594 L 305.683594 312.566406 L 302.933594 318.074219 L 302.933594 326.332031 L 300.179688 334.59375 L 297.425781 342.851562 L 297.425781 348.359375 L 294.671875 356.617188 L 291.921875 364.878906 L 289.167969 373.136719 L 289.167969 395.160156 L 283.660156 403.421875 L 280.90625 411.679688 L 278.15625 417.1875 L 272.648438 433.703125 L 269.894531 441.964844 L 269.894531 447.46875 L 267.140625 455.730469 L 258.882812 463.988281 L 250.625 469.496094 L 245.117188 472.246094 L 236.859375 472.246094 Z M 228.597656 469.496094 "/>
</g>
</svg>
