<?xml version="1.0" encoding="UTF-8"?>
<svg xmlns="http://www.w3.org/2000/svg" xmlns:xlink="http://www.w3.org/1999/xlink" width="504pt" height="504pt" viewBox="0 0 504 504" version="1.1">
<g id="surface185">
<rect x="0" y="0" width="504" height="504" style="fill:rgb(100%,100%,100%);fill-opacity:1;stroke:none;"/>
<path style="fill-rule:nonzero;fill:rgb(0%,0%,0%);fill-opacity:1;stroke-width:0.75;stroke-linecap:round;stroke-linejoin:round;stroke:rgb(20%,20%,20%);stroke-opacity:1;stroke-miterlimit:10;" d="M 272.023438 465.574219 L 265.347656 468.910156 L 255.335938 472.246094 L 248.664062 468.910156 L 241.988281 465.574219 L 235.316406 455.5625 L 231.976562 448.886719 L 231.976562 442.214844 L 228.640625 435.539062 L 228.640625 388.820312 L 225.304688 378.808594 L 225.304688 355.449219 L 221.964844 348.777344 L 221.964844 302.054688 L 218.628906 295.382812 L 218.628906 272.023438 L 215.292969 265.347656 L 215.292969 255.335938 L 211.953125 248.664062 L 211.953125 241.988281 L 208.617188 235.316406 L 208.617188 211.953125 L 211.953125 201.945312 L 211.953125 178.585938 L 208.617188 171.910156 L 208.617188 165.234375 L 201.945312 155.222656 L 201.945312 135.203125 L 198.605469 125.191406 L 198.605469 118.515625 L 201.945312 111.84375 L 205.28125 101.832031 L 205.28125 95.15625 L 208.617188 88.484375 L 211.953125 78.472656 L 211.953125 71.796875 L 215.292969 65.121094 L 215.292969 48.4375 L 218.628906 41.761719 L 221.964844 31.753906 L 228.640625 31.753906 L 235.316406 35.089844 L 241.988281 41.761719 L 252 48.4375 L 258.675781 55.113281 L 265.347656 58.449219 L 275.359375 68.460938 L 282.035156 71.796875 L 285.371094 78.472656 L 288.707031 88.484375 L 292.046875 95.15625 L 292.046875 101.832031 L 295.382812 111.84375 L 298.71875 118.515625 L 298.71875 155.222656 L 302.054688 165.234375 L 302.054688 201.945312 L 305.394531 211.953125 L 305.394531 278.695312 L 302.054688 288.707031 L 302.054688 355.449219 L 298.71875 365.460938 L 298.71875 425.527344 L 295.382812 432.203125 L 295.382812 442.214844 L 292.046875 448.886719 L 288.707031 455.5625 L 278.695312 462.238281 Z M 272.023438 465.574219 "/>
</g>
</svg>
