<?xml version="1.0" encoding="UTF-8"?>
<svg xmlns="http://www.w3.org/2000/svg" xmlns:xlink="http://www.w3.org/1999/xlink" width="504pt" height="504pt" viewBox="0 0 504 504" version="1.1">
<g id="surface230">
<rect x="0" y="0" width="504" height="504" style="fill:rgb(100%,100%,100%);fill-opacity:1;stroke:none;"/>
<path style="fill-rule:nonzero;fill:rgb(0%,0%,0%);fill-opacity:1;stroke-width:0.75;stroke-linecap:round;stroke-linejoin:round;stroke:rgb(20%,20%,20%);stroke-opacity:1;stroke-miterlimit:10;" d="M 283.464844 446.609375 L 278.800781 460.59375 L 269.480469 469.917969 L 262.488281 472.246094 L 255.496094 467.585938 L 250.835938 460.59375 L 246.171875 451.273438 L 239.179688 444.28125 L 229.859375 430.296875 L 227.527344 423.304688 L 220.535156 413.980469 L 218.207031 406.988281 L 213.542969 399.996094 L 208.882812 393.003906 L 204.222656 383.683594 L 199.558594 376.691406 L 197.230469 369.699219 L 192.566406 362.707031 L 187.90625 353.382812 L 187.90625 346.390625 L 185.574219 339.398438 L 183.246094 332.40625 L 183.246094 309.101562 L 185.574219 302.109375 L 185.574219 295.117188 L 187.90625 285.792969 L 190.238281 278.800781 L 190.238281 234.519531 L 192.566406 227.527344 L 192.566406 211.214844 L 197.230469 197.230469 L 197.230469 159.9375 L 192.566406 150.617188 L 192.566406 143.625 L 194.898438 136.632812 L 194.898438 122.648438 L 197.230469 113.324219 L 197.230469 92.347656 L 199.558594 83.027344 L 199.558594 76.035156 L 204.222656 62.050781 L 208.882812 55.058594 L 211.214844 45.734375 L 215.875 38.742188 L 220.535156 31.753906 L 227.527344 34.082031 L 236.851562 41.074219 L 241.511719 48.066406 L 248.503906 55.058594 L 253.164062 62.050781 L 260.15625 71.375 L 262.488281 78.367188 L 264.820312 85.355469 L 267.148438 92.347656 L 271.8125 99.339844 L 276.472656 108.664062 L 278.800781 115.65625 L 283.464844 122.648438 L 285.792969 129.640625 L 288.125 138.960938 L 292.785156 145.953125 L 297.449219 152.945312 L 306.769531 166.929688 L 309.101562 176.253906 L 309.101562 183.246094 L 311.433594 190.238281 L 313.761719 197.230469 L 316.09375 206.550781 L 316.09375 227.527344 L 318.425781 234.519531 L 318.425781 274.140625 L 320.753906 281.132812 L 320.753906 288.125 L 318.425781 295.117188 L 318.425781 341.730469 L 316.09375 348.722656 L 316.09375 379.019531 L 313.761719 386.011719 L 311.433594 393.003906 L 306.769531 399.996094 L 302.109375 409.320312 L 295.117188 416.3125 L 288.125 416.3125 L 285.792969 423.304688 L 285.792969 439.617188 Z M 283.464844 446.609375 "/>
</g>
</svg>
