<?xml version="1.0" encoding="UTF-8"?>
<svg xmlns="http://www.w3.org/2000/svg" xmlns:xlink="http://www.w3.org/1999/xlink" width="504pt" height="504pt" viewBox="0 0 504 504" version="1.1">
<g id="surface210">
<rect x="0" y="0" width="504" height="504" style="fill:rgb(100%,100%,100%);fill-opacity:1;stroke:none;"/>
<path style="fill-rule:nonzero;fill:rgb(0%,0%,0%);fill-opacity:1;stroke-width:0.75;stroke-linecap:round;stroke-linejoin:round;stroke:rgb(20%,20%,20%);stroke-opacity:1;stroke-miterlimit:10;" d="M 276.777344 468.578125 L 271.273438 466.742188 L 265.765625 463.070312 L 256.589844 461.234375 L 241.90625 461.234375 L 234.5625 457.566406 L 227.222656 448.386719 L 223.550781 441.046875 L 219.878906 433.703125 L 212.539062 426.363281 L 203.363281 419.019531 L 203.363281 411.679688 L 201.527344 404.339844 L 201.527344 389.65625 L 203.363281 380.476562 L 205.199219 373.136719 L 207.03125 365.792969 L 207.03125 358.453125 L 208.867188 349.277344 L 208.867188 334.59375 L 210.703125 327.25 L 212.539062 318.074219 L 214.375 310.734375 L 214.375 303.390625 L 216.210938 296.050781 L 219.878906 286.871094 L 219.878906 272.1875 L 218.046875 264.847656 L 218.046875 233.644531 L 216.210938 226.304688 L 216.210938 202.445312 L 214.375 195.101562 L 210.703125 185.925781 L 208.867188 178.585938 L 208.867188 163.902344 L 210.703125 154.722656 L 210.703125 132.699219 L 212.539062 125.355469 L 212.539062 116.179688 L 214.375 108.839844 L 214.375 77.636719 L 216.210938 70.296875 L 218.046875 62.953125 L 219.878906 53.777344 L 221.714844 46.433594 L 225.386719 31.753906 L 232.726562 33.585938 L 240.070312 42.765625 L 245.574219 48.269531 L 251.082031 55.613281 L 252.917969 62.953125 L 258.425781 72.128906 L 262.09375 79.472656 L 265.765625 86.8125 L 267.601562 94.15625 L 269.4375 103.332031 L 274.941406 110.675781 L 280.449219 118.015625 L 284.121094 125.355469 L 284.121094 132.699219 L 285.953125 141.875 L 285.953125 149.21875 L 287.789062 156.558594 L 289.625 163.902344 L 293.296875 173.078125 L 295.132812 180.417969 L 295.132812 204.28125 L 298.800781 211.621094 L 300.636719 218.960938 L 298.800781 226.304688 L 298.800781 235.480469 L 300.636719 242.824219 L 302.472656 250.164062 L 302.472656 274.023438 L 300.636719 281.367188 L 300.636719 296.050781 L 298.800781 305.226562 L 298.800781 319.910156 L 295.132812 327.25 L 295.132812 358.453125 L 291.460938 367.628906 L 289.625 374.972656 L 289.625 389.65625 L 291.460938 396.996094 L 291.460938 444.71875 L 295.132812 459.398438 L 291.460938 468.578125 L 284.121094 472.246094 Z M 276.777344 468.578125 "/>
</g>
</svg>
