<?xml version="1.0" encoding="UTF-8"?>
<svg xmlns="http://www.w3.org/2000/svg" xmlns:xlink="http://www.w3.org/1999/xlink" width="504pt" height="504pt" viewBox="0 0 504 504" version="1.1">
<g id="surface220">
<rect x="0" y="0" width="504" height="504" style="fill:rgb(100%,100%,100%);fill-opacity:1;stroke:none;"/>
<path style="fill-rule:nonzero;fill:rgb(0%,0%,0%);fill-opacity:1;stroke-width:0.75;stroke-linecap:round;stroke-linejoin:round;stroke:rgb(20%,20%,20%);stroke-opacity:1;stroke-miterlimit:10;" d="M 279.847656 436.804688 L 279.847656 441.867188 L 269.722656 451.996094 L 269.722656 457.058594 L 259.59375 467.183594 L 254.53125 472.246094 L 244.40625 472.246094 L 239.34375 467.183594 L 229.214844 457.058594 L 229.214844 451.996094 L 224.152344 441.867188 L 224.152344 436.804688 L 219.089844 426.679688 L 219.089844 421.617188 L 214.027344 411.488281 L 214.027344 396.300781 L 208.964844 391.238281 L 208.964844 376.046875 L 203.898438 370.984375 L 203.898438 315.289062 L 198.835938 310.226562 L 198.835938 264.65625 L 203.898438 254.53125 L 203.898438 214.027344 L 208.964844 203.898438 L 208.964844 153.269531 L 214.027344 143.140625 L 219.089844 138.078125 L 224.152344 127.953125 L 224.152344 97.574219 L 229.214844 92.511719 L 229.214844 77.320312 L 234.277344 67.195312 L 234.277344 62.132812 L 239.34375 57.066406 L 244.40625 46.941406 L 244.40625 41.878906 L 254.53125 31.753906 L 259.59375 31.753906 L 264.65625 41.878906 L 264.65625 46.941406 L 269.722656 57.066406 L 269.722656 62.132812 L 274.785156 72.257812 L 274.785156 77.320312 L 279.847656 87.445312 L 279.847656 92.511719 L 284.910156 102.636719 L 284.910156 133.015625 L 289.972656 138.078125 L 289.972656 173.519531 L 295.035156 183.648438 L 295.035156 203.898438 L 300.101562 214.027344 L 300.101562 249.46875 L 305.164062 259.59375 L 305.164062 355.796875 L 300.101562 360.859375 L 300.101562 386.175781 L 295.035156 391.238281 L 295.035156 406.425781 L 289.972656 416.554688 L 289.972656 421.617188 L 284.910156 431.742188 Z M 279.847656 436.804688 "/>
</g>
</svg>
