<?xml version="1.0" encoding="UTF-8"?>
<svg xmlns="http://www.w3.org/2000/svg" xmlns:xlink="http://www.w3.org/1999/xlink" width="504pt" height="504pt" viewBox="0 0 504 504" version="1.1">
<g id="surface195">
<rect x="0" y="0" width="504" height="504" style="fill:rgb(100%,100%,100%);fill-opacity:1;stroke:none;"/>
<path style="fill-rule:nonzero;fill:rgb(0%,0%,0%);fill-opacity:1;stroke-width:0.75;stroke-linecap:round;stroke-linejoin:round;stroke:rgb(20%,20%,20%);stroke-opacity:1;stroke-miterlimit:10;" d="M 197.652344 263.441406 L 189.070312 263.441406 L 191.933594 257.722656 L 189.070312 249.140625 L 189.070312 240.558594 L 191.933594 234.835938 L 197.652344 226.257812 L 200.511719 217.675781 L 203.375 211.953125 L 203.375 203.375 L 206.234375 194.792969 L 206.234375 151.886719 L 209.09375 143.304688 L 211.953125 134.726562 L 211.953125 129.003906 L 214.816406 120.421875 L 217.675781 111.84375 L 217.675781 97.539062 L 220.535156 88.960938 L 223.394531 83.238281 L 229.117188 74.65625 L 229.117188 51.773438 L 231.976562 46.054688 L 237.699219 37.472656 L 246.277344 31.753906 L 252 37.472656 L 254.859375 46.054688 L 257.722656 54.636719 L 260.582031 60.355469 L 266.300781 77.519531 L 266.300781 83.238281 L 272.023438 91.820312 L 274.882812 100.402344 L 277.742188 106.121094 L 280.605469 114.703125 L 286.324219 123.285156 L 286.324219 129.003906 L 289.183594 137.585938 L 289.183594 146.167969 L 292.046875 151.886719 L 297.765625 160.46875 L 300.625 169.050781 L 300.625 174.769531 L 303.488281 183.351562 L 306.347656 189.070312 L 312.066406 206.234375 L 312.066406 211.953125 L 314.929688 220.535156 L 314.929688 234.835938 L 312.066406 243.417969 L 312.066406 274.882812 L 309.207031 280.605469 L 309.207031 289.183594 L 306.347656 297.765625 L 306.347656 340.671875 L 303.488281 349.253906 L 303.488281 372.136719 L 300.625 380.714844 L 300.625 403.597656 L 297.765625 409.320312 L 294.90625 417.902344 L 292.046875 426.480469 L 289.183594 432.203125 L 280.605469 440.785156 L 274.882812 449.363281 L 269.164062 455.085938 L 263.441406 463.667969 L 254.859375 466.527344 L 249.140625 469.386719 L 240.558594 472.246094 L 234.835938 469.386719 L 231.976562 460.804688 L 229.117188 452.226562 L 229.117188 446.503906 L 226.257812 437.921875 L 226.257812 423.621094 L 223.394531 415.039062 L 226.257812 406.460938 L 226.257812 354.972656 L 223.394531 346.390625 L 220.535156 340.671875 L 220.535156 332.089844 L 214.816406 323.507812 L 214.816406 317.789062 L 211.953125 309.207031 L 209.09375 300.625 L 209.09375 294.90625 L 203.375 277.742188 L 200.511719 272.023438 Z M 197.652344 263.441406 "/>
</g>
</svg>
