<?xml version="1.0" encoding="UTF-8"?>
<svg xmlns="http://www.w3.org/2000/svg" xmlns:xlink="http://www.w3.org/1999/xlink" width="504pt" height="504pt" viewBox="0 0 504 504" version="1.1">
<g id="surface225">
<rect x="0" y="0" width="504" height="504" style="fill:rgb(100%,100%,100%);fill-opacity:1;stroke:none;"/>
<path style="fill-rule:nonzero;fill:rgb(0%,0%,0%);fill-opacity:1;stroke-width:0.75;stroke-linecap:round;stroke-linejoin:round;stroke:rgb(20%,20%,20%);stroke-opacity:1;stroke-miterlimit:10;" d="M 267.894531 399.589844 L 267.894531 406.402344 L 265.625 415.484375 L 265.625 429.105469 L 267.894531 438.1875 L 267.894531 451.8125 L 265.625 460.894531 L 263.351562 467.707031 L 258.8125 472.246094 L 242.917969 472.246094 L 233.835938 469.976562 L 229.292969 463.164062 L 227.023438 456.355469 L 224.753906 447.269531 L 222.480469 440.460938 L 220.210938 433.648438 L 211.128906 426.835938 L 206.589844 420.023438 L 204.316406 413.210938 L 204.316406 367.800781 L 206.589844 358.71875 L 206.589844 313.304688 L 204.316406 306.496094 L 204.316406 261.082031 L 206.589844 252 L 206.589844 229.292969 L 208.859375 222.480469 L 208.859375 199.777344 L 211.128906 192.964844 L 211.128906 161.175781 L 213.398438 154.363281 L 213.398438 138.46875 L 215.671875 131.660156 L 215.671875 93.058594 L 217.941406 86.246094 L 217.941406 77.164062 L 220.210938 70.351562 L 220.210938 63.539062 L 224.753906 54.457031 L 227.023438 47.644531 L 229.292969 38.5625 L 236.105469 31.753906 L 242.917969 34.023438 L 249.730469 43.105469 L 254.269531 56.730469 L 256.542969 65.8125 L 256.542969 72.621094 L 258.8125 79.433594 L 261.082031 88.515625 L 263.351562 95.328125 L 265.625 102.140625 L 265.625 111.222656 L 270.164062 124.847656 L 270.164062 147.550781 L 272.433594 156.636719 L 274.707031 163.445312 L 274.707031 179.339844 L 276.976562 186.152344 L 279.246094 195.234375 L 279.246094 208.859375 L 281.519531 217.941406 L 281.519531 224.753906 L 283.789062 231.566406 L 283.789062 263.351562 L 286.058594 270.164062 L 286.058594 276.976562 L 290.601562 286.058594 L 290.601562 315.578125 L 292.871094 324.660156 L 297.410156 331.472656 L 299.683594 338.28125 L 297.410156 347.363281 L 290.601562 354.175781 L 283.789062 360.988281 L 276.976562 370.070312 L 274.707031 376.882812 L 272.433594 383.695312 L 270.164062 392.777344 Z M 267.894531 399.589844 "/>
</g>
</svg>
