<?xml version="1.0" encoding="UTF-8"?>
<svg xmlns="http://www.w3.org/2000/svg" xmlns:xlink="http://www.w3.org/1999/xlink" width="504pt" height="504pt" viewBox="0 0 504 504" version="1.1">
<g id="surface205">
<rect x="0" y="0" width="504" height="504" style="fill:rgb(100%,100%,100%);fill-opacity:1;stroke:none;"/>
<path style="fill-rule:nonzero;fill:rgb(0%,0%,0%);fill-opacity:1;stroke-width:0.75;stroke-linecap:round;stroke-linejoin:round;stroke:rgb(20%,20%,20%);stroke-opacity:1;stroke-miterlimit:10;" d="M 226.972656 467.242188 L 216.960938 472.246094 L 211.953125 467.242188 L 211.953125 457.230469 L 196.9375 457.230469 L 186.925781 452.226562 L 176.914062 447.21875 L 171.910156 442.214844 L 161.898438 437.207031 L 156.894531 427.199219 L 156.894531 422.191406 L 166.902344 402.167969 L 166.902344 372.136719 L 171.910156 362.125 L 171.910156 352.113281 L 176.914062 347.105469 L 181.921875 337.097656 L 191.933594 327.085938 L 191.933594 252 L 186.925781 241.988281 L 186.925781 226.972656 L 181.921875 216.960938 L 181.921875 211.953125 L 186.925781 201.945312 L 191.933594 191.933594 L 191.933594 186.925781 L 196.9375 176.914062 L 201.945312 166.902344 L 206.949219 161.898438 L 211.953125 151.886719 L 211.953125 136.871094 L 216.960938 126.859375 L 216.960938 116.847656 L 221.964844 111.84375 L 221.964844 101.832031 L 226.972656 91.820312 L 231.976562 86.8125 L 236.984375 76.800781 L 241.988281 66.792969 L 241.988281 61.785156 L 246.996094 51.773438 L 246.996094 41.761719 L 252 36.757812 L 262.011719 31.753906 L 272.023438 36.757812 L 277.027344 46.769531 L 282.035156 51.773438 L 287.039062 61.785156 L 297.050781 71.796875 L 297.050781 76.800781 L 302.054688 86.8125 L 307.0625 96.824219 L 307.0625 111.84375 L 312.066406 121.851562 L 312.066406 126.859375 L 317.074219 136.871094 L 317.074219 151.886719 L 322.078125 161.898438 L 322.078125 176.914062 L 327.085938 186.925781 L 327.085938 236.984375 L 332.089844 246.996094 L 332.089844 252 L 337.097656 262.011719 L 337.097656 277.027344 L 342.101562 287.039062 L 342.101562 352.113281 L 347.105469 362.125 L 347.105469 377.140625 L 337.097656 387.152344 L 332.089844 397.164062 L 332.089844 412.179688 L 327.085938 422.191406 L 327.085938 447.21875 L 317.074219 457.230469 L 312.066406 457.230469 L 302.054688 462.238281 L 292.046875 467.242188 L 252 467.242188 L 241.988281 472.246094 L 236.984375 472.246094 Z M 226.972656 467.242188 "/>
</g>
</svg>
