<?xml version="1.0" encoding="UTF-8"?>
<svg xmlns="http://www.w3.org/2000/svg" xmlns:xlink="http://www.w3.org/1999/xlink" width="504pt" height="504pt" viewBox="0 0 504 504" version="1.1">
<g id="surface175">
<rect x="0" y="0" width="504" height="504" style="fill:rgb(100%,100%,100%);fill-opacity:1;stroke:none;"/>
<path style="fill-rule:nonzero;fill:rgb(0%,0%,0%);fill-opacity:1;stroke-width:0.75;stroke-linecap:round;stroke-linejoin:round;stroke:rgb(20%,20%,20%);stroke-opacity:1;stroke-miterlimit:10;" d="M 250.910156 472.246094 L 242.914062 469.339844 L 235.644531 468.613281 L 228.375 464.253906 L 223.289062 456.257812 L 218.925781 448.988281 L 213.839844 440.992188 L 202.207031 426.453125 L 194.9375 419.910156 L 194.9375 396.652344 L 195.664062 388.65625 L 197.121094 381.386719 L 197.121094 373.390625 L 197.847656 365.394531 L 200.753906 358.125 L 201.480469 350.128906 L 202.933594 342.863281 L 202.207031 335.59375 L 200.753906 327.597656 L 202.933594 319.601562 L 202.933594 311.605469 L 201.480469 304.335938 L 201.480469 296.339844 L 202.933594 288.34375 L 202.933594 281.074219 L 201.480469 273.078125 L 197.847656 265.085938 L 197.121094 257.816406 L 195.664062 249.820312 L 194.9375 241.824219 L 194.9375 234.554688 L 197.121094 226.558594 L 197.121094 218.5625 L 197.847656 211.292969 L 198.574219 203.296875 L 198.574219 195.300781 L 201.480469 188.035156 L 202.933594 180.039062 L 201.480469 172.042969 L 201.480469 164.773438 L 203.660156 156.777344 L 205.84375 148.78125 L 206.570312 141.511719 L 208.023438 125.519531 L 208.023438 102.261719 L 210.203125 94.992188 L 210.203125 86.996094 L 211.65625 79 L 213.839844 71.730469 L 218.199219 63.734375 L 221.835938 55.738281 L 221.835938 40.476562 L 224.742188 32.480469 L 232.738281 31.753906 L 237.097656 38.292969 L 240.734375 46.289062 L 245.09375 53.558594 L 248.003906 60.828125 L 253.089844 68.824219 L 256.726562 76.820312 L 262.539062 83.359375 L 269.082031 89.175781 L 274.171875 96.445312 L 277.078125 103.714844 L 277.804688 111.710938 L 279.984375 119.707031 L 280.710938 126.976562 L 281.4375 134.96875 L 282.894531 142.964844 L 284.347656 150.234375 L 287.253906 158.230469 L 289.433594 165.5 L 291.617188 172.042969 L 293.070312 180.039062 L 295.976562 188.035156 L 296.703125 195.300781 L 297.429688 203.296875 L 296.703125 211.292969 L 296.703125 218.5625 L 298.15625 226.558594 L 298.882812 234.554688 L 299.613281 241.824219 L 300.339844 249.820312 L 300.339844 257.816406 L 301.792969 265.085938 L 302.519531 273.078125 L 303.246094 281.074219 L 304.699219 288.34375 L 306.152344 296.339844 L 306.152344 311.605469 L 307.605469 319.601562 L 308.335938 327.597656 L 309.0625 334.867188 L 306.152344 342.863281 L 303.246094 350.855469 L 296.703125 358.851562 L 295.976562 366.121094 L 295.25 374.117188 L 295.25 382.113281 L 293.796875 389.382812 L 290.890625 397.378906 L 290.890625 412.644531 L 291.617188 420.640625 L 285.800781 427.179688 L 282.894531 433.722656 L 281.4375 441.71875 L 280.710938 449.714844 L 277.078125 456.984375 L 274.171875 464.980469 L 266.175781 469.339844 L 258.90625 470.066406 Z M 250.910156 472.246094 "/>
</g>
</svg>
