<?xml version="1.0" encoding="UTF-8"?>
<svg xmlns="http://www.w3.org/2000/svg" xmlns:xlink="http://www.w3.org/1999/xlink" width="504pt" height="504pt" viewBox="0 0 504 504" version="1.1">
<g id="surface180">
<rect x="0" y="0" width="504" height="504" style="fill:rgb(100%,100%,100%);fill-opacity:1;stroke:none;"/>
<path style="fill-rule:nonzero;fill:rgb(0%,0%,0%);fill-opacity:1;stroke-width:0.75;stroke-linecap:round;stroke-linejoin:round;stroke:rgb(20%,20%,20%);stroke-opacity:1;stroke-miterlimit:10;" d="M 259.003906 470.976562 L 243.726562 470.976562 L 234.8125 469.703125 L 227.175781 469.703125 L 219.535156 467.15625 L 211.898438 463.335938 L 204.257812 455.699219 L 201.710938 446.785156 L 199.164062 439.148438 L 200.4375 431.507812 L 200.4375 423.871094 L 199.164062 416.230469 L 201.710938 407.320312 L 204.257812 399.679688 L 205.53125 392.042969 L 208.078125 384.402344 L 210.625 376.765625 L 211.898438 367.851562 L 213.171875 360.214844 L 215.714844 352.574219 L 216.988281 344.9375 L 219.535156 337.296875 L 220.808594 328.386719 L 222.082031 320.746094 L 224.628906 313.109375 L 225.902344 305.46875 L 227.175781 297.832031 L 229.71875 288.921875 L 232.265625 281.28125 L 233.539062 273.644531 L 236.085938 266.003906 L 237.359375 258.367188 L 238.632812 249.453125 L 241.179688 241.816406 L 242.453125 234.175781 L 242.453125 226.539062 L 243.726562 218.898438 L 243.726562 187.070312 L 244.996094 179.433594 L 244.996094 131.054688 L 243.726562 123.414062 L 243.726562 115.777344 L 244.996094 108.136719 L 244.996094 100.5 L 243.726562 91.589844 L 241.179688 83.949219 L 241.179688 44.484375 L 242.453125 36.84375 L 248.816406 31.753906 L 256.457031 35.570312 L 262.820312 44.484375 L 266.640625 52.121094 L 270.460938 59.761719 L 273.007812 66.125 L 278.097656 73.765625 L 284.464844 82.675781 L 287.011719 90.316406 L 287.011719 97.953125 L 288.285156 105.59375 L 287.011719 113.230469 L 287.011719 129.78125 L 288.285156 137.421875 L 288.285156 145.058594 L 289.558594 152.699219 L 292.101562 161.609375 L 292.101562 169.246094 L 293.375 176.886719 L 294.648438 184.523438 L 297.195312 192.164062 L 298.46875 201.074219 L 301.015625 208.714844 L 301.015625 216.351562 L 299.742188 223.992188 L 299.742188 240.542969 L 301.015625 248.179688 L 303.5625 255.820312 L 304.835938 263.457031 L 304.835938 271.097656 L 303.5625 280.007812 L 302.289062 287.648438 L 302.289062 295.285156 L 301.015625 302.925781 L 301.015625 310.5625 L 299.742188 319.476562 L 299.742188 428.960938 L 298.46875 437.875 L 298.46875 453.152344 L 290.828125 459.515625 L 283.191406 464.609375 L 274.28125 470.976562 L 266.640625 472.246094 Z M 259.003906 470.976562 "/>
</g>
</svg>
