<?xml version="1.0" encoding="UTF-8"?>
<svg xmlns="http://www.w3.org/2000/svg" xmlns:xlink="http://www.w3.org/1999/xlink" width="504pt" height="504pt" viewBox="0 0 504 504" version="1.1">
<g id="surface215">
<rect x="0" y="0" width="504" height="504" style="fill:rgb(100%,100%,100%);fill-opacity:1;stroke:none;"/>
<path style="fill-rule:nonzero;fill:rgb(0%,0%,0%);fill-opacity:1;stroke-width:0.75;stroke-linecap:round;stroke-linejoin:round;stroke:rgb(20%,20%,20%);stroke-opacity:1;stroke-miterlimit:10;" d="M 280.6875 466.695312 L 273.285156 470.398438 L 264.03125 472.246094 L 256.628906 468.546875 L 249.222656 464.84375 L 241.820312 459.292969 L 217.757812 459.292969 L 210.355469 455.589844 L 202.953125 448.1875 L 199.25 440.785156 L 199.25 425.976562 L 197.402344 416.722656 L 189.996094 401.917969 L 188.148438 392.664062 L 186.296875 385.257812 L 186.296875 377.855469 L 184.445312 370.453125 L 180.742188 361.199219 L 178.890625 353.796875 L 178.890625 329.734375 L 184.445312 324.183594 L 189.996094 316.777344 L 193.699219 309.375 L 199.25 300.121094 L 201.101562 292.71875 L 204.804688 285.316406 L 204.804688 276.0625 L 208.503906 268.65625 L 212.207031 253.851562 L 214.058594 244.597656 L 214.058594 237.195312 L 215.910156 229.789062 L 215.910156 222.386719 L 217.757812 213.132812 L 217.757812 205.730469 L 219.609375 198.324219 L 219.609375 190.921875 L 221.460938 181.667969 L 225.164062 166.863281 L 225.164062 135.398438 L 227.015625 126.144531 L 227.015625 118.742188 L 228.863281 111.335938 L 230.714844 103.933594 L 232.566406 94.679688 L 236.269531 87.277344 L 239.96875 79.875 L 241.820312 72.46875 L 243.671875 63.214844 L 243.671875 55.8125 L 245.523438 48.410156 L 247.371094 39.15625 L 249.222656 31.753906 L 256.628906 31.753906 L 264.03125 35.453125 L 271.433594 44.707031 L 275.136719 52.109375 L 276.984375 59.515625 L 278.835938 66.917969 L 284.390625 76.171875 L 286.242188 83.574219 L 289.941406 90.976562 L 291.792969 98.382812 L 295.496094 107.636719 L 297.34375 115.039062 L 301.046875 122.441406 L 302.898438 131.695312 L 302.898438 153.90625 L 306.597656 163.160156 L 308.449219 170.5625 L 308.449219 177.96875 L 310.300781 185.371094 L 312.152344 194.625 L 312.152344 202.027344 L 314.003906 209.429688 L 314.003906 216.835938 L 315.851562 226.089844 L 323.257812 240.894531 L 325.109375 250.148438 L 323.257812 257.550781 L 323.257812 264.957031 L 321.40625 272.359375 L 321.40625 281.613281 L 323.257812 289.015625 L 321.40625 296.417969 L 319.554688 303.824219 L 319.554688 313.078125 L 317.703125 320.480469 L 317.703125 359.347656 L 314.003906 368.601562 L 314.003906 376.003906 L 312.152344 383.410156 L 312.152344 407.46875 L 308.449219 414.871094 L 302.898438 420.425781 L 297.34375 429.679688 L 295.496094 437.082031 L 291.792969 444.484375 L 289.941406 451.890625 L 288.089844 461.144531 Z M 280.6875 466.695312 "/>
</g>
</svg>
