<?xml version="1.0" encoding="UTF-8"?>
<svg xmlns="http://www.w3.org/2000/svg" xmlns:xlink="http://www.w3.org/1999/xlink" width="504pt" height="504pt" viewBox="0 0 504 504" version="1.1">
<g id="surface200">
<rect x="0" y="0" width="504" height="504" style="fill:rgb(100%,100%,100%);fill-opacity:1;stroke:none;"/>
<path style="fill-rule:nonzero;fill:rgb(0%,0%,0%);fill-opacity:1;stroke-width:0.75;stroke-linecap:round;stroke-linejoin:round;stroke:rgb(20%,20%,20%);stroke-opacity:1;stroke-miterlimit:10;" d="M 254.957031 460.421875 L 246.085938 460.421875 L 246.085938 454.511719 L 237.21875 454.511719 L 228.347656 451.554688 L 222.4375 451.554688 L 213.566406 448.597656 L 204.699219 445.640625 L 195.828125 445.640625 L 189.917969 439.726562 L 181.046875 433.816406 L 181.046875 371.730469 L 184.003906 362.863281 L 186.960938 353.992188 L 189.917969 345.125 L 192.871094 339.210938 L 195.828125 330.34375 L 195.828125 321.472656 L 198.785156 315.5625 L 201.742188 306.691406 L 201.742188 297.824219 L 204.699219 291.910156 L 204.699219 235.738281 L 207.65625 226.871094 L 207.65625 212.089844 L 210.609375 203.21875 L 210.609375 179.570312 L 213.566406 170.699219 L 213.566406 164.789062 L 216.523438 155.917969 L 216.523438 84.964844 L 213.566406 76.097656 L 213.566406 52.445312 L 216.523438 43.578125 L 222.4375 37.664062 L 231.304688 31.753906 L 240.175781 34.707031 L 246.085938 43.578125 L 252 49.488281 L 257.914062 58.359375 L 263.824219 67.226562 L 263.824219 73.140625 L 269.738281 82.011719 L 275.652344 90.878906 L 278.605469 96.792969 L 281.5625 105.660156 L 287.476562 114.53125 L 287.476562 120.441406 L 290.433594 129.3125 L 293.390625 138.179688 L 293.390625 152.960938 L 296.34375 161.832031 L 296.34375 170.699219 L 299.300781 176.613281 L 302.257812 185.480469 L 302.257812 223.914062 L 305.214844 232.785156 L 305.214844 256.433594 L 308.171875 265.304688 L 308.171875 274.171875 L 311.128906 280.085938 L 314.082031 288.953125 L 317.039062 297.824219 L 317.039062 303.734375 L 314.082031 312.605469 L 314.082031 345.125 L 319.996094 353.992188 L 322.953125 359.90625 L 319.996094 368.777344 L 314.082031 377.644531 L 311.128906 383.558594 L 308.171875 392.425781 L 308.171875 407.207031 L 305.214844 416.078125 L 305.214844 439.726562 L 299.300781 448.597656 L 290.433594 454.511719 L 284.519531 457.464844 L 275.652344 466.335938 L 266.78125 472.246094 L 260.867188 469.292969 Z M 254.957031 460.421875 "/>
</g>
</svg>
