<?xml version="1.0" encoding="UTF-8"?>
<svg xmlns="http://www.w3.org/2000/svg" xmlns:xlink="http://www.w3.org/1999/xlink" width="504pt" height="504pt" viewBox="0 0 504 504" version="1.1">
<g id="surface235">
<rect x="0" y="0" width="504" height="504" style="fill:rgb(100%,100%,100%);fill-opacity:1;stroke:none;"/>
<path style="fill-rule:nonzero;fill:rgb(0%,0%,0%);fill-opacity:1;stroke-width:0.75;stroke-linecap:round;stroke-linejoin:round;stroke:rgb(20%,20%,20%);stroke-opacity:1;stroke-miterlimit:10;" d="M 255.320312 465.605469 L 246.464844 467.820312 L 239.824219 470.035156 L 230.972656 472.246094 L 197.769531 472.246094 L 191.128906 467.820312 L 191.128906 452.324219 L 193.339844 443.472656 L 195.554688 434.617188 L 195.554688 328.367188 L 193.339844 319.511719 L 193.339844 295.164062 L 191.128906 286.308594 L 191.128906 270.816406 L 188.914062 261.960938 L 188.914062 237.613281 L 186.699219 228.757812 L 188.914062 219.902344 L 188.914062 177.847656 L 193.339844 171.207031 L 197.769531 162.351562 L 199.980469 153.496094 L 199.980469 146.855469 L 202.195312 138.003906 L 202.195312 120.292969 L 204.410156 113.652344 L 204.410156 104.800781 L 206.621094 95.945312 L 213.261719 87.089844 L 215.476562 80.449219 L 217.691406 71.597656 L 222.117188 62.742188 L 228.757812 56.101562 L 233.183594 49.460938 L 239.824219 42.820312 L 248.679688 38.394531 L 255.320312 33.964844 L 261.960938 31.753906 L 270.816406 36.179688 L 277.457031 45.035156 L 281.882812 51.675781 L 286.308594 60.527344 L 292.949219 67.167969 L 295.164062 76.023438 L 299.589844 82.664062 L 304.019531 91.519531 L 306.230469 100.371094 L 308.445312 109.226562 L 308.445312 115.867188 L 310.660156 124.722656 L 310.660156 133.574219 L 312.871094 140.214844 L 312.871094 199.980469 L 315.085938 206.621094 L 315.085938 323.941406 L 317.300781 330.582031 L 317.300781 357.144531 L 315.085938 363.785156 L 315.085938 396.988281 L 312.871094 405.839844 L 312.871094 430.191406 L 308.445312 439.042969 L 304.019531 445.683594 L 297.378906 450.113281 L 288.523438 454.539062 L 279.667969 456.753906 L 270.816406 463.394531 L 264.175781 463.394531 Z M 255.320312 465.605469 "/>
</g>
</svg>
