<?xml version="1.0" encoding="UTF-8"?>
<svg xmlns="http://www.w3.org/2000/svg" xmlns:xlink="http://www.w3.org/1999/xlink" width="504pt" height="504pt" viewBox="0 0 504 504" version="1.1">
<g id="surface190">
<rect x="0" y="0" width="504" height="504" style="fill:rgb(100%,100%,100%);fill-opacity:1;stroke:none;"/>
<path style="fill-rule:nonzero;fill:rgb(0%,0%,0%);fill-opacity:1;stroke-width:0.75;stroke-linecap:round;stroke-linejoin:round;stroke:rgb(20%,20%,20%);stroke-opacity:1;stroke-miterlimit:10;" d="M 233.527344 472.246094 L 225 472.246094 L 227.84375 466.5625 L 222.160156 458.039062 L 216.476562 449.511719 L 213.632812 440.988281 L 213.632812 435.304688 L 210.792969 426.777344 L 207.949219 418.25 L 207.949219 358.570312 L 210.792969 350.046875 L 210.792969 341.519531 L 213.632812 335.835938 L 213.632812 273.3125 L 216.476562 264.789062 L 216.476562 242.054688 L 213.632812 233.527344 L 216.476562 227.84375 L 216.476562 188.058594 L 213.632812 179.53125 L 213.632812 88.589844 L 210.792969 80.066406 L 210.792969 65.855469 L 207.949219 57.328125 L 210.792969 48.804688 L 213.632812 43.121094 L 219.316406 37.4375 L 227.84375 31.753906 L 236.371094 37.4375 L 247.738281 48.804688 L 256.261719 51.644531 L 261.945312 57.328125 L 267.628906 65.855469 L 270.472656 74.378906 L 273.3125 80.066406 L 276.15625 88.589844 L 279 97.117188 L 281.839844 105.640625 L 281.839844 111.324219 L 284.683594 119.851562 L 287.523438 128.375 L 287.523438 151.113281 L 290.367188 159.636719 L 290.367188 165.320312 L 293.207031 173.847656 L 293.207031 188.058594 L 296.050781 196.582031 L 296.050781 210.792969 L 293.207031 219.316406 L 293.207031 264.789062 L 296.050781 273.3125 L 296.050781 290.367188 L 293.207031 296.050781 L 293.207031 313.101562 L 290.367188 318.785156 L 290.367188 327.3125 L 287.523438 335.835938 L 287.523438 367.097656 L 284.683594 372.78125 L 284.683594 389.832031 L 281.839844 398.359375 L 281.839844 412.566406 L 279 421.09375 L 276.15625 426.777344 L 276.15625 435.304688 L 270.472656 443.828125 L 270.472656 449.511719 L 264.789062 458.039062 L 256.261719 463.722656 L 247.738281 469.40625 L 242.054688 472.246094 Z M 233.527344 472.246094 "/>
</g>
</svg>
