<?xml version="1.0" encoding="UTF-8"?>
<svg xmlns="http://www.w3.org/2000/svg" xmlns:xlink="http://www.w3.org/1999/xlink" width="504pt" height="504pt" viewBox="0 0 504 504" version="1.1">
<g id="surface245">
<rect x="0" y="0" width="504" height="504" style="fill:rgb(100%,100%,100%);fill-opacity:1;stroke:none;"/>
<path style="fill-rule:nonzero;fill:rgb(0%,0%,0%);fill-opacity:1;stroke-width:0.75;stroke-linecap:round;stroke-linejoin:round;stroke:rgb(20%,20%,20%);stroke-opacity:1;stroke-miterlimit:10;" d="M 306.0625 348.148438 L 300.535156 356.132812 L 296.847656 364.121094 L 293.777344 372.105469 L 291.933594 379.480469 L 290.089844 387.464844 L 288.863281 395.453125 L 287.019531 403.441406 L 285.175781 411.425781 L 277.1875 412.65625 L 269.203125 416.339844 L 261.828125 421.257812 L 253.84375 426.171875 L 245.855469 431.699219 L 237.871094 437.230469 L 229.882812 442.757812 L 222.511719 448.902344 L 214.523438 455.046875 L 207.152344 459.960938 L 199.164062 464.261719 L 193.636719 471.019531 L 185.648438 472.246094 L 177.664062 470.40625 L 172.746094 464.261719 L 173.976562 456.273438 L 171.519531 448.902344 L 167.21875 440.914062 L 166.605469 432.929688 L 166.605469 424.941406 L 165.988281 416.957031 L 172.746094 413.269531 L 178.277344 405.28125 L 181.347656 397.910156 L 182.578125 389.921875 L 183.191406 381.9375 L 183.191406 373.949219 L 180.734375 365.964844 L 172.746094 358.589844 L 169.675781 350.605469 L 168.445312 343.234375 L 175.820312 327.257812 L 179.503906 319.273438 L 181.347656 311.285156 L 183.191406 303.300781 L 185.648438 295.3125 L 186.878906 287.941406 L 186.878906 279.953125 L 185.035156 271.964844 L 180.121094 263.980469 L 179.503906 255.992188 L 183.191406 248.007812 L 185.648438 240.019531 L 187.492188 232.648438 L 188.722656 224.660156 L 190.5625 216.675781 L 191.179688 208.6875 L 193.019531 200.699219 L 195.480469 192.714844 L 199.164062 184.726562 L 201.621094 177.355469 L 203.464844 169.367188 L 205.308594 161.382812 L 206.539062 153.394531 L 207.765625 145.410156 L 208.996094 137.421875 L 210.839844 129.433594 L 213.910156 121.449219 L 216.367188 114.078125 L 219.4375 106.089844 L 221.894531 98.101562 L 223.738281 90.117188 L 225.582031 82.128906 L 226.8125 74.144531 L 228.65625 66.15625 L 230.496094 58.785156 L 231.726562 50.796875 L 232.953125 42.808594 L 233.570312 34.824219 L 240.328125 31.753906 L 248.3125 37.894531 L 262.445312 52.027344 L 269.203125 60.011719 L 272.886719 68 L 272.886719 75.984375 L 275.34375 83.972656 L 276.574219 91.960938 L 279.644531 99.945312 L 284.5625 107.316406 L 287.019531 115.304688 L 288.863281 123.292969 L 291.933594 131.277344 L 294.390625 139.265625 L 297.460938 147.25 L 300.535156 155.238281 L 303.605469 162.609375 L 307.292969 178.585938 L 310.363281 186.570312 L 313.4375 194.558594 L 317.121094 202.542969 L 318.964844 210.53125 L 319.578125 217.902344 L 320.808594 225.890625 L 322.652344 233.875 L 324.496094 241.863281 L 326.335938 249.851562 L 330.636719 257.835938 L 334.324219 265.207031 L 338.011719 272.582031 L 338.011719 280.566406 L 334.324219 296.542969 L 332.480469 304.527344 L 328.796875 312.515625 L 325.109375 320.5 L 321.421875 327.257812 L 318.351562 335.246094 L 314.050781 342.617188 Z M 306.0625 348.148438 "/>
</g>
</svg>
