<?xml version="1.0" encoding="UTF-8"?>
<svg xmlns="http://www.w3.org/2000/svg" xmlns:xlink="http://www.w3.org/1999/xlink" width="504pt" height="504pt" viewBox="0 0 504 504" version="1.1">
<g id="surface240">
<rect x="0" y="0" width="504" height="504" style="fill:rgb(100%,100%,100%);fill-opacity:1;stroke:none;"/>
<path style="fill-rule:nonzero;fill:rgb(0%,0%,0%);fill-opacity:1;stroke-width:0.75;stroke-linecap:round;stroke-linejoin:round;stroke:rgb(20%,20%,20%);stroke-opacity:1;stroke-miterlimit:10;" d="M 301.921875 413.515625 L 301.921875 419.386719 L 296.050781 431.136719 L 296.050781 437.007812 L 290.175781 442.882812 L 284.304688 454.628906 L 278.429688 460.5 L 272.554688 460.5 L 266.683594 466.375 L 254.9375 472.246094 L 243.191406 472.246094 L 231.445312 466.375 L 225.570312 466.375 L 219.695312 460.5 L 219.695312 454.628906 L 207.949219 442.882812 L 207.949219 437.007812 L 202.078125 431.136719 L 202.078125 354.78125 L 196.203125 343.035156 L 196.203125 231.445312 L 202.078125 219.695312 L 202.078125 190.332031 L 207.949219 184.457031 L 207.949219 155.089844 L 213.824219 149.21875 L 213.824219 125.722656 L 219.695312 113.976562 L 219.695312 84.613281 L 225.570312 78.738281 L 225.570312 66.992188 L 231.445312 61.117188 L 231.445312 49.371094 L 249.0625 31.753906 L 254.9375 37.625 L 266.683594 49.371094 L 266.683594 66.992188 L 272.554688 78.738281 L 272.554688 84.613281 L 278.429688 90.484375 L 278.429688 113.976562 L 284.304688 125.722656 L 284.304688 149.21875 L 290.175781 155.089844 L 290.175781 184.457031 L 296.050781 190.332031 L 296.050781 219.695312 L 301.921875 231.445312 L 301.921875 266.683594 L 307.796875 278.429688 L 307.796875 407.640625 Z M 301.921875 413.515625 "/>
</g>
</svg>
