<?xml version="1.0" encoding="UTF-8"?>
<svg xmlns="http://www.w3.org/2000/svg" xmlns:xlink="http://www.w3.org/1999/xlink" width="504pt" height="504pt" viewBox="0 0 504 504" version="1.1">
<g id="surface350">
<rect x="0" y="0" width="504" height="504" style="fill:rgb(100%,100%,100%);fill-opacity:1;stroke:none;"/>
<path style="fill-rule:nonzero;fill:rgb(0%,0%,0%);fill-opacity:1;stroke-width:0.75;stroke-linecap:round;stroke-linejoin:round;stroke:rgb(20%,20%,20%);stroke-opacity:1;stroke-miterlimit:10;" d="M 240.839844 458.855469 L 237.863281 455.878906 L 231.910156 440.996094 L 227.445312 433.554688 L 225.957031 426.113281 L 224.46875 418.675781 L 222.980469 411.234375 L 220.003906 403.792969 L 220.003906 396.351562 L 218.515625 388.910156 L 218.515625 381.46875 L 217.027344 374.03125 L 217.027344 359.148438 L 215.539062 351.707031 L 215.539062 344.265625 L 212.5625 336.824219 L 211.074219 329.382812 L 211.074219 321.945312 L 212.5625 313.015625 L 212.5625 298.132812 L 211.074219 290.691406 L 211.074219 260.929688 L 212.5625 253.488281 L 212.5625 216.285156 L 217.027344 208.84375 L 218.515625 201.402344 L 218.515625 186.519531 L 215.539062 179.078125 L 214.050781 171.640625 L 215.539062 164.199219 L 218.515625 156.757812 L 220.003906 149.316406 L 220.003906 134.433594 L 221.492188 126.996094 L 221.492188 112.113281 L 222.980469 104.671875 L 231.910156 89.789062 L 231.910156 82.347656 L 233.398438 74.910156 L 233.398438 67.46875 L 234.886719 60.027344 L 239.351562 52.585938 L 242.328125 37.703125 L 249.769531 31.753906 L 257.207031 36.214844 L 264.648438 43.65625 L 269.113281 52.585938 L 272.089844 60.027344 L 273.578125 67.46875 L 276.554688 74.910156 L 279.53125 82.347656 L 281.019531 89.789062 L 283.996094 97.230469 L 283.996094 104.671875 L 285.484375 112.113281 L 288.460938 119.554688 L 288.460938 126.996094 L 289.949219 134.433594 L 289.949219 149.316406 L 291.4375 156.757812 L 291.4375 171.640625 L 292.925781 179.078125 L 291.4375 186.519531 L 291.4375 216.285156 L 292.925781 223.726562 L 292.925781 275.8125 L 291.4375 283.25 L 291.4375 290.691406 L 288.460938 305.574219 L 288.460938 313.015625 L 286.972656 320.457031 L 285.484375 327.894531 L 285.484375 374.03125 L 281.019531 381.46875 L 281.019531 388.910156 L 279.53125 396.351562 L 279.53125 411.234375 L 278.042969 418.675781 L 276.554688 426.113281 L 276.554688 433.554688 L 273.578125 440.996094 L 272.089844 448.4375 L 266.136719 454.390625 L 260.183594 461.832031 L 255.71875 469.273438 L 248.28125 472.246094 L 243.816406 466.296875 Z M 240.839844 458.855469 "/>
</g>
</svg>
