<?xml version="1.0" encoding="UTF-8"?>
<svg xmlns="http://www.w3.org/2000/svg" xmlns:xlink="http://www.w3.org/1999/xlink" width="504pt" height="504pt" viewBox="0 0 504 504" version="1.1">
<g id="surface355">
<rect x="0" y="0" width="504" height="504" style="fill:rgb(100%,100%,100%);fill-opacity:1;stroke:none;"/>
<path style="fill-rule:nonzero;fill:rgb(0%,0%,0%);fill-opacity:1;stroke-width:0.75;stroke-linecap:round;stroke-linejoin:round;stroke:rgb(20%,20%,20%);stroke-opacity:1;stroke-miterlimit:10;" d="M 224.867188 462.671875 L 215.292969 465.863281 L 208.90625 469.054688 L 199.332031 472.246094 L 183.371094 472.246094 L 176.988281 469.054688 L 173.796875 459.480469 L 173.796875 453.097656 L 170.605469 443.519531 L 167.410156 437.136719 L 167.410156 411.601562 L 164.21875 405.214844 L 164.21875 315.839844 L 167.410156 306.265625 L 167.410156 274.34375 L 170.605469 267.960938 L 170.605469 204.121094 L 173.796875 194.542969 L 173.796875 169.007812 L 176.988281 162.625 L 176.988281 137.089844 L 180.179688 130.703125 L 183.371094 121.128906 L 186.5625 114.742188 L 186.5625 105.167969 L 189.757812 98.785156 L 196.140625 89.207031 L 199.332031 82.824219 L 202.523438 73.246094 L 205.714844 66.863281 L 208.90625 57.289062 L 212.101562 50.902344 L 215.292969 41.328125 L 218.484375 34.945312 L 228.058594 31.753906 L 237.636719 31.753906 L 244.019531 38.136719 L 247.210938 47.710938 L 250.402344 54.097656 L 253.597656 63.671875 L 256.789062 70.054688 L 263.171875 79.632812 L 263.171875 86.015625 L 269.554688 95.59375 L 272.746094 101.976562 L 275.941406 111.550781 L 279.132812 117.9375 L 282.324219 127.511719 L 282.324219 133.894531 L 285.515625 143.472656 L 288.707031 149.855469 L 291.898438 159.433594 L 295.09375 165.816406 L 295.09375 175.390625 L 301.476562 184.96875 L 301.476562 191.351562 L 304.667969 200.929688 L 304.667969 207.3125 L 311.050781 216.886719 L 311.050781 223.273438 L 314.242188 232.847656 L 314.242188 239.230469 L 317.4375 248.808594 L 317.4375 255.191406 L 320.628906 264.769531 L 320.628906 280.726562 L 323.820312 287.113281 L 323.820312 296.6875 L 327.011719 303.070312 L 330.203125 312.648438 L 330.203125 319.03125 L 333.394531 328.609375 L 333.394531 338.183594 L 336.589844 344.566406 L 339.78125 354.144531 L 339.78125 360.527344 L 330.203125 370.105469 L 327.011719 376.488281 L 320.628906 386.0625 L 317.4375 392.449219 L 307.859375 398.832031 L 298.285156 408.40625 L 291.898438 411.601562 L 279.132812 424.367188 L 269.554688 427.558594 L 263.171875 433.945312 L 253.597656 440.328125 L 247.210938 443.519531 L 237.636719 449.902344 L 234.445312 456.289062 Z M 224.867188 462.671875 "/>
</g>
</svg>
