<?xml version="1.0" encoding="UTF-8"?>
<svg xmlns="http://www.w3.org/2000/svg" xmlns:xlink="http://www.w3.org/1999/xlink" width="504pt" height="504pt" viewBox="0 0 504 504" version="1.1">
<g id="surface345">
<rect x="0" y="0" width="504" height="504" style="fill:rgb(100%,100%,100%);fill-opacity:1;stroke:none;"/>
<path style="fill-rule:nonzero;fill:rgb(0%,0%,0%);fill-opacity:1;stroke-width:0.75;stroke-linecap:round;stroke-linejoin:round;stroke:rgb(20%,20%,20%);stroke-opacity:1;stroke-miterlimit:10;" d="M 229.359375 459.898438 L 221.125 464.015625 L 217.007812 455.78125 L 225.242188 451.664062 L 221.125 443.429688 L 221.125 439.3125 L 217.007812 431.082031 L 208.773438 422.847656 L 196.421875 398.144531 L 188.191406 389.914062 L 184.074219 381.679688 L 184.074219 373.445312 L 179.957031 369.328125 L 175.839844 361.09375 L 179.957031 352.859375 L 179.957031 328.160156 L 184.074219 319.925781 L 184.074219 282.875 L 179.957031 274.640625 L 184.074219 266.410156 L 184.074219 249.941406 L 188.191406 241.707031 L 188.191406 204.65625 L 192.304688 196.421875 L 196.421875 188.191406 L 196.421875 155.253906 L 200.539062 151.140625 L 200.539062 134.671875 L 204.65625 126.4375 L 204.65625 109.972656 L 208.773438 101.738281 L 208.773438 85.269531 L 212.890625 81.152344 L 212.890625 72.917969 L 217.007812 64.6875 L 217.007812 48.21875 L 225.242188 44.101562 L 229.359375 35.867188 L 237.589844 31.753906 L 245.824219 39.984375 L 249.941406 44.101562 L 262.292969 68.804688 L 270.527344 77.035156 L 274.640625 85.269531 L 278.757812 93.503906 L 278.757812 109.972656 L 282.875 118.203125 L 282.875 122.320312 L 291.109375 130.554688 L 291.109375 138.789062 L 295.226562 147.023438 L 295.226562 163.488281 L 307.578125 188.191406 L 311.695312 192.304688 L 311.695312 200.539062 L 315.808594 208.773438 L 315.808594 233.472656 L 324.042969 249.941406 L 324.042969 365.210938 L 328.160156 373.445312 L 328.160156 406.378906 L 324.042969 410.496094 L 315.808594 414.613281 L 307.578125 418.730469 L 303.460938 426.964844 L 295.226562 435.195312 L 286.992188 443.429688 L 278.757812 447.546875 L 270.527344 451.664062 L 262.292969 455.78125 L 258.175781 459.898438 L 249.941406 464.015625 L 241.707031 472.246094 L 233.472656 468.132812 Z M 229.359375 459.898438 "/>
</g>
</svg>
