<?xml version="1.0" encoding="UTF-8"?>
<svg xmlns="http://www.w3.org/2000/svg" xmlns:xlink="http://www.w3.org/1999/xlink" width="504pt" height="504pt" viewBox="0 0 504 504" version="1.1">
<g id="surface270">
<rect x="0" y="0" width="504" height="504" style="fill:rgb(100%,100%,100%);fill-opacity:1;stroke:none;"/>
<path style="fill-rule:nonzero;fill:rgb(0%,0%,0%);fill-opacity:1;stroke-width:0.75;stroke-linecap:round;stroke-linejoin:round;stroke:rgb(20%,20%,20%);stroke-opacity:1;stroke-miterlimit:10;" d="M 197.886719 345.035156 L 192.191406 343.136719 L 195.988281 337.441406 L 194.089844 329.847656 L 192.191406 322.25 L 190.292969 314.65625 L 190.292969 307.0625 L 188.394531 299.46875 L 188.394531 291.871094 L 184.597656 276.683594 L 184.597656 269.089844 L 182.699219 261.492188 L 182.699219 253.898438 L 180.800781 246.304688 L 180.800781 185.546875 L 182.699219 177.949219 L 182.699219 162.761719 L 184.597656 155.167969 L 184.597656 147.570312 L 188.394531 139.976562 L 188.394531 132.382812 L 192.191406 122.890625 L 195.988281 115.292969 L 197.886719 107.699219 L 201.683594 100.105469 L 203.582031 92.511719 L 209.28125 86.8125 L 213.078125 71.625 L 218.773438 64.03125 L 222.570312 56.433594 L 233.960938 33.652344 L 241.558594 31.753906 L 249.152344 39.347656 L 254.847656 46.941406 L 258.644531 54.535156 L 262.441406 62.132812 L 266.238281 69.726562 L 268.140625 77.320312 L 270.039062 84.914062 L 271.9375 92.511719 L 275.734375 107.699219 L 275.734375 115.292969 L 277.632812 122.890625 L 281.429688 138.078125 L 281.429688 145.671875 L 283.328125 153.269531 L 283.328125 160.863281 L 285.226562 168.457031 L 289.023438 174.152344 L 289.023438 181.75 L 292.820312 196.9375 L 296.621094 204.53125 L 296.621094 212.128906 L 298.519531 219.722656 L 306.113281 234.910156 L 308.011719 242.507812 L 311.808594 250.101562 L 315.605469 265.289062 L 317.503906 272.886719 L 321.300781 288.074219 L 321.300781 295.667969 L 323.199219 303.265625 L 315.605469 318.453125 L 313.707031 326.050781 L 302.316406 348.832031 L 298.519531 356.429688 L 292.820312 364.023438 L 290.921875 371.617188 L 285.226562 377.3125 L 281.429688 384.910156 L 281.429688 394.402344 L 279.53125 401.996094 L 275.734375 409.589844 L 273.835938 417.1875 L 273.835938 424.78125 L 268.140625 432.375 L 264.339844 439.96875 L 258.644531 447.566406 L 254.847656 455.160156 L 243.457031 470.347656 L 235.859375 472.246094 L 228.265625 470.347656 L 222.570312 464.652344 L 222.570312 457.058594 L 218.773438 451.363281 L 216.875 443.769531 L 214.976562 436.171875 L 211.179688 420.984375 L 211.179688 413.386719 L 209.28125 405.792969 L 207.378906 398.199219 L 203.582031 390.605469 L 203.582031 367.820312 L 199.785156 360.226562 L 197.886719 352.628906 Z M 197.886719 345.035156 "/>
</g>
</svg>
