<?xml version="1.0" encoding="UTF-8"?>
<svg xmlns="http://www.w3.org/2000/svg" xmlns:xlink="http://www.w3.org/1999/xlink" width="504pt" height="504pt" viewBox="0 0 504 504" version="1.1">
<g id="surface265">
<rect x="0" y="0" width="504" height="504" style="fill:rgb(100%,100%,100%);fill-opacity:1;stroke:none;"/>
<path style="fill-rule:nonzero;fill:rgb(0%,0%,0%);fill-opacity:1;stroke-width:0.75;stroke-linecap:round;stroke-linejoin:round;stroke:rgb(20%,20%,20%);stroke-opacity:1;stroke-miterlimit:10;" d="M 281.648438 421.421875 L 277.414062 429.894531 L 273.175781 438.363281 L 273.175781 442.597656 L 268.941406 451.070312 L 260.472656 459.542969 L 256.234375 468.011719 L 252 468.011719 L 243.527344 472.246094 L 235.058594 468.011719 L 235.058594 459.542969 L 230.824219 451.070312 L 230.824219 446.835938 L 226.585938 438.363281 L 222.351562 429.894531 L 218.117188 421.421875 L 213.878906 417.1875 L 209.644531 408.714844 L 201.171875 400.242188 L 196.9375 391.773438 L 196.9375 379.066406 L 192.703125 370.59375 L 192.703125 196.9375 L 196.9375 188.46875 L 196.9375 150.347656 L 201.171875 146.113281 L 201.171875 137.640625 L 205.410156 129.167969 L 205.410156 116.460938 L 209.644531 107.992188 L 213.878906 99.519531 L 213.878906 91.050781 L 218.117188 82.578125 L 222.351562 78.34375 L 226.585938 69.871094 L 230.824219 61.402344 L 235.058594 57.164062 L 235.058594 52.929688 L 239.292969 44.457031 L 247.765625 35.988281 L 256.234375 31.753906 L 260.472656 35.988281 L 264.707031 44.457031 L 268.941406 52.929688 L 268.941406 61.402344 L 273.175781 69.871094 L 273.175781 74.105469 L 277.414062 82.578125 L 281.648438 91.050781 L 285.882812 99.519531 L 285.882812 103.757812 L 290.121094 112.226562 L 290.121094 129.167969 L 294.355469 137.640625 L 294.355469 141.875 L 298.589844 150.347656 L 298.589844 158.816406 L 302.828125 167.289062 L 302.828125 179.996094 L 307.0625 188.46875 L 307.0625 239.292969 L 311.296875 247.765625 L 307.0625 256.234375 L 307.0625 294.355469 L 302.828125 302.828125 L 302.828125 353.652344 L 298.589844 362.125 L 298.589844 370.59375 L 294.355469 374.832031 L 294.355469 383.300781 L 290.121094 391.773438 L 290.121094 404.480469 L 285.882812 412.949219 Z M 281.648438 421.421875 "/>
</g>
</svg>
