<?xml version="1.0" encoding="UTF-8"?>
<svg xmlns="http://www.w3.org/2000/svg" xmlns:xlink="http://www.w3.org/1999/xlink" width="504pt" height="504pt" viewBox="0 0 504 504" version="1.1">
<g id="surface330">
<rect x="0" y="0" width="504" height="504" style="fill:rgb(100%,100%,100%);fill-opacity:1;stroke:none;"/>
<path style="fill-rule:nonzero;fill:rgb(0%,0%,0%);fill-opacity:1;stroke-width:0.75;stroke-linecap:round;stroke-linejoin:round;stroke:rgb(20%,20%,20%);stroke-opacity:1;stroke-miterlimit:10;" d="M 179.789062 465.027344 L 172.566406 472.246094 L 165.34375 472.246094 L 158.125 465.027344 L 158.125 457.804688 L 165.34375 450.585938 L 158.125 443.363281 L 158.125 414.476562 L 150.902344 407.257812 L 150.902344 349.488281 L 143.679688 342.265625 L 143.679688 147.292969 L 136.460938 140.070312 L 136.460938 132.847656 L 143.679688 118.40625 L 143.679688 67.859375 L 150.902344 60.636719 L 150.902344 46.195312 L 165.34375 31.753906 L 179.789062 31.753906 L 194.230469 46.195312 L 201.453125 53.414062 L 208.671875 60.636719 L 223.113281 75.078125 L 223.113281 82.300781 L 230.335938 89.523438 L 237.558594 96.742188 L 237.558594 103.964844 L 244.777344 111.1875 L 252 118.40625 L 280.886719 147.292969 L 280.886719 154.511719 L 288.105469 161.734375 L 316.992188 190.621094 L 316.992188 197.839844 L 324.210938 205.0625 L 324.210938 212.28125 L 338.65625 226.726562 L 345.875 241.167969 L 353.097656 248.390625 L 353.097656 262.832031 L 360.320312 270.054688 L 360.320312 284.496094 L 367.539062 291.71875 L 353.097656 306.160156 L 345.875 313.378906 L 345.875 320.601562 L 338.65625 327.824219 L 331.433594 335.042969 L 324.210938 349.488281 L 237.558594 436.140625 L 223.113281 443.363281 L 215.894531 450.585938 L 208.671875 457.804688 L 201.453125 457.804688 L 194.230469 465.027344 Z M 179.789062 465.027344 "/>
</g>
</svg>
