<?xml version="1.0" encoding="UTF-8"?>
<svg xmlns="http://www.w3.org/2000/svg" xmlns:xlink="http://www.w3.org/1999/xlink" width="504pt" height="504pt" viewBox="0 0 504 504" version="1.1">
<g id="surface310">
<rect x="0" y="0" width="504" height="504" style="fill:rgb(100%,100%,100%);fill-opacity:1;stroke:none;"/>
<path style="fill-rule:nonzero;fill:rgb(0%,0%,0%);fill-opacity:1;stroke-width:0.75;stroke-linecap:round;stroke-linejoin:round;stroke:rgb(20%,20%,20%);stroke-opacity:1;stroke-miterlimit:10;" d="M 290.121094 353.652344 L 285.882812 362.125 L 277.414062 370.59375 L 277.414062 374.832031 L 273.175781 383.300781 L 268.941406 391.773438 L 264.707031 400.242188 L 252 412.949219 L 247.765625 421.421875 L 243.527344 429.894531 L 243.527344 438.363281 L 235.058594 446.835938 L 235.058594 451.070312 L 218.117188 468.011719 L 209.644531 472.246094 L 196.9375 472.246094 L 192.703125 463.777344 L 192.703125 417.1875 L 188.46875 408.714844 L 188.46875 370.59375 L 184.230469 362.125 L 184.230469 340.945312 L 188.46875 332.476562 L 188.46875 82.578125 L 192.703125 74.105469 L 192.703125 52.929688 L 196.9375 44.457031 L 196.9375 35.988281 L 205.410156 31.753906 L 213.878906 35.988281 L 218.117188 35.988281 L 222.351562 44.457031 L 230.824219 52.929688 L 235.058594 61.402344 L 243.527344 65.636719 L 247.765625 69.871094 L 256.234375 78.34375 L 260.472656 86.8125 L 260.472656 95.285156 L 268.941406 103.757812 L 268.941406 107.992188 L 273.175781 116.460938 L 273.175781 124.933594 L 277.414062 133.40625 L 281.648438 141.875 L 285.882812 146.113281 L 290.121094 154.582031 L 294.355469 163.054688 L 298.589844 171.523438 L 302.828125 179.996094 L 307.0625 184.230469 L 311.296875 192.703125 L 311.296875 201.171875 L 315.53125 209.644531 L 315.53125 222.351562 L 319.769531 230.824219 L 319.769531 256.234375 L 315.53125 260.472656 L 315.53125 298.589844 L 311.296875 307.0625 L 307.0625 315.53125 L 302.828125 324.003906 L 298.589844 332.476562 L 298.589844 336.710938 L 294.355469 345.183594 Z M 290.121094 353.652344 "/>
</g>
</svg>
