<?xml version="1.0" encoding="UTF-8"?>
<svg xmlns="http://www.w3.org/2000/svg" xmlns:xlink="http://www.w3.org/1999/xlink" width="504pt" height="504pt" viewBox="0 0 504 504" version="1.1">
<g id="surface315">
<rect x="0" y="0" width="504" height="504" style="fill:rgb(100%,100%,100%);fill-opacity:1;stroke:none;"/>
<path style="fill-rule:nonzero;fill:rgb(0%,0%,0%);fill-opacity:1;stroke-width:0.75;stroke-linecap:round;stroke-linejoin:round;stroke:rgb(20%,20%,20%);stroke-opacity:1;stroke-miterlimit:10;" d="M 264.070312 466.214844 L 255.015625 469.230469 L 239.929688 469.230469 L 233.898438 472.246094 L 224.847656 469.230469 L 221.828125 463.195312 L 218.8125 454.144531 L 215.792969 445.09375 L 215.792969 439.058594 L 209.761719 430.007812 L 206.742188 423.972656 L 203.726562 414.921875 L 200.710938 408.890625 L 197.691406 399.835938 L 200.710938 390.785156 L 203.726562 384.753906 L 206.742188 375.699219 L 206.742188 354.582031 L 203.726562 345.53125 L 197.691406 336.480469 L 197.691406 330.445312 L 200.710938 321.394531 L 200.710938 297.257812 L 203.726562 291.222656 L 203.726562 261.050781 L 206.742188 252 L 206.742188 221.828125 L 209.761719 212.777344 L 209.761719 158.46875 L 206.742188 152.4375 L 209.761719 143.382812 L 212.777344 134.332031 L 212.777344 128.300781 L 215.792969 119.246094 L 215.792969 89.078125 L 218.8125 80.027344 L 221.828125 73.992188 L 224.847656 64.941406 L 230.878906 58.90625 L 236.914062 49.855469 L 239.929688 40.804688 L 239.929688 34.769531 L 248.984375 31.753906 L 255.015625 34.769531 L 261.050781 43.820312 L 264.070312 49.855469 L 267.085938 58.90625 L 267.085938 67.957031 L 270.101562 73.992188 L 276.136719 83.042969 L 276.136719 89.078125 L 279.152344 98.128906 L 279.152344 104.164062 L 282.171875 113.214844 L 285.1875 122.265625 L 285.1875 128.300781 L 288.207031 137.351562 L 291.222656 143.382812 L 294.238281 152.4375 L 294.238281 167.519531 L 297.257812 176.574219 L 297.257812 182.605469 L 300.273438 191.65625 L 300.273438 206.742188 L 303.289062 212.777344 L 303.289062 230.878906 L 306.308594 236.914062 L 303.289062 245.964844 L 303.289062 261.050781 L 300.273438 267.085938 L 300.273438 276.136719 L 297.257812 285.1875 L 297.257812 291.222656 L 294.238281 300.273438 L 294.238281 315.359375 L 291.222656 321.394531 L 291.222656 330.445312 L 288.207031 339.496094 L 288.207031 354.582031 L 285.1875 360.617188 L 285.1875 369.667969 L 282.171875 378.71875 L 282.171875 384.753906 L 279.152344 393.804688 L 279.152344 463.195312 L 273.121094 466.214844 Z M 264.070312 466.214844 "/>
</g>
</svg>
