<?xml version="1.0" encoding="UTF-8"?>
<svg xmlns="http://www.w3.org/2000/svg" xmlns:xlink="http://www.w3.org/1999/xlink" width="504pt" height="504pt" viewBox="0 0 504 504" version="1.1">
<g id="surface335">
<rect x="0" y="0" width="504" height="504" style="fill:rgb(100%,100%,100%);fill-opacity:1;stroke:none;"/>
<path style="fill-rule:nonzero;fill:rgb(0%,0%,0%);fill-opacity:1;stroke-width:0.75;stroke-linecap:round;stroke-linejoin:round;stroke:rgb(20%,20%,20%);stroke-opacity:1;stroke-miterlimit:10;" d="M 267.035156 455.542969 L 259.796875 461.667969 L 252.558594 466.679688 L 245.875 471.691406 L 238.078125 472.246094 L 232.507812 465.007812 L 230.28125 457.210938 L 226.941406 449.414062 L 220.8125 442.175781 L 216.917969 434.378906 L 215.800781 426.582031 L 215.800781 419.34375 L 214.132812 411.546875 L 213.019531 403.75 L 210.234375 396.511719 L 207.449219 388.714844 L 205.222656 380.917969 L 201.878906 373.679688 L 199.652344 365.882812 L 196.867188 358.085938 L 194.640625 350.847656 L 191.855469 343.050781 L 189.628906 335.8125 L 190.1875 328.015625 L 191.300781 320.21875 L 191.300781 312.980469 L 190.742188 305.183594 L 189.628906 297.386719 L 189.628906 274.554688 L 190.1875 267.3125 L 190.742188 259.519531 L 190.742188 213.851562 L 191.300781 206.058594 L 190.742188 198.816406 L 191.300781 191.019531 L 191.300781 175.984375 L 192.96875 168.1875 L 193.527344 160.390625 L 194.640625 153.152344 L 194.640625 145.355469 L 195.199219 137.558594 L 195.199219 130.320312 L 197.425781 114.726562 L 198.539062 107.488281 L 200.210938 99.691406 L 201.324219 91.894531 L 201.878906 84.65625 L 201.878906 76.859375 L 205.222656 69.0625 L 206.890625 61.824219 L 208.007812 54.027344 L 207.449219 46.789062 L 208.5625 38.992188 L 212.460938 31.753906 L 219.699219 36.765625 L 227.496094 42.890625 L 234.738281 50.6875 L 240.304688 57.367188 L 246.988281 64.050781 L 254.226562 70.175781 L 260.351562 77.417969 L 265.367188 84.097656 L 270.378906 91.339844 L 274.277344 98.578125 L 277.617188 106.375 L 281.515625 114.171875 L 284.855469 121.410156 L 287.082031 129.207031 L 289.3125 137.003906 L 290.980469 144.242188 L 294.324219 152.039062 L 297.664062 159.835938 L 299.335938 167.074219 L 303.234375 174.871094 L 306.574219 182.667969 L 308.246094 189.90625 L 312.144531 197.703125 L 310.472656 205.5 L 309.917969 212.738281 L 311.03125 220.535156 L 311.03125 228.332031 L 307.132812 235.570312 L 307.132812 243.367188 L 310.472656 251.164062 L 312.699219 258.402344 L 314.371094 266.199219 L 312.699219 273.996094 L 311.585938 281.238281 L 309.917969 289.03125 L 309.917969 296.828125 L 308.800781 304.070312 L 304.902344 311.863281 L 304.902344 319.105469 L 304.347656 326.902344 L 304.347656 349.734375 L 306.019531 357.53125 L 307.6875 364.769531 L 307.6875 372.566406 L 308.800781 380.363281 L 307.6875 387.601562 L 305.460938 403.195312 L 304.902344 410.433594 L 303.234375 418.230469 L 300.449219 426.027344 L 295.992188 432.710938 L 288.199219 437.722656 L 281.515625 443.847656 L 274.277344 449.972656 Z M 267.035156 455.542969 "/>
</g>
</svg>
