<?xml version="1.0" encoding="UTF-8"?>
<svg xmlns="http://www.w3.org/2000/svg" xmlns:xlink="http://www.w3.org/1999/xlink" width="504pt" height="504pt" viewBox="0 0 504 504" version="1.1">
<g id="surface290">
<rect x="0" y="0" width="504" height="504" style="fill:rgb(100%,100%,100%);fill-opacity:1;stroke:none;"/>
<path style="fill-rule:nonzero;fill:rgb(0%,0%,0%);fill-opacity:1;stroke-width:0.75;stroke-linecap:round;stroke-linejoin:round;stroke:rgb(20%,20%,20%);stroke-opacity:1;stroke-miterlimit:10;" d="M 250.285156 472.246094 L 242.574219 471.390625 L 235.71875 465.390625 L 228.003906 462.820312 L 228.003906 439.683594 L 227.148438 431.96875 L 226.289062 424.257812 L 225.433594 415.6875 L 223.71875 407.972656 L 222.003906 400.261719 L 219.433594 392.546875 L 216.863281 384.835938 L 214.292969 377.121094 L 213.433594 369.410156 L 212.578125 361.695312 L 208.292969 353.984375 L 204.007812 346.269531 L 198.867188 339.414062 L 192.867188 332.558594 L 186.011719 326.558594 L 180.871094 319.703125 L 176.585938 311.988281 L 172.300781 304.277344 L 168.015625 296.5625 L 168.015625 287.992188 L 167.15625 280.28125 L 166.300781 272.566406 L 166.300781 249.429688 L 167.15625 241.714844 L 167.15625 234.003906 L 168.871094 226.289062 L 169.726562 218.578125 L 170.585938 210.863281 L 173.15625 203.152344 L 174.871094 195.4375 L 176.585938 187.726562 L 178.296875 180.011719 L 180.871094 172.300781 L 183.441406 164.585938 L 186.011719 156.015625 L 188.582031 148.304688 L 191.152344 140.589844 L 193.722656 132.878906 L 195.4375 125.164062 L 196.296875 117.453125 L 200.582031 109.738281 L 205.722656 102.027344 L 210.007812 94.3125 L 214.292969 86.601562 L 216.007812 78.886719 L 218.578125 71.171875 L 223.71875 63.460938 L 225.433594 55.746094 L 228.003906 48.035156 L 229.71875 40.320312 L 232.289062 32.609375 L 239.144531 31.753906 L 246.859375 36.894531 L 254.570312 40.320312 L 262.285156 45.464844 L 269.996094 52.320312 L 275.996094 59.175781 L 281.136719 66.890625 L 282.851562 74.601562 L 282.851562 82.316406 L 287.136719 90.027344 L 290.566406 97.742188 L 292.277344 105.453125 L 293.136719 113.167969 L 294.851562 120.878906 L 299.136719 128.59375 L 306.847656 133.734375 L 311.988281 140.589844 L 315.417969 148.304688 L 319.703125 156.875 L 322.273438 164.585938 L 325.703125 172.300781 L 328.273438 180.011719 L 329.988281 187.726562 L 331.699219 195.4375 L 335.128906 203.152344 L 336.84375 210.863281 L 336.84375 218.578125 L 337.699219 226.289062 L 337.699219 234.003906 L 336.84375 241.714844 L 335.128906 249.429688 L 334.273438 257.140625 L 335.128906 264.855469 L 335.128906 272.566406 L 336.84375 280.28125 L 336.84375 311.988281 L 335.128906 319.703125 L 329.128906 327.414062 L 322.273438 333.414062 L 315.417969 338.554688 L 309.417969 345.414062 L 305.132812 353.125 L 303.417969 360.839844 L 301.707031 368.550781 L 299.136719 376.265625 L 293.136719 383.976562 L 292.277344 391.691406 L 288.851562 399.402344 L 285.421875 407.117188 L 281.996094 415.6875 L 279.425781 423.398438 L 273.425781 431.113281 L 271.710938 438.824219 L 267.425781 446.539062 L 264.855469 454.25 L 261.425781 461.964844 L 258 469.675781 Z M 250.285156 472.246094 "/>
</g>
</svg>
