<?xml version="1.0" encoding="UTF-8"?>
<svg xmlns="http://www.w3.org/2000/svg" xmlns:xlink="http://www.w3.org/1999/xlink" width="504pt" height="504pt" viewBox="0 0 504 504" version="1.1">
<g id="surface295">
<rect x="0" y="0" width="504" height="504" style="fill:rgb(100%,100%,100%);fill-opacity:1;stroke:none;"/>
<path style="fill-rule:nonzero;fill:rgb(0%,0%,0%);fill-opacity:1;stroke-width:0.75;stroke-linecap:round;stroke-linejoin:round;stroke:rgb(20%,20%,20%);stroke-opacity:1;stroke-miterlimit:10;" d="M 289.09375 407.332031 L 284.457031 416.605469 L 284.457031 430.515625 L 275.183594 449.0625 L 275.183594 462.972656 L 265.910156 472.246094 L 252 472.246094 L 242.726562 467.609375 L 233.453125 467.609375 L 228.816406 462.972656 L 210.269531 462.972656 L 200.996094 453.699219 L 200.996094 449.0625 L 196.359375 439.789062 L 196.359375 430.515625 L 191.722656 421.242188 L 191.722656 374.875 L 187.085938 365.601562 L 187.085938 328.507812 L 182.449219 319.234375 L 182.449219 305.324219 L 187.085938 296.050781 L 187.085938 277.503906 L 191.722656 272.867188 L 191.722656 249.679688 L 196.359375 240.40625 L 196.359375 198.675781 L 200.996094 189.402344 L 200.996094 110.578125 L 205.632812 105.941406 L 205.632812 96.667969 L 214.90625 78.121094 L 214.90625 73.484375 L 224.179688 54.9375 L 233.453125 50.300781 L 238.089844 50.300781 L 256.636719 41.027344 L 256.636719 36.390625 L 265.910156 31.753906 L 275.183594 31.753906 L 284.457031 41.027344 L 284.457031 45.664062 L 293.730469 64.210938 L 307.640625 78.121094 L 307.640625 87.394531 L 312.277344 96.667969 L 312.277344 119.851562 L 316.914062 129.125 L 316.914062 189.402344 L 321.550781 198.675781 L 321.550781 254.320312 L 316.914062 263.59375 L 316.914062 333.144531 L 312.277344 342.417969 L 312.277344 351.691406 L 307.640625 360.964844 L 307.640625 365.601562 L 298.367188 384.148438 L 298.367188 393.421875 L 293.730469 398.058594 Z M 289.09375 407.332031 "/>
</g>
</svg>
