<?xml version="1.0" encoding="UTF-8"?>
<svg xmlns="http://www.w3.org/2000/svg" xmlns:xlink="http://www.w3.org/1999/xlink" width="504pt" height="504pt" viewBox="0 0 504 504" version="1.1">
<g id="surface340">
<rect x="0" y="0" width="504" height="504" style="fill:rgb(100%,100%,100%);fill-opacity:1;stroke:none;"/>
<path style="fill-rule:nonzero;fill:rgb(0%,0%,0%);fill-opacity:1;stroke-width:0.75;stroke-linecap:round;stroke-linejoin:round;stroke:rgb(20%,20%,20%);stroke-opacity:1;stroke-miterlimit:10;" d="M 246.335938 470.359375 L 221.792969 470.359375 L 213.613281 466.585938 L 210.46875 459.03125 L 207.320312 450.851562 L 202.285156 442.671875 L 197.253906 434.492188 L 189.703125 427.570312 L 182.148438 419.386719 L 175.855469 412.464844 L 172.710938 404.914062 L 167.675781 397.992188 L 167.675781 381.632812 L 165.789062 373.449219 L 165.789062 365.269531 L 162.640625 357.089844 L 159.496094 348.910156 L 159.496094 340.726562 L 162.011719 332.546875 L 165.160156 324.996094 L 167.675781 316.816406 L 171.453125 308.636719 L 173.96875 300.453125 L 177.746094 292.273438 L 179.632812 284.09375 L 179.632812 275.914062 L 174.597656 267.730469 L 166.417969 260.808594 L 161.382812 253.886719 L 162.011719 245.707031 L 163.273438 237.527344 L 163.273438 229.347656 L 162.011719 221.164062 L 161.382812 212.984375 L 163.902344 204.804688 L 169.5625 196.625 L 173.339844 189.070312 L 175.226562 180.890625 L 175.226562 172.710938 L 175.855469 164.53125 L 179.632812 156.347656 L 184.039062 148.167969 L 196.625 131.808594 L 202.285156 123.625 L 204.804688 116.074219 L 208.578125 107.894531 L 210.46875 99.714844 L 212.355469 91.535156 L 214.242188 83.351562 L 217.390625 75.171875 L 221.792969 66.992188 L 224.941406 58.8125 L 226.828125 51.257812 L 229.347656 43.078125 L 234.378906 36.15625 L 242.5625 33.640625 L 250.742188 31.753906 L 258.921875 35.527344 L 266.472656 41.191406 L 274.023438 49.371094 L 279.058594 56.921875 L 285.980469 63.214844 L 291.015625 71.398438 L 296.050781 79.578125 L 299.195312 87.757812 L 304.230469 95.9375 L 306.746094 104.121094 L 308.636719 112.300781 L 308.636719 120.480469 L 311.78125 128.03125 L 312.410156 136.210938 L 313.667969 144.394531 L 316.1875 152.574219 L 318.703125 160.753906 L 319.960938 168.933594 L 320.589844 177.117188 L 322.480469 185.296875 L 324.367188 193.476562 L 326.253906 201.027344 L 328.773438 209.207031 L 330.660156 217.390625 L 331.917969 225.570312 L 334.4375 233.75 L 334.4375 250.113281 L 336.324219 258.292969 L 338.210938 265.84375 L 341.359375 274.023438 L 343.246094 282.207031 L 344.503906 290.386719 L 343.246094 298.566406 L 342.617188 306.746094 L 341.988281 314.929688 L 340.726562 323.109375 L 340.726562 331.289062 L 340.097656 338.839844 L 337.582031 347.019531 L 336.324219 355.203125 L 335.695312 363.382812 L 334.4375 371.5625 L 332.546875 379.742188 L 330.660156 387.925781 L 330.660156 396.105469 L 328.773438 404.285156 L 326.253906 411.835938 L 324.367188 420.019531 L 321.851562 428.199219 L 314.296875 433.234375 L 306.746094 440.785156 L 299.195312 448.964844 L 291.644531 455.886719 L 285.980469 464.066406 L 279.058594 469.101562 L 270.878906 472.246094 L 262.699219 472.246094 L 254.515625 470.988281 Z M 246.335938 470.359375 "/>
</g>
</svg>
