<?xml version="1.0" encoding="UTF-8"?>
<svg xmlns="http://www.w3.org/2000/svg" xmlns:xlink="http://www.w3.org/1999/xlink" width="504pt" height="504pt" viewBox="0 0 504 504" version="1.1">
<g id="surface305">
<rect x="0" y="0" width="504" height="504" style="fill:rgb(100%,100%,100%);fill-opacity:1;stroke:none;"/>
<path style="fill-rule:nonzero;fill:rgb(0%,0%,0%);fill-opacity:1;stroke-width:0.75;stroke-linecap:round;stroke-linejoin:round;stroke:rgb(20%,20%,20%);stroke-opacity:1;stroke-miterlimit:10;" d="M 217.070312 167.585938 L 211.25 165.648438 L 213.191406 159.824219 L 217.070312 152.0625 L 217.070312 128.777344 L 219.011719 121.015625 L 220.953125 115.195312 L 220.953125 107.433594 L 222.890625 99.667969 L 226.773438 84.144531 L 226.773438 68.621094 L 224.832031 60.859375 L 226.773438 53.097656 L 230.65625 47.277344 L 230.65625 39.515625 L 236.476562 31.753906 L 244.238281 35.632812 L 250.058594 43.394531 L 253.941406 51.15625 L 257.820312 56.980469 L 259.761719 64.742188 L 261.703125 70.5625 L 263.644531 78.324219 L 265.582031 86.085938 L 267.523438 93.847656 L 273.34375 101.609375 L 273.34375 109.371094 L 275.285156 117.132812 L 277.226562 124.898438 L 279.167969 132.660156 L 279.167969 148.183594 L 283.046875 155.945312 L 283.046875 169.527344 L 284.988281 177.289062 L 284.988281 200.578125 L 286.929688 206.398438 L 284.988281 214.160156 L 284.988281 221.921875 L 288.871094 237.445312 L 288.871094 252.96875 L 290.808594 260.730469 L 290.808594 268.496094 L 292.75 276.257812 L 290.808594 282.078125 L 288.871094 289.839844 L 288.871094 305.363281 L 284.988281 313.125 L 284.988281 320.886719 L 283.046875 328.648438 L 283.046875 367.460938 L 281.109375 375.222656 L 279.167969 382.984375 L 275.285156 390.746094 L 275.285156 427.617188 L 273.34375 435.378906 L 273.34375 443.140625 L 269.464844 450.902344 L 265.582031 458.664062 L 257.820312 462.546875 L 250.058594 470.308594 L 242.296875 472.246094 L 236.476562 466.425781 L 230.65625 462.546875 L 224.832031 456.722656 L 220.953125 450.902344 L 220.953125 443.140625 L 222.890625 435.378906 L 222.890625 373.28125 L 219.011719 365.519531 L 215.128906 349.996094 L 219.011719 342.234375 L 219.011719 305.363281 L 220.953125 297.601562 L 222.890625 289.839844 L 222.890625 266.554688 L 220.953125 258.792969 L 217.070312 251.03125 L 219.011719 243.269531 L 220.953125 235.503906 L 220.953125 206.398438 L 219.011719 198.636719 L 219.011719 190.875 L 217.070312 183.113281 Z M 217.070312 167.585938 "/>
</g>
</svg>
