<?xml version="1.0" encoding="UTF-8"?>
<svg xmlns="http://www.w3.org/2000/svg" xmlns:xlink="http://www.w3.org/1999/xlink" width="504pt" height="504pt" viewBox="0 0 504 504" version="1.1">
<g id="surface275">
<rect x="0" y="0" width="504" height="504" style="fill:rgb(100%,100%,100%);fill-opacity:1;stroke:none;"/>
<path style="fill-rule:nonzero;fill:rgb(0%,0%,0%);fill-opacity:1;stroke-width:0.75;stroke-linecap:round;stroke-linejoin:round;stroke:rgb(20%,20%,20%);stroke-opacity:1;stroke-miterlimit:10;" d="M 218.472656 472.246094 L 211.25 471.214844 L 203 472.246094 L 195.777344 472.246094 L 187.523438 468.121094 L 185.460938 459.867188 L 187.523438 451.617188 L 187.523438 435.109375 L 188.554688 427.890625 L 191.652344 419.636719 L 193.714844 411.382812 L 194.746094 403.128906 L 195.777344 394.878906 L 195.777344 338.140625 L 194.746094 330.917969 L 193.714844 322.664062 L 192.683594 314.414062 L 192.683594 306.160156 L 193.714844 297.90625 L 194.746094 290.683594 L 195.777344 282.433594 L 197.839844 274.179688 L 198.871094 265.925781 L 196.808594 257.675781 L 197.839844 249.421875 L 198.871094 242.199219 L 201.96875 233.945312 L 201.96875 217.441406 L 197.839844 209.1875 L 195.777344 200.933594 L 195.777344 193.714844 L 193.714844 177.207031 L 190.621094 168.957031 L 190.621094 160.703125 L 188.554688 153.480469 L 187.523438 145.230469 L 183.398438 128.722656 L 182.367188 120.46875 L 182.367188 112.21875 L 183.398438 104.996094 L 183.398438 80.238281 L 185.460938 63.730469 L 185.460938 48.257812 L 186.492188 40.003906 L 190.621094 31.753906 L 197.839844 36.910156 L 205.0625 42.066406 L 213.316406 48.257812 L 220.535156 55.480469 L 227.757812 63.730469 L 233.945312 71.984375 L 241.167969 78.175781 L 245.292969 85.394531 L 249.421875 93.648438 L 256.640625 101.902344 L 263.863281 110.152344 L 269.023438 118.40625 L 274.179688 126.660156 L 279.335938 133.882812 L 284.496094 142.132812 L 289.652344 150.386719 L 295.84375 158.640625 L 302.03125 166.890625 L 305.128906 175.144531 L 306.160156 182.367188 L 307.191406 190.621094 L 307.191406 198.871094 L 308.222656 207.125 L 310.285156 215.378906 L 312.347656 222.597656 L 308.222656 239.105469 L 309.253906 247.359375 L 312.347656 255.609375 L 315.445312 263.863281 L 317.507812 271.085938 L 320.601562 279.335938 L 321.632812 287.589844 L 321.632812 304.097656 L 320.601562 312.347656 L 318.539062 319.570312 L 317.507812 327.824219 L 316.476562 336.074219 L 315.445312 344.328125 L 313.378906 352.582031 L 311.316406 360.835938 L 308.222656 368.054688 L 306.160156 376.308594 L 303.066406 384.5625 L 299.96875 392.8125 L 297.90625 401.066406 L 296.875 408.289062 L 295.84375 416.542969 L 292.75 424.792969 L 289.652344 433.046875 L 284.496094 441.300781 L 280.371094 449.550781 L 277.273438 456.773438 L 274.179688 465.027344 L 266.957031 471.214844 L 258.707031 472.246094 L 250.453125 471.214844 L 226.726562 471.214844 Z M 218.472656 472.246094 "/>
</g>
</svg>
