<?xml version="1.0" encoding="UTF-8"?>
<svg xmlns="http://www.w3.org/2000/svg" xmlns:xlink="http://www.w3.org/1999/xlink" width="504pt" height="504pt" viewBox="0 0 504 504" version="1.1">
<g id="surface285">
<rect x="0" y="0" width="504" height="504" style="fill:rgb(100%,100%,100%);fill-opacity:1;stroke:none;"/>
<path style="fill-rule:nonzero;fill:rgb(0%,0%,0%);fill-opacity:1;stroke-width:0.75;stroke-linecap:round;stroke-linejoin:round;stroke:rgb(20%,20%,20%);stroke-opacity:1;stroke-miterlimit:10;" d="M 165.816406 319.988281 L 164.859375 316.160156 L 163.902344 307.539062 L 162.941406 299.878906 L 162.941406 292.21875 L 161.984375 284.558594 L 161.984375 268.277344 L 161.027344 260.617188 L 161.027344 252.957031 L 161.984375 244.339844 L 162.941406 236.679688 L 162.941406 212.738281 L 161.027344 197.417969 L 160.070312 188.796875 L 159.113281 181.136719 L 159.113281 173.476562 L 160.070312 165.816406 L 160.070312 157.199219 L 161.984375 149.535156 L 162.941406 141.875 L 164.859375 134.214844 L 167.730469 125.597656 L 171.5625 117.9375 L 175.390625 110.273438 L 180.179688 102.613281 L 184.96875 93.996094 L 190.714844 86.335938 L 196.460938 80.589844 L 204.121094 71.972656 L 211.78125 64.308594 L 217.527344 56.648438 L 222.3125 48.988281 L 227.101562 40.371094 L 232.847656 33.667969 L 239.550781 31.753906 L 247.210938 33.667969 L 254.871094 40.371094 L 262.535156 48.03125 L 265.40625 55.691406 L 271.152344 61.4375 L 277.855469 69.097656 L 282.644531 75.800781 L 288.390625 82.503906 L 297.007812 91.125 L 300.835938 98.785156 L 308.5 114.105469 L 322.863281 128.46875 L 326.691406 136.128906 L 328.609375 143.792969 L 329.566406 152.410156 L 329.566406 175.390625 L 330.523438 184.011719 L 331.480469 191.671875 L 331.480469 199.332031 L 332.4375 207.949219 L 335.3125 215.609375 L 338.183594 223.273438 L 339.140625 230.933594 L 342.015625 239.550781 L 343.929688 254.871094 L 342.015625 262.535156 L 342.015625 278.8125 L 343.929688 286.472656 L 344.886719 294.132812 L 344.886719 302.753906 L 343.929688 310.414062 L 343.929688 318.074219 L 339.140625 325.734375 L 334.355469 333.394531 L 326.691406 339.140625 L 319.03125 342.972656 L 312.328125 351.589844 L 306.582031 359.25 L 303.710938 366.910156 L 301.796875 374.574219 L 297.964844 383.191406 L 292.21875 388.9375 L 288.390625 404.257812 L 287.429688 412.875 L 287.429688 420.539062 L 288.390625 428.199219 L 283.601562 436.816406 L 279.769531 444.476562 L 274.023438 452.136719 L 268.277344 456.925781 L 259.660156 461.714844 L 252.957031 466.503906 L 245.296875 470.332031 L 237.636719 472.246094 L 229.976562 466.503906 L 228.058594 458.839844 L 224.230469 443.519531 L 226.144531 434.902344 L 225.1875 428.199219 L 221.355469 420.539062 L 219.441406 411.917969 L 217.527344 404.257812 L 212.738281 396.597656 L 207.949219 389.894531 L 206.992188 381.277344 L 206.992188 373.613281 L 205.078125 365.953125 L 202.203125 358.292969 L 197.417969 349.675781 L 190.714844 342.972656 L 183.054688 336.269531 L 175.390625 333.394531 L 168.6875 327.652344 Z M 165.816406 319.988281 "/>
</g>
</svg>
