<?xml version="1.0" encoding="UTF-8"?>
<svg xmlns="http://www.w3.org/2000/svg" xmlns:xlink="http://www.w3.org/1999/xlink" width="504pt" height="504pt" viewBox="0 0 504 504" version="1.1">
<g id="surface300">
<rect x="0" y="0" width="504" height="504" style="fill:rgb(100%,100%,100%);fill-opacity:1;stroke:none;"/>
<path style="fill-rule:nonzero;fill:rgb(0%,0%,0%);fill-opacity:1;stroke-width:0.75;stroke-linecap:round;stroke-linejoin:round;stroke:rgb(20%,20%,20%);stroke-opacity:1;stroke-miterlimit:10;" d="M 199.054688 434.128906 L 190.585938 438.363281 L 186.347656 429.894531 L 194.820312 425.65625 L 190.585938 421.421875 L 186.347656 412.949219 L 182.113281 404.480469 L 177.878906 396.007812 L 177.878906 311.296875 L 182.113281 302.828125 L 186.347656 294.355469 L 186.347656 192.703125 L 182.113281 184.230469 L 182.113281 137.640625 L 177.878906 129.167969 L 177.878906 120.699219 L 182.113281 112.226562 L 182.113281 52.929688 L 186.347656 44.457031 L 190.585938 35.988281 L 199.054688 31.753906 L 207.527344 40.222656 L 211.761719 48.695312 L 211.761719 52.929688 L 215.996094 61.402344 L 215.996094 69.871094 L 220.234375 78.34375 L 224.46875 86.8125 L 228.703125 95.285156 L 232.941406 103.757812 L 232.941406 107.992188 L 237.175781 116.460938 L 241.410156 124.933594 L 245.648438 133.40625 L 249.882812 141.875 L 254.117188 150.347656 L 254.117188 154.582031 L 262.589844 163.054688 L 266.824219 171.523438 L 271.058594 179.996094 L 271.058594 188.46875 L 275.296875 196.9375 L 279.53125 201.171875 L 283.765625 205.410156 L 288.003906 213.878906 L 296.472656 230.824219 L 296.472656 247.765625 L 300.707031 256.234375 L 300.707031 268.941406 L 304.945312 277.414062 L 313.414062 285.882812 L 317.652344 294.355469 L 317.652344 302.828125 L 321.886719 311.296875 L 321.886719 315.53125 L 326.121094 324.003906 L 326.121094 340.945312 L 317.652344 349.417969 L 309.179688 353.652344 L 309.179688 357.886719 L 300.707031 366.359375 L 300.707031 374.832031 L 292.238281 383.300781 L 292.238281 391.773438 L 288.003906 400.242188 L 283.765625 408.714844 L 283.765625 421.421875 L 279.53125 429.894531 L 275.296875 438.363281 L 271.058594 446.835938 L 266.824219 455.304688 L 266.824219 459.542969 L 258.351562 463.777344 L 241.410156 463.777344 L 232.941406 468.011719 L 224.46875 472.246094 L 215.996094 463.777344 L 211.761719 459.542969 L 203.292969 442.597656 Z M 199.054688 434.128906 "/>
</g>
</svg>
