<?xml version="1.0" encoding="UTF-8"?>
<svg xmlns="http://www.w3.org/2000/svg" xmlns:xlink="http://www.w3.org/1999/xlink" width="504pt" height="504pt" viewBox="0 0 504 504" version="1.1">
<g id="surface320">
<rect x="0" y="0" width="504" height="504" style="fill:rgb(100%,100%,100%);fill-opacity:1;stroke:none;"/>
<path style="fill-rule:nonzero;fill:rgb(0%,0%,0%);fill-opacity:1;stroke-width:0.75;stroke-linecap:round;stroke-linejoin:round;stroke:rgb(20%,20%,20%);stroke-opacity:1;stroke-miterlimit:10;" d="M 272.976562 472.246094 L 266.683594 470.152344 L 260.390625 470.152344 L 243.609375 465.957031 L 237.316406 463.859375 L 228.925781 461.761719 L 220.535156 453.371094 L 218.4375 444.980469 L 218.4375 421.90625 L 220.535156 415.613281 L 220.535156 384.148438 L 218.4375 375.757812 L 218.4375 352.683594 L 220.535156 344.292969 L 222.632812 338 L 224.730469 329.609375 L 224.730469 306.539062 L 222.632812 298.148438 L 218.4375 291.855469 L 218.4375 275.074219 L 216.339844 268.78125 L 210.046875 243.609375 L 210.046875 237.316406 L 212.144531 228.925781 L 212.144531 174.390625 L 210.046875 168.097656 L 212.144531 159.707031 L 212.144531 90.484375 L 214.242188 82.09375 L 214.242188 73.703125 L 218.4375 67.410156 L 218.4375 59.019531 L 220.535156 50.628906 L 220.535156 44.335938 L 226.828125 35.945312 L 235.21875 31.753906 L 243.609375 38.042969 L 245.707031 44.335938 L 249.902344 52.726562 L 252 61.117188 L 254.097656 67.410156 L 258.292969 75.800781 L 260.390625 84.191406 L 264.585938 90.484375 L 268.78125 107.265625 L 270.878906 113.558594 L 272.976562 121.949219 L 277.171875 130.339844 L 279.269531 138.730469 L 279.269531 145.023438 L 283.464844 153.414062 L 285.5625 161.804688 L 285.5625 176.488281 L 287.660156 184.875 L 287.660156 207.949219 L 289.757812 214.242188 L 289.757812 231.023438 L 291.855469 239.414062 L 291.855469 262.488281 L 293.953125 268.78125 L 293.953125 340.097656 L 291.855469 346.390625 L 291.855469 392.539062 L 287.660156 409.320312 L 287.660156 440.785156 L 289.757812 447.078125 L 289.757812 455.46875 L 285.5625 463.859375 L 281.367188 470.152344 Z M 272.976562 472.246094 "/>
</g>
</svg>
