<?xml version="1.0" encoding="UTF-8"?>
<svg xmlns="http://www.w3.org/2000/svg" xmlns:xlink="http://www.w3.org/1999/xlink" width="504pt" height="504pt" viewBox="0 0 504 504" version="1.1">
<g id="surface325">
<rect x="0" y="0" width="504" height="504" style="fill:rgb(100%,100%,100%);fill-opacity:1;stroke:none;"/>
<path style="fill-rule:nonzero;fill:rgb(0%,0%,0%);fill-opacity:1;stroke-width:0.75;stroke-linecap:round;stroke-linejoin:round;stroke:rgb(20%,20%,20%);stroke-opacity:1;stroke-miterlimit:10;" d="M 231.605469 464.089844 L 223.449219 472.246094 L 215.292969 472.246094 L 207.132812 464.089844 L 207.132812 447.777344 L 198.976562 439.617188 L 182.664062 423.304688 L 174.503906 415.148438 L 174.503906 333.574219 L 182.664062 325.414062 L 182.664062 284.628906 L 190.820312 276.472656 L 190.820312 227.527344 L 198.976562 219.371094 L 198.976562 211.214844 L 207.132812 203.054688 L 207.132812 194.898438 L 215.292969 186.742188 L 215.292969 154.113281 L 223.449219 145.953125 L 223.449219 105.167969 L 231.605469 97.011719 L 231.605469 64.382812 L 264.234375 31.753906 L 272.394531 39.910156 L 280.550781 48.066406 L 280.550781 56.222656 L 288.707031 64.382812 L 288.707031 72.539062 L 296.867188 80.695312 L 296.867188 105.167969 L 305.023438 113.324219 L 305.023438 137.796875 L 313.179688 145.953125 L 313.179688 170.425781 L 321.335938 178.585938 L 321.335938 219.371094 L 329.496094 227.527344 L 329.496094 243.84375 L 321.335938 252 L 321.335938 260.15625 L 313.179688 268.316406 L 313.179688 374.359375 L 305.023438 382.515625 L 305.023438 423.304688 L 296.867188 431.460938 L 288.707031 439.617188 L 280.550781 447.777344 L 272.394531 455.933594 L 264.234375 455.933594 L 256.078125 464.089844 Z M 231.605469 464.089844 "/>
</g>
</svg>
