<?xml version="1.0" encoding="UTF-8"?>
<svg xmlns="http://www.w3.org/2000/svg" xmlns:xlink="http://www.w3.org/1999/xlink" width="504pt" height="504pt" viewBox="0 0 504 504" version="1.1">
<g id="surface280">
<rect x="0" y="0" width="504" height="504" style="fill:rgb(100%,100%,100%);fill-opacity:1;stroke:none;"/>
<path style="fill-rule:nonzero;fill:rgb(0%,0%,0%);fill-opacity:1;stroke-width:0.75;stroke-linecap:round;stroke-linejoin:round;stroke:rgb(20%,20%,20%);stroke-opacity:1;stroke-miterlimit:10;" d="M 212.425781 371.300781 L 207.835938 366.140625 L 208.984375 358.109375 L 207.835938 350.652344 L 203.820312 342.621094 L 196.363281 339.753906 L 188.335938 338.035156 L 186.613281 331.152344 L 186.613281 323.121094 L 187.1875 315.664062 L 187.1875 307.636719 L 187.761719 300.179688 L 188.335938 292.148438 L 188.335938 276.664062 L 188.90625 269.207031 L 188.90625 253.71875 L 189.480469 246.265625 L 190.054688 238.234375 L 190.054688 230.777344 L 191.203125 222.75 L 191.777344 215.292969 L 192.347656 207.261719 L 193.496094 199.804688 L 194.644531 191.777344 L 195.21875 184.320312 L 196.363281 176.289062 L 197.511719 168.832031 L 198.085938 160.804688 L 199.230469 153.347656 L 200.378906 145.890625 L 201.527344 137.859375 L 202.101562 130.40625 L 203.820312 122.375 L 204.96875 114.917969 L 206.113281 106.890625 L 207.261719 99.433594 L 208.410156 91.402344 L 209.554688 83.945312 L 210.703125 75.917969 L 212.425781 68.460938 L 213.570312 60.429688 L 214.71875 52.972656 L 216.4375 44.945312 L 218.734375 37.488281 L 224.46875 31.753906 L 230.777344 38.632812 L 235.367188 46.089844 L 240.527344 53.546875 L 245.117188 61.003906 L 249.132812 69.035156 L 253.71875 76.488281 L 257.160156 84.519531 L 260.601562 91.976562 L 264.042969 100.007812 L 266.914062 107.460938 L 270.355469 115.492188 L 273.796875 122.949219 L 276.664062 130.976562 L 279.53125 138.433594 L 281.824219 145.890625 L 285.265625 153.921875 L 287.5625 161.378906 L 289.28125 169.40625 L 291.003906 176.863281 L 293.296875 184.894531 L 296.164062 192.347656 L 299.605469 200.378906 L 300.753906 207.835938 L 301.898438 215.867188 L 303.046875 223.320312 L 305.914062 231.351562 L 306.488281 238.808594 L 307.636719 246.839844 L 308.78125 254.292969 L 308.78125 261.75 L 308.210938 269.78125 L 308.78125 277.238281 L 312.222656 285.265625 L 313.945312 292.722656 L 315.664062 300.753906 L 316.8125 308.210938 L 317.386719 316.238281 L 316.8125 323.695312 L 311.078125 328.285156 L 304.769531 334.019531 L 302.472656 342.050781 L 300.179688 349.503906 L 297.3125 357.535156 L 295.589844 364.992188 L 293.296875 372.449219 L 291.574219 380.476562 L 289.855469 387.933594 L 288.707031 395.964844 L 288.132812 403.421875 L 286.414062 411.449219 L 283.546875 418.90625 L 276.664062 426.363281 L 273.222656 433.820312 L 267.484375 441.847656 L 265.191406 449.304688 L 262.898438 457.335938 L 257.734375 464.21875 L 254.867188 472.246094 L 247.410156 471.675781 L 239.957031 469.378906 L 231.925781 466.511719 L 225.617188 463.070312 L 224.46875 455.042969 L 222.75 447.585938 L 219.878906 439.554688 L 215.867188 432.097656 L 218.160156 424.070312 L 218.734375 416.613281 L 219.878906 408.582031 L 220.453125 401.125 L 219.878906 393.097656 L 218.734375 385.640625 L 217.585938 377.609375 Z M 212.425781 371.300781 "/>
</g>
</svg>
