<?xml version="1.0" encoding="UTF-8"?>
<svg xmlns="http://www.w3.org/2000/svg" xmlns:xlink="http://www.w3.org/1999/xlink" width="504pt" height="504pt" viewBox="0 0 504 504" version="1.1">
<g id="surface435">
<rect x="0" y="0" width="504" height="504" style="fill:rgb(100%,100%,100%);fill-opacity:1;stroke:none;"/>
<path style="fill-rule:nonzero;fill:rgb(0%,0%,0%);fill-opacity:1;stroke-width:0.75;stroke-linecap:round;stroke-linejoin:round;stroke:rgb(20%,20%,20%);stroke-opacity:1;stroke-miterlimit:10;" d="M 246.957031 468.886719 L 240.230469 472.246094 L 240.230469 462.160156 L 233.507812 455.433594 L 233.507812 448.710938 L 230.144531 441.984375 L 230.144531 435.261719 L 226.78125 425.171875 L 223.417969 418.445312 L 220.054688 411.722656 L 213.332031 401.632812 L 209.96875 394.910156 L 203.242188 381.457031 L 203.242188 364.644531 L 199.878906 357.921875 L 196.519531 351.195312 L 196.519531 290.667969 L 193.15625 280.582031 L 193.15625 273.855469 L 189.792969 267.132812 L 189.792969 260.40625 L 186.429688 253.679688 L 186.429688 220.054688 L 189.792969 213.332031 L 193.15625 206.605469 L 193.15625 193.15625 L 196.519531 183.066406 L 199.878906 176.34375 L 203.242188 169.617188 L 206.605469 159.53125 L 206.605469 152.804688 L 209.96875 146.078125 L 209.96875 132.628906 L 213.332031 122.542969 L 213.332031 115.816406 L 216.691406 109.089844 L 220.054688 99.003906 L 223.417969 92.277344 L 226.78125 85.554688 L 226.78125 72.101562 L 230.144531 62.015625 L 230.144531 48.566406 L 233.507812 38.476562 L 236.867188 31.753906 L 243.59375 31.753906 L 250.320312 35.113281 L 253.679688 41.839844 L 263.769531 48.566406 L 270.492188 55.289062 L 270.492188 62.015625 L 277.21875 72.101562 L 280.582031 78.828125 L 280.582031 85.554688 L 283.945312 92.277344 L 287.308594 99.003906 L 290.667969 109.089844 L 297.394531 122.542969 L 300.757812 132.628906 L 304.121094 139.355469 L 304.121094 146.078125 L 307.480469 152.804688 L 307.480469 220.054688 L 310.84375 230.144531 L 310.84375 236.867188 L 314.207031 243.59375 L 317.570312 253.679688 L 317.570312 260.40625 L 314.207031 267.132812 L 314.207031 341.109375 L 310.84375 351.195312 L 307.480469 357.921875 L 304.121094 364.644531 L 304.121094 381.457031 L 300.757812 388.183594 L 300.757812 401.632812 L 297.394531 411.722656 L 297.394531 418.445312 L 294.03125 425.171875 L 283.945312 435.261719 L 280.582031 441.984375 L 273.855469 445.347656 L 267.132812 452.074219 L 260.40625 455.433594 L 253.679688 465.523438 Z M 246.957031 468.886719 "/>
</g>
</svg>
