<?xml version="1.0" encoding="UTF-8"?>
<svg xmlns="http://www.w3.org/2000/svg" xmlns:xlink="http://www.w3.org/1999/xlink" width="504pt" height="504pt" viewBox="0 0 504 504" version="1.1">
<g id="surface405">
<rect x="0" y="0" width="504" height="504" style="fill:rgb(100%,100%,100%);fill-opacity:1;stroke:none;"/>
<path style="fill-rule:nonzero;fill:rgb(0%,0%,0%);fill-opacity:1;stroke-width:0.75;stroke-linecap:round;stroke-linejoin:round;stroke:rgb(20%,20%,20%);stroke-opacity:1;stroke-miterlimit:10;" d="M 240.886719 462.144531 L 234.824219 468.207031 L 226.742188 470.226562 L 220.679688 472.246094 L 212.597656 468.207031 L 210.578125 460.125 L 206.535156 452.042969 L 206.535156 429.816406 L 202.496094 421.730469 L 202.496094 413.648438 L 204.515625 407.589844 L 204.515625 399.503906 L 208.554688 383.339844 L 208.554688 369.195312 L 206.535156 361.113281 L 206.535156 314.640625 L 208.554688 306.558594 L 208.554688 284.328125 L 206.535156 276.246094 L 204.515625 270.1875 L 202.496094 262.101562 L 202.496094 254.019531 L 206.535156 237.855469 L 206.535156 177.238281 L 204.515625 169.15625 L 206.535156 163.09375 L 206.535156 155.011719 L 208.554688 146.925781 L 208.554688 130.761719 L 206.535156 124.699219 L 206.535156 116.617188 L 204.515625 108.535156 L 204.515625 92.371094 L 206.535156 86.308594 L 206.535156 78.226562 L 208.554688 70.144531 L 212.597656 62.0625 L 214.617188 56 L 216.640625 47.917969 L 216.640625 39.835938 L 220.679688 31.753906 L 228.761719 31.753906 L 234.824219 35.792969 L 242.90625 41.855469 L 246.949219 49.9375 L 253.011719 56 L 257.050781 62.0625 L 263.113281 70.144531 L 267.15625 78.226562 L 271.195312 86.308594 L 275.238281 94.390625 L 279.277344 100.453125 L 283.320312 108.535156 L 287.359375 116.617188 L 291.402344 124.699219 L 293.421875 132.78125 L 293.421875 146.925781 L 295.445312 152.988281 L 297.464844 161.070312 L 297.464844 191.382812 L 301.503906 199.464844 L 301.503906 243.917969 L 297.464844 260.082031 L 297.464844 298.472656 L 293.421875 306.558594 L 293.421875 320.703125 L 289.382812 328.785156 L 287.359375 336.867188 L 287.359375 375.257812 L 289.382812 381.320312 L 289.382812 389.402344 L 287.359375 397.484375 L 283.320312 405.566406 L 275.238281 413.648438 L 269.175781 417.691406 L 263.113281 425.773438 L 257.050781 431.835938 L 250.988281 439.917969 L 246.949219 445.980469 L 246.949219 454.0625 Z M 240.886719 462.144531 "/>
</g>
</svg>
