<?xml version="1.0" encoding="UTF-8"?>
<svg xmlns="http://www.w3.org/2000/svg" xmlns:xlink="http://www.w3.org/1999/xlink" width="504pt" height="504pt" viewBox="0 0 504 504" version="1.1">
<g id="surface360">
<rect x="0" y="0" width="504" height="504" style="fill:rgb(100%,100%,100%);fill-opacity:1;stroke:none;"/>
<path style="fill-rule:nonzero;fill:rgb(0%,0%,0%);fill-opacity:1;stroke-width:0.75;stroke-linecap:round;stroke-linejoin:round;stroke:rgb(20%,20%,20%);stroke-opacity:1;stroke-miterlimit:10;" d="M 248.953125 470.03125 L 241.75 472.246094 L 235.101562 466.707031 L 231.222656 459.503906 L 227.898438 451.746094 L 225.128906 444.542969 L 222.355469 436.785156 L 219.03125 429.582031 L 214.597656 423.488281 L 211.828125 415.730469 L 210.722656 407.972656 L 210.167969 400.21875 L 209.058594 393.015625 L 208.503906 385.257812 L 209.613281 369.742188 L 208.503906 354.226562 L 206.84375 346.472656 L 205.179688 338.714844 L 202.964844 330.957031 L 200.746094 323.199219 L 201.300781 315.441406 L 200.191406 307.683594 L 196.316406 299.929688 L 193.542969 292.726562 L 191.882812 285.523438 L 189.113281 277.765625 L 187.449219 270.5625 L 185.785156 262.804688 L 184.679688 255.046875 L 184.679688 231.777344 L 188.003906 224.574219 L 192.4375 216.816406 L 196.867188 209.613281 L 199.085938 202.410156 L 202.964844 195.207031 L 204.070312 187.449219 L 204.070312 171.933594 L 202.964844 164.730469 L 204.070312 156.976562 L 204.070312 149.21875 L 205.734375 141.460938 L 206.289062 133.703125 L 207.949219 125.945312 L 208.503906 118.1875 L 208.503906 110.433594 L 214.046875 104.335938 L 216.261719 96.578125 L 218.476562 89.375 L 218.476562 81.621094 L 220.695312 73.863281 L 225.128906 67.214844 L 229.558594 51.699219 L 232.328125 43.941406 L 236.761719 36.738281 L 242.859375 31.753906 L 250.613281 32.304688 L 257.265625 38.402344 L 261.695312 45.605469 L 265.019531 53.359375 L 266.128906 61.117188 L 268.34375 68.875 L 270.5625 76.632812 L 272.777344 84.390625 L 274.996094 92.148438 L 276.65625 99.902344 L 278.320312 107.660156 L 280.535156 115.417969 L 281.644531 123.175781 L 282.75 130.933594 L 283.859375 138.691406 L 285.523438 146.445312 L 286.628906 154.203125 L 288.292969 161.960938 L 289.953125 169.164062 L 291.617188 176.921875 L 293.277344 184.679688 L 294.941406 192.4375 L 297.15625 200.191406 L 298.820312 207.949219 L 300.480469 215.152344 L 301.589844 222.910156 L 303.253906 230.667969 L 304.359375 238.425781 L 305.46875 246.183594 L 308.792969 253.9375 L 309.902344 261.695312 L 310.457031 269.453125 L 311.5625 277.210938 L 313.78125 292.726562 L 314.335938 300.480469 L 315.996094 308.238281 L 318.214844 323.753906 L 318.765625 331.511719 L 317.660156 339.269531 L 319.320312 347.023438 L 318.765625 354.78125 L 319.320312 362.539062 L 318.214844 370.296875 L 317.105469 378.054688 L 312.671875 385.8125 L 310.457031 393.015625 L 308.792969 400.769531 L 306.023438 408.527344 L 302.144531 415.730469 L 297.15625 421.828125 L 291.617188 428.476562 L 285.523438 435.679688 L 279.980469 441.773438 L 274.996094 448.421875 L 268.898438 455.070312 L 263.914062 462.273438 L 256.710938 466.152344 Z M 248.953125 470.03125 "/>
</g>
</svg>
