<?xml version="1.0" encoding="UTF-8"?>
<svg xmlns="http://www.w3.org/2000/svg" xmlns:xlink="http://www.w3.org/1999/xlink" width="504pt" height="504pt" viewBox="0 0 504 504" version="1.1">
<g id="surface425">
<rect x="0" y="0" width="504" height="504" style="fill:rgb(100%,100%,100%);fill-opacity:1;stroke:none;"/>
<path style="fill-rule:nonzero;fill:rgb(0%,0%,0%);fill-opacity:1;stroke-width:0.75;stroke-linecap:round;stroke-linejoin:round;stroke:rgb(20%,20%,20%);stroke-opacity:1;stroke-miterlimit:10;" d="M 203.054688 361.066406 L 200.640625 355.628906 L 199.429688 347.773438 L 199.429688 331.457031 L 198.828125 323.601562 L 198.222656 315.75 L 197.617188 307.894531 L 195.199219 300.039062 L 193.992188 291.578125 L 192.179688 283.722656 L 188.554688 275.867188 L 181.304688 268.011719 L 175.261719 260.15625 L 174.050781 244.445312 L 174.65625 235.988281 L 175.261719 228.132812 L 175.261719 220.277344 L 178.28125 212.421875 L 180.699219 204.566406 L 181.90625 196.105469 L 185.53125 188.25 L 187.949219 180.398438 L 189.761719 172.542969 L 192.179688 164.6875 L 193.992188 156.832031 L 196.410156 148.976562 L 196.410156 140.515625 L 194.597656 132.660156 L 190.972656 124.804688 L 189.761719 116.949219 L 190.367188 109.09375 L 193.386719 100.636719 L 196.410156 92.78125 L 197.011719 84.925781 L 198.222656 77.070312 L 201.242188 69.214844 L 206.679688 61.964844 L 209.703125 54.109375 L 215.746094 45.648438 L 223.601562 37.792969 L 231.457031 33.566406 L 239.3125 31.753906 L 247.167969 32.355469 L 255.625 33.566406 L 263.480469 36.585938 L 271.335938 41.421875 L 286.441406 56.527344 L 290.671875 64.382812 L 294.296875 72.238281 L 299.132812 80.695312 L 303.964844 88.550781 L 305.777344 96.40625 L 308.195312 104.261719 L 311.820312 112.117188 L 314.839844 120.578125 L 320.28125 128.429688 L 323.90625 136.285156 L 325.113281 144.140625 L 329.949219 159.851562 L 329.34375 167.707031 L 329.34375 176.167969 L 329.949219 184.023438 L 328.136719 191.878906 L 328.136719 199.734375 L 326.925781 207.585938 L 326.324219 216.046875 L 324.507812 223.902344 L 322.09375 239.613281 L 321.488281 247.46875 L 319.675781 255.324219 L 319.070312 263.179688 L 316.65625 271.636719 L 310.613281 277.679688 L 302.757812 277.679688 L 294.902344 278.285156 L 288.253906 284.929688 L 287.046875 293.390625 L 284.023438 301.246094 L 282.816406 309.101562 L 279.191406 324.8125 L 278.585938 332.667969 L 278.585938 340.523438 L 277.378906 348.980469 L 277.378906 356.835938 L 278.585938 364.691406 L 277.378906 372.546875 L 277.378906 380.402344 L 276.773438 388.863281 L 276.773438 396.71875 L 277.378906 404.574219 L 279.191406 412.425781 L 275.566406 420.28125 L 271.941406 427.535156 L 270.730469 435.390625 L 266.5 443.246094 L 265.292969 451.097656 L 261.667969 458.953125 L 256.230469 464.394531 L 248.375 467.414062 L 239.914062 472.246094 L 232.058594 472.246094 L 228.433594 464.394531 L 224.203125 456.539062 L 221.789062 448.683594 L 216.953125 432.972656 L 215.746094 424.511719 L 212.722656 416.65625 L 212.722656 408.800781 L 209.097656 393.089844 L 206.679688 384.632812 L 204.867188 376.777344 L 203.660156 368.921875 Z M 203.054688 361.066406 "/>
</g>
</svg>
