<?xml version="1.0" encoding="UTF-8"?>
<svg xmlns="http://www.w3.org/2000/svg" xmlns:xlink="http://www.w3.org/1999/xlink" width="504pt" height="504pt" viewBox="0 0 504 504" version="1.1">
<g id="surface365">
<rect x="0" y="0" width="504" height="504" style="fill:rgb(100%,100%,100%);fill-opacity:1;stroke:none;"/>
<path style="fill-rule:nonzero;fill:rgb(0%,0%,0%);fill-opacity:1;stroke-width:0.75;stroke-linecap:round;stroke-linejoin:round;stroke:rgb(20%,20%,20%);stroke-opacity:1;stroke-miterlimit:10;" d="M 243.371094 459.128906 L 239.917969 453.605469 L 237.15625 446.011719 L 233.011719 438.417969 L 230.25 430.820312 L 226.109375 423.226562 L 219.203125 416.324219 L 211.609375 413.5625 L 206.777344 408.039062 L 203.324219 401.824219 L 199.183594 394.917969 L 195.039062 387.324219 L 192.277344 379.730469 L 190.898438 372.136719 L 190.207031 364.539062 L 190.898438 356.253906 L 192.96875 348.660156 L 192.96875 341.066406 L 195.039062 334.160156 L 198.492188 325.875 L 198.492188 318.28125 L 202.632812 310.6875 L 204.707031 303.78125 L 206.777344 295.496094 L 204.707031 288.59375 L 202.632812 281 L 206.777344 273.402344 L 208.15625 265.117188 L 210.230469 257.523438 L 209.539062 249.929688 L 209.539062 242.332031 L 210.917969 234.738281 L 211.609375 226.453125 L 212.300781 218.859375 L 212.300781 203.667969 L 213.679688 195.382812 L 212.300781 187.789062 L 211.609375 180.195312 L 211.609375 164.316406 L 210.230469 156.71875 L 208.847656 149.125 L 209.539062 141.53125 L 209.539062 125.652344 L 207.46875 118.054688 L 207.46875 110.460938 L 205.394531 102.867188 L 205.394531 80.082031 L 208.15625 72.488281 L 210.230469 65.582031 L 214.371094 50.394531 L 217.824219 42.800781 L 221.277344 35.203125 L 228.871094 31.753906 L 235.773438 37.964844 L 241.296875 44.179688 L 248.203125 49.703125 L 252.34375 57.296875 L 257.179688 64.203125 L 262.011719 71.105469 L 268.914062 79.390625 L 271.675781 86.988281 L 276.511719 94.582031 L 277.199219 102.175781 L 282.722656 110.460938 L 284.796875 117.367188 L 287.558594 124.960938 L 289.628906 132.554688 L 295.152344 140.839844 L 297.222656 148.433594 L 297.222656 156.03125 L 299.292969 163.625 L 303.4375 171.910156 L 303.4375 187.097656 L 305.507812 194.695312 L 308.960938 202.980469 L 309.652344 210.574219 L 309.652344 225.761719 L 311.722656 234.046875 L 313.101562 241.644531 L 313.792969 249.238281 L 311.722656 256.832031 L 310.339844 265.117188 L 309.652344 272.714844 L 313.792969 287.902344 L 312.414062 294.808594 L 309.652344 303.09375 L 307.578125 309.996094 L 307.578125 317.589844 L 305.507812 325.1875 L 306.199219 333.472656 L 308.269531 341.066406 L 309.652344 348.660156 L 309.652344 356.253906 L 307.578125 363.851562 L 307.578125 371.445312 L 306.890625 379.039062 L 303.4375 386.632812 L 302.746094 394.917969 L 304.816406 402.515625 L 303.4375 410.109375 L 302.054688 417.703125 L 296.53125 425.988281 L 292.390625 433.582031 L 288.9375 441.179688 L 286.175781 448.773438 L 281.34375 457.058594 L 273.75 463.273438 L 267.535156 468.105469 L 259.941406 470.867188 L 251.65625 472.246094 L 246.132812 466.035156 Z M 243.371094 459.128906 "/>
</g>
</svg>
