<?xml version="1.0" encoding="UTF-8"?>
<svg xmlns="http://www.w3.org/2000/svg" xmlns:xlink="http://www.w3.org/1999/xlink" width="504pt" height="504pt" viewBox="0 0 504 504" version="1.1">
<g id="surface390">
<rect x="0" y="0" width="504" height="504" style="fill:rgb(100%,100%,100%);fill-opacity:1;stroke:none;"/>
<path style="fill-rule:nonzero;fill:rgb(0%,0%,0%);fill-opacity:1;stroke-width:0.75;stroke-linecap:round;stroke-linejoin:round;stroke:rgb(20%,20%,20%);stroke-opacity:1;stroke-miterlimit:10;" d="M 279.53125 459.292969 L 276.292969 465.769531 L 266.574219 472.246094 L 260.097656 469.007812 L 253.621094 462.53125 L 250.378906 452.8125 L 243.902344 439.859375 L 240.664062 430.140625 L 237.425781 423.664062 L 237.425781 417.1875 L 230.945312 407.46875 L 230.945312 400.992188 L 227.707031 394.511719 L 224.46875 384.796875 L 224.46875 378.320312 L 221.230469 371.839844 L 221.230469 362.125 L 217.992188 355.644531 L 217.992188 323.257812 L 214.753906 316.777344 L 214.753906 277.910156 L 211.511719 271.433594 L 208.273438 264.957031 L 205.035156 255.238281 L 205.035156 248.761719 L 208.273438 242.28125 L 208.273438 209.894531 L 205.035156 203.414062 L 205.035156 196.9375 L 201.796875 187.222656 L 201.796875 174.265625 L 205.035156 164.546875 L 205.035156 128.921875 L 201.796875 119.203125 L 201.796875 96.53125 L 205.035156 90.054688 L 205.035156 67.378906 L 208.273438 60.902344 L 208.273438 34.992188 L 214.753906 31.753906 L 221.230469 31.753906 L 227.707031 41.46875 L 230.945312 47.945312 L 237.425781 54.425781 L 240.664062 64.140625 L 247.140625 70.621094 L 250.378906 77.097656 L 253.621094 83.574219 L 260.097656 90.054688 L 263.335938 96.53125 L 266.574219 106.246094 L 269.8125 112.726562 L 273.054688 119.203125 L 273.054688 141.875 L 276.292969 151.59375 L 276.292969 164.546875 L 286.007812 171.027344 L 289.246094 177.503906 L 295.726562 180.742188 L 302.203125 190.460938 L 302.203125 219.609375 L 298.964844 226.089844 L 298.964844 294.105469 L 295.726562 303.824219 L 295.726562 310.300781 L 292.488281 320.019531 L 292.488281 365.363281 L 289.246094 371.839844 L 286.007812 378.320312 L 286.007812 400.992188 L 289.246094 410.707031 L 289.246094 433.378906 L 292.488281 439.859375 L 292.488281 446.335938 L 286.007812 456.054688 Z M 279.53125 459.292969 "/>
</g>
</svg>
