<?xml version="1.0" encoding="UTF-8"?>
<svg xmlns="http://www.w3.org/2000/svg" xmlns:xlink="http://www.w3.org/1999/xlink" width="504pt" height="504pt" viewBox="0 0 504 504" version="1.1">
<g id="surface430">
<rect x="0" y="0" width="504" height="504" style="fill:rgb(100%,100%,100%);fill-opacity:1;stroke:none;"/>
<path style="fill-rule:nonzero;fill:rgb(0%,0%,0%);fill-opacity:1;stroke-width:0.75;stroke-linecap:round;stroke-linejoin:round;stroke:rgb(20%,20%,20%);stroke-opacity:1;stroke-miterlimit:10;" d="M 254.894531 469.089844 L 247 466.457031 L 232.265625 455.933594 L 224.371094 451.195312 L 217.527344 446.988281 L 217.527344 439.617188 L 215.949219 432.25 L 215.421875 424.355469 L 214.898438 416.460938 L 213.320312 409.09375 L 213.320312 401.726562 L 212.792969 393.832031 L 212.792969 378.570312 L 212.265625 371.203125 L 210.160156 363.308594 L 209.632812 355.414062 L 207.53125 348.046875 L 205.425781 340.679688 L 203.84375 332.785156 L 202.792969 324.890625 L 200.160156 317.523438 L 198.054688 310.152344 L 195.953125 302.257812 L 194.371094 294.367188 L 193.847656 286.996094 L 192.792969 279.628906 L 192.265625 271.734375 L 193.320312 263.839844 L 192.265625 249.105469 L 192.265625 218.582031 L 192.792969 210.6875 L 192.265625 202.792969 L 192.265625 172.269531 L 193.320312 164.902344 L 198.054688 157.53125 L 202.792969 149.636719 L 206.476562 141.746094 L 210.160156 134.375 L 212.792969 127.007812 L 220.160156 111.21875 L 221.738281 103.851562 L 223.84375 96.484375 L 227 89.117188 L 230.160156 81.222656 L 232.265625 73.855469 L 235.949219 66.488281 L 238.578125 58.59375 L 241.738281 50.699219 L 245.421875 43.332031 L 249.632812 36.488281 L 257 31.753906 L 264.894531 32.804688 L 268.050781 40.171875 L 271.734375 47.539062 L 274.367188 55.433594 L 276.472656 63.328125 L 275.945312 70.695312 L 278.050781 78.066406 L 281.734375 85.957031 L 284.367188 93.851562 L 287.523438 101.222656 L 289.101562 108.589844 L 290.679688 116.484375 L 292.785156 124.378906 L 293.839844 131.746094 L 295.945312 139.113281 L 299.628906 146.480469 L 302.257812 154.375 L 307.523438 169.109375 L 308.046875 177.003906 L 308.046875 199.636719 L 309.628906 207.53125 L 311.734375 215.421875 L 311.734375 222.792969 L 310.679688 230.160156 L 308.574219 238.054688 L 306.996094 245.949219 L 303.839844 260.683594 L 302.257812 268.578125 L 301.207031 276.472656 L 300.15625 283.839844 L 299.628906 291.207031 L 297.523438 299.101562 L 295.945312 306.996094 L 294.890625 314.363281 L 293.839844 321.730469 L 292.785156 329.625 L 292.261719 337.519531 L 292.261719 344.886719 L 291.734375 352.257812 L 290.679688 360.152344 L 290.679688 375.414062 L 290.15625 382.78125 L 287.523438 390.675781 L 285.417969 398.570312 L 284.367188 405.9375 L 282.261719 413.304688 L 281.734375 421.199219 L 280.15625 429.09375 L 278.050781 436.460938 L 274.367188 443.828125 L 272.261719 451.722656 L 271.210938 459.617188 L 269.628906 466.984375 L 262.789062 472.246094 Z M 254.894531 469.089844 "/>
</g>
</svg>
