<?xml version="1.0" encoding="UTF-8"?>
<svg xmlns="http://www.w3.org/2000/svg" xmlns:xlink="http://www.w3.org/1999/xlink" width="504pt" height="504pt" viewBox="0 0 504 504" version="1.1">
<g id="surface380">
<rect x="0" y="0" width="504" height="504" style="fill:rgb(100%,100%,100%);fill-opacity:1;stroke:none;"/>
<path style="fill-rule:nonzero;fill:rgb(0%,0%,0%);fill-opacity:1;stroke-width:0.75;stroke-linecap:round;stroke-linejoin:round;stroke:rgb(20%,20%,20%);stroke-opacity:1;stroke-miterlimit:10;" d="M 290.433594 472.246094 L 281.5625 472.246094 L 272.695312 469.292969 L 266.78125 469.292969 L 257.914062 466.335938 L 249.042969 463.378906 L 240.175781 463.378906 L 234.261719 460.421875 L 225.394531 460.421875 L 216.523438 457.464844 L 207.65625 454.511719 L 201.742188 451.554688 L 192.871094 448.597656 L 189.917969 439.726562 L 192.871094 430.859375 L 192.871094 416.078125 L 195.828125 407.207031 L 195.828125 383.558594 L 192.871094 374.6875 L 192.871094 365.820312 L 189.917969 356.949219 L 189.917969 333.300781 L 192.871094 324.429688 L 195.828125 318.519531 L 198.785156 309.648438 L 201.742188 300.78125 L 201.742188 277.128906 L 198.785156 268.261719 L 198.785156 259.390625 L 201.742188 250.523438 L 201.742188 212.089844 L 198.785156 203.21875 L 201.742188 194.351562 L 201.742188 185.480469 L 204.699219 176.613281 L 204.699219 170.699219 L 207.65625 161.832031 L 207.65625 152.960938 L 210.609375 144.09375 L 210.609375 96.792969 L 207.65625 87.921875 L 207.65625 55.402344 L 210.609375 46.535156 L 210.609375 37.664062 L 216.523438 31.753906 L 222.4375 37.664062 L 231.304688 43.578125 L 240.175781 49.488281 L 246.085938 52.445312 L 252 61.316406 L 254.957031 70.183594 L 257.914062 79.054688 L 257.914062 84.964844 L 263.824219 93.835938 L 266.78125 102.703125 L 266.78125 111.574219 L 269.738281 117.484375 L 272.695312 126.355469 L 278.605469 135.222656 L 281.5625 144.09375 L 281.5625 152.960938 L 284.519531 158.875 L 287.476562 167.742188 L 287.476562 176.613281 L 290.433594 185.480469 L 290.433594 191.394531 L 293.390625 200.265625 L 296.34375 209.132812 L 296.34375 223.914062 L 299.300781 232.785156 L 299.300781 274.171875 L 302.257812 283.042969 L 302.257812 315.5625 L 305.214844 324.429688 L 305.214844 330.34375 L 308.171875 339.210938 L 308.171875 356.949219 L 311.128906 365.820312 L 311.128906 398.339844 L 314.082031 404.253906 L 311.128906 413.121094 L 311.128906 463.378906 L 308.171875 469.292969 L 299.300781 472.246094 Z M 290.433594 472.246094 "/>
</g>
</svg>
