<?xml version="1.0" encoding="UTF-8"?>
<svg xmlns="http://www.w3.org/2000/svg" xmlns:xlink="http://www.w3.org/1999/xlink" width="504pt" height="504pt" viewBox="0 0 504 504" version="1.1">
<g id="surface415">
<rect x="0" y="0" width="504" height="504" style="fill:rgb(100%,100%,100%);fill-opacity:1;stroke:none;"/>
<path style="fill-rule:nonzero;fill:rgb(0%,0%,0%);fill-opacity:1;stroke-width:0.75;stroke-linecap:round;stroke-linejoin:round;stroke:rgb(20%,20%,20%);stroke-opacity:1;stroke-miterlimit:10;" d="M 267.113281 437.699219 L 258.476562 442.019531 L 254.160156 446.335938 L 249.839844 454.972656 L 232.566406 472.246094 L 223.929688 472.246094 L 219.609375 467.929688 L 215.292969 459.292969 L 215.292969 338.371094 L 210.972656 334.054688 L 206.65625 329.734375 L 202.335938 321.097656 L 202.335938 312.460938 L 198.019531 303.824219 L 198.019531 174.265625 L 193.699219 169.945312 L 193.699219 131.078125 L 189.378906 122.441406 L 189.378906 61.980469 L 185.0625 53.34375 L 185.0625 40.390625 L 189.378906 31.753906 L 193.699219 36.070312 L 202.335938 44.707031 L 206.65625 53.34375 L 215.292969 61.980469 L 223.929688 70.621094 L 228.246094 74.9375 L 236.886719 83.574219 L 245.523438 92.210938 L 249.839844 96.53125 L 258.476562 105.167969 L 267.113281 109.488281 L 271.433594 118.125 L 271.433594 126.761719 L 275.753906 131.078125 L 280.070312 139.714844 L 288.707031 148.355469 L 288.707031 152.671875 L 305.980469 169.945312 L 305.980469 200.175781 L 310.300781 208.8125 L 310.300781 213.132812 L 314.621094 221.769531 L 314.621094 252 L 310.300781 260.636719 L 310.300781 308.140625 L 314.621094 312.460938 L 318.9375 321.097656 L 318.9375 334.054688 L 314.621094 342.691406 L 305.980469 359.964844 L 301.664062 368.601562 L 301.664062 381.558594 L 297.34375 390.195312 L 297.34375 394.511719 L 293.027344 403.152344 L 284.390625 411.789062 L 280.070312 420.425781 L 275.753906 429.0625 L 275.753906 433.378906 Z M 267.113281 437.699219 "/>
</g>
</svg>
