<?xml version="1.0" encoding="UTF-8"?>
<svg xmlns="http://www.w3.org/2000/svg" xmlns:xlink="http://www.w3.org/1999/xlink" width="504pt" height="504pt" viewBox="0 0 504 504" version="1.1">
<g id="surface395">
<rect x="0" y="0" width="504" height="504" style="fill:rgb(100%,100%,100%);fill-opacity:1;stroke:none;"/>
<path style="fill-rule:nonzero;fill:rgb(0%,0%,0%);fill-opacity:1;stroke-width:0.75;stroke-linecap:round;stroke-linejoin:round;stroke:rgb(20%,20%,20%);stroke-opacity:1;stroke-miterlimit:10;" d="M 249.644531 469.890625 L 242.578125 469.890625 L 237.867188 462.824219 L 216.667969 448.691406 L 209.597656 439.269531 L 202.53125 432.203125 L 197.820312 425.136719 L 195.464844 415.714844 L 193.109375 408.648438 L 193.109375 401.582031 L 197.820312 394.511719 L 202.53125 385.089844 L 204.886719 378.023438 L 204.886719 361.535156 L 200.175781 354.46875 L 195.464844 349.757812 L 190.753906 342.691406 L 190.753906 326.203125 L 193.109375 319.132812 L 195.464844 309.710938 L 200.175781 302.644531 L 200.175781 295.578125 L 202.53125 288.511719 L 202.53125 264.957031 L 200.175781 255.535156 L 200.175781 241.398438 L 202.53125 234.332031 L 202.53125 224.910156 L 207.242188 210.777344 L 207.242188 203.710938 L 209.597656 194.289062 L 211.953125 187.222656 L 211.953125 180.15625 L 214.308594 170.730469 L 216.667969 163.664062 L 221.378906 149.53125 L 223.734375 140.109375 L 228.445312 125.976562 L 230.800781 116.554688 L 230.800781 109.488281 L 233.15625 102.417969 L 235.511719 95.351562 L 237.867188 85.929688 L 237.867188 78.863281 L 240.222656 71.796875 L 242.578125 62.375 L 242.578125 55.308594 L 247.289062 48.242188 L 249.644531 41.175781 L 254.355469 31.753906 L 261.421875 31.753906 L 263.777344 38.820312 L 266.132812 48.242188 L 270.84375 55.308594 L 273.199219 62.375 L 273.199219 69.441406 L 277.910156 78.863281 L 280.265625 85.929688 L 280.265625 92.996094 L 282.621094 102.417969 L 284.976562 109.488281 L 284.976562 116.554688 L 287.332031 123.621094 L 287.332031 140.109375 L 289.691406 147.175781 L 289.691406 163.664062 L 294.402344 177.796875 L 294.402344 187.222656 L 299.113281 201.355469 L 301.46875 210.777344 L 303.824219 217.84375 L 308.535156 224.910156 L 310.890625 231.976562 L 310.890625 309.710938 L 313.246094 316.777344 L 313.246094 356.824219 L 310.890625 363.890625 L 310.890625 370.957031 L 308.535156 380.378906 L 308.535156 387.445312 L 306.179688 394.511719 L 306.179688 418.070312 L 303.824219 425.136719 L 301.46875 434.558594 L 296.757812 441.625 L 294.402344 448.691406 L 284.976562 455.757812 L 277.910156 455.757812 L 266.132812 467.535156 L 256.710938 472.246094 Z M 249.644531 469.890625 "/>
</g>
</svg>
