<?xml version="1.0" encoding="UTF-8"?>
<svg xmlns="http://www.w3.org/2000/svg" xmlns:xlink="http://www.w3.org/1999/xlink" width="504pt" height="504pt" viewBox="0 0 504 504" version="1.1">
<g id="surface385">
<rect x="0" y="0" width="504" height="504" style="fill:rgb(100%,100%,100%);fill-opacity:1;stroke:none;"/>
<path style="fill-rule:nonzero;fill:rgb(0%,0%,0%);fill-opacity:1;stroke-width:0.75;stroke-linecap:round;stroke-linejoin:round;stroke:rgb(20%,20%,20%);stroke-opacity:1;stroke-miterlimit:10;" d="M 244.160156 452.390625 L 236.324219 455.527344 L 227.964844 458.664062 L 219.601562 461.273438 L 202.882812 466.5 L 195.042969 469.636719 L 187.207031 472.246094 L 178.84375 471.203125 L 175.710938 463.363281 L 175.1875 454.480469 L 175.1875 417.90625 L 175.710938 409.019531 L 175.1875 399.617188 L 173.097656 391.777344 L 172.574219 382.894531 L 171.007812 373.488281 L 169.441406 364.605469 L 169.441406 355.722656 L 168.394531 346.839844 L 168.394531 337.957031 L 166.828125 329.074219 L 166.828125 319.667969 L 164.738281 311.832031 L 163.691406 302.945312 L 163.691406 284.660156 L 162.648438 275.773438 L 164.214844 267.414062 L 165.257812 258.53125 L 166.828125 249.125 L 166.828125 240.242188 L 167.871094 231.359375 L 165.257812 222.476562 L 164.214844 213.59375 L 162.648438 204.710938 L 161.078125 195.304688 L 161.601562 186.421875 L 162.648438 177.539062 L 163.691406 169.699219 L 164.214844 160.816406 L 163.691406 151.933594 L 159.511719 135.214844 L 158.464844 126.851562 L 156.898438 117.449219 L 156.898438 108.566406 L 158.464844 99.160156 L 158.464844 90.277344 L 159.511719 81.914062 L 159.511719 63.625 L 161.078125 55.265625 L 165.257812 46.90625 L 167.871094 38.546875 L 172.050781 31.753906 L 180.933594 34.363281 L 188.25 38.546875 L 201.835938 50.039062 L 209.675781 53.175781 L 216.992188 57.878906 L 224.828125 63.105469 L 232.144531 69.898438 L 238.9375 75.121094 L 246.773438 80.347656 L 252 87.140625 L 257.746094 93.410156 L 265.0625 98.636719 L 271.332031 103.339844 L 276.035156 111.699219 L 280.738281 118.492188 L 285.964844 125.285156 L 290.144531 132.601562 L 293.28125 140.4375 L 297.984375 147.230469 L 304.253906 153.503906 L 310 160.816406 L 313.136719 168.65625 L 318.363281 176.492188 L 325.15625 181.71875 L 330.902344 188.511719 L 337.695312 195.304688 L 343.964844 202.097656 L 345.535156 210.457031 L 345.535156 219.863281 L 347.101562 228.226562 L 346.578125 237.628906 L 345.535156 245.992188 L 343.964844 254.351562 L 341.875 263.757812 L 340.832031 272.117188 L 338.21875 280.476562 L 333.515625 288.839844 L 331.425781 296.675781 L 329.859375 305.039062 L 328.289062 314.441406 L 325.15625 322.804688 L 324.109375 331.6875 L 322.542969 341.09375 L 318.363281 348.40625 L 314.703125 356.246094 L 316.792969 364.605469 L 319.929688 372.964844 L 318.363281 381.328125 L 315.75 389.6875 L 312.089844 397.527344 L 305.820312 403.796875 L 299.027344 409.019531 L 292.234375 413.203125 L 285.964844 418.425781 L 279.171875 423.128906 L 270.8125 425.742188 L 261.929688 427.308594 L 254.613281 431.492188 L 252.523438 438.804688 L 250.433594 446.644531 Z M 244.160156 452.390625 "/>
</g>
</svg>
