<?xml version="1.0" encoding="UTF-8"?>
<svg xmlns="http://www.w3.org/2000/svg" xmlns:xlink="http://www.w3.org/1999/xlink" width="504pt" height="504pt" viewBox="0 0 504 504" version="1.1">
<g id="surface370">
<rect x="0" y="0" width="504" height="504" style="fill:rgb(100%,100%,100%);fill-opacity:1;stroke:none;"/>
<path style="fill-rule:nonzero;fill:rgb(0%,0%,0%);fill-opacity:1;stroke-width:0.75;stroke-linecap:round;stroke-linejoin:round;stroke:rgb(20%,20%,20%);stroke-opacity:1;stroke-miterlimit:10;" d="M 275.46875 418.089844 L 271.859375 425.308594 L 268.246094 432.53125 L 264.636719 439.753906 L 261.027344 450.585938 L 253.804688 457.804688 L 246.585938 461.417969 L 242.972656 465.027344 L 235.753906 472.246094 L 206.867188 472.246094 L 199.644531 461.417969 L 199.644531 233.945312 L 196.035156 226.726562 L 196.035156 57.027344 L 199.644531 49.804688 L 199.644531 38.972656 L 206.867188 31.753906 L 214.089844 38.972656 L 221.308594 46.195312 L 224.921875 53.414062 L 232.140625 67.859375 L 235.753906 75.078125 L 235.753906 82.300781 L 239.363281 93.132812 L 242.972656 100.355469 L 242.972656 107.574219 L 246.585938 114.796875 L 250.195312 122.015625 L 253.804688 129.238281 L 253.804688 136.460938 L 257.414062 147.292969 L 261.027344 154.511719 L 264.636719 161.734375 L 264.636719 168.957031 L 268.246094 176.175781 L 268.246094 183.398438 L 275.46875 190.621094 L 275.46875 197.839844 L 279.078125 205.0625 L 279.078125 215.894531 L 282.691406 223.113281 L 282.691406 252 L 286.300781 259.222656 L 286.300781 270.054688 L 289.910156 277.273438 L 289.910156 291.71875 L 293.523438 298.9375 L 293.523438 306.160156 L 297.132812 313.378906 L 297.132812 320.601562 L 300.742188 327.824219 L 304.355469 338.65625 L 304.355469 345.875 L 307.964844 353.097656 L 307.964844 360.320312 L 300.742188 367.539062 L 297.132812 374.761719 L 297.132812 381.984375 L 289.910156 392.8125 L 282.691406 407.257812 L 279.078125 410.867188 Z M 275.46875 418.089844 "/>
</g>
</svg>
