<?xml version="1.0" encoding="UTF-8"?>
<svg xmlns="http://www.w3.org/2000/svg" xmlns:xlink="http://www.w3.org/1999/xlink" width="504pt" height="504pt" viewBox="0 0 504 504" version="1.1">
<g id="surface375">
<rect x="0" y="0" width="504" height="504" style="fill:rgb(100%,100%,100%);fill-opacity:1;stroke:none;"/>
<path style="fill-rule:nonzero;fill:rgb(0%,0%,0%);fill-opacity:1;stroke-width:0.75;stroke-linecap:round;stroke-linejoin:round;stroke:rgb(20%,20%,20%);stroke-opacity:1;stroke-miterlimit:10;" d="M 207.949219 457.566406 L 200.609375 464.90625 L 193.265625 464.90625 L 185.925781 472.246094 L 178.585938 472.246094 L 171.242188 464.90625 L 163.902344 457.566406 L 163.902344 435.539062 L 156.558594 420.855469 L 156.558594 207.949219 L 163.902344 200.609375 L 163.902344 83.144531 L 171.242188 75.800781 L 171.242188 46.433594 L 178.585938 39.09375 L 185.925781 31.753906 L 193.265625 31.753906 L 200.609375 39.09375 L 215.292969 53.777344 L 222.632812 53.777344 L 229.976562 61.117188 L 229.976562 68.460938 L 252 90.484375 L 259.339844 97.828125 L 266.683594 105.167969 L 274.023438 112.507812 L 274.023438 119.851562 L 281.367188 127.191406 L 288.707031 134.535156 L 288.707031 141.875 L 303.390625 156.558594 L 303.390625 171.242188 L 310.734375 178.585938 L 310.734375 185.925781 L 318.074219 193.265625 L 318.074219 200.609375 L 325.414062 207.949219 L 325.414062 222.632812 L 340.097656 237.316406 L 340.097656 244.660156 L 347.441406 252 L 347.441406 296.050781 L 340.097656 303.390625 L 332.757812 303.390625 L 303.390625 332.757812 L 303.390625 340.097656 L 296.050781 347.441406 L 288.707031 354.78125 L 281.367188 362.125 L 274.023438 369.464844 L 266.683594 376.808594 L 259.339844 391.492188 L 229.976562 420.855469 L 229.976562 428.199219 L 222.632812 435.539062 L 215.292969 442.882812 L 215.292969 450.222656 Z M 207.949219 457.566406 "/>
</g>
</svg>
