<?xml version="1.0" encoding="UTF-8"?>
<svg xmlns="http://www.w3.org/2000/svg" xmlns:xlink="http://www.w3.org/1999/xlink" width="504pt" height="504pt" viewBox="0 0 504 504" version="1.1">
<g id="surface420">
<rect x="0" y="0" width="504" height="504" style="fill:rgb(100%,100%,100%);fill-opacity:1;stroke:none;"/>
<path style="fill-rule:nonzero;fill:rgb(0%,0%,0%);fill-opacity:1;stroke-width:0.75;stroke-linecap:round;stroke-linejoin:round;stroke:rgb(20%,20%,20%);stroke-opacity:1;stroke-miterlimit:10;" d="M 203.164062 336.269531 L 197.417969 334.355469 L 201.246094 328.609375 L 197.417969 320.945312 L 189.757812 313.285156 L 185.925781 305.625 L 185.925781 269.238281 L 191.671875 261.574219 L 195.5 253.914062 L 203.164062 238.59375 L 206.992188 223.273438 L 206.992188 200.289062 L 208.90625 192.628906 L 210.824219 184.96875 L 212.738281 177.308594 L 214.652344 169.644531 L 214.652344 161.984375 L 218.484375 154.324219 L 220.398438 146.664062 L 220.398438 139.003906 L 226.144531 131.34375 L 231.890625 125.597656 L 233.804688 117.9375 L 233.804688 104.53125 L 239.550781 96.867188 L 241.464844 89.207031 L 247.210938 81.546875 L 249.128906 73.886719 L 254.871094 66.226562 L 256.789062 58.566406 L 258.703125 50.902344 L 262.535156 43.242188 L 266.363281 35.582031 L 274.023438 31.753906 L 279.769531 35.582031 L 287.429688 43.242188 L 293.175781 50.902344 L 297.007812 58.566406 L 300.835938 66.226562 L 302.753906 73.886719 L 304.667969 81.546875 L 304.667969 87.292969 L 306.582031 94.953125 L 306.582031 102.613281 L 308.5 110.273438 L 310.414062 117.9375 L 314.242188 133.257812 L 314.242188 140.917969 L 316.160156 148.578125 L 318.074219 156.238281 L 318.074219 179.222656 L 316.160156 186.882812 L 314.242188 194.542969 L 314.242188 202.203125 L 312.328125 209.867188 L 310.414062 217.527344 L 310.414062 225.1875 L 308.5 232.847656 L 308.5 246.253906 L 310.414062 253.914062 L 310.414062 292.21875 L 308.5 299.878906 L 308.5 322.863281 L 306.582031 330.523438 L 302.753906 338.183594 L 298.921875 345.84375 L 297.007812 353.503906 L 295.09375 361.167969 L 293.175781 368.828125 L 293.175781 376.488281 L 291.261719 384.148438 L 291.261719 389.894531 L 287.429688 397.554688 L 283.601562 405.214844 L 277.855469 412.875 L 275.941406 420.539062 L 275.941406 428.199219 L 272.109375 435.859375 L 270.195312 443.519531 L 266.363281 451.179688 L 262.535156 458.839844 L 258.703125 464.585938 L 251.042969 470.332031 L 243.382812 472.246094 L 237.636719 464.585938 L 233.804688 456.925781 L 229.976562 449.265625 L 228.058594 441.605469 L 226.144531 433.945312 L 224.230469 426.28125 L 222.3125 418.621094 L 222.3125 410.960938 L 220.398438 405.214844 L 216.570312 389.894531 L 212.738281 382.234375 L 210.824219 374.574219 L 208.90625 366.910156 L 205.078125 359.25 L 205.078125 351.589844 L 203.164062 343.929688 Z M 203.164062 336.269531 "/>
</g>
</svg>
