<?xml version="1.0" encoding="UTF-8"?>
<svg xmlns="http://www.w3.org/2000/svg" xmlns:xlink="http://www.w3.org/1999/xlink" width="504pt" height="504pt" viewBox="0 0 504 504" version="1.1">
<g id="surface400">
<rect x="0" y="0" width="504" height="504" style="fill:rgb(100%,100%,100%);fill-opacity:1;stroke:none;"/>
<path style="fill-rule:nonzero;fill:rgb(0%,0%,0%);fill-opacity:1;stroke-width:0.75;stroke-linecap:round;stroke-linejoin:round;stroke:rgb(20%,20%,20%);stroke-opacity:1;stroke-miterlimit:10;" d="M 292.613281 378.527344 L 292.613281 394.144531 L 289.488281 400.394531 L 286.363281 409.765625 L 283.242188 416.015625 L 280.117188 425.386719 L 276.992188 431.636719 L 273.867188 437.882812 L 270.746094 447.253906 L 270.746094 453.503906 L 267.621094 462.875 L 261.371094 466 L 252 472.246094 L 245.75 469.125 L 230.132812 469.125 L 223.882812 466 L 217.636719 456.628906 L 214.511719 450.378906 L 214.511719 403.519531 L 211.386719 397.269531 L 211.386719 366.027344 L 208.261719 359.78125 L 208.261719 312.917969 L 205.140625 306.671875 L 202.015625 297.300781 L 202.015625 237.941406 L 208.261719 228.570312 L 208.261719 222.320312 L 211.386719 212.949219 L 214.511719 206.699219 L 217.636719 197.328125 L 220.757812 191.082031 L 220.757812 184.832031 L 223.882812 175.460938 L 223.882812 131.722656 L 227.007812 122.351562 L 227.007812 116.101562 L 230.132812 106.730469 L 230.132812 100.480469 L 233.253906 91.109375 L 236.378906 84.863281 L 236.378906 69.242188 L 239.503906 62.992188 L 242.628906 53.621094 L 245.75 47.371094 L 248.875 38 L 255.125 31.753906 L 261.371094 38 L 264.496094 47.371094 L 270.746094 50.496094 L 273.867188 59.867188 L 273.867188 66.117188 L 280.117188 75.488281 L 280.117188 81.738281 L 283.242188 91.109375 L 289.488281 97.359375 L 289.488281 103.605469 L 292.613281 112.976562 L 295.738281 119.226562 L 295.738281 219.195312 L 298.859375 225.445312 L 301.984375 234.816406 L 301.984375 309.796875 L 298.859375 319.167969 L 298.859375 325.414062 L 295.738281 331.664062 L 295.738281 372.277344 Z M 292.613281 378.527344 "/>
</g>
</svg>
