<?xml version="1.0" encoding="UTF-8"?>
<svg xmlns="http://www.w3.org/2000/svg" xmlns:xlink="http://www.w3.org/1999/xlink" width="504pt" height="504pt" viewBox="0 0 504 504" version="1.1">
<g id="surface410">
<rect x="0" y="0" width="504" height="504" style="fill:rgb(100%,100%,100%);fill-opacity:1;stroke:none;"/>
<path style="fill-rule:nonzero;fill:rgb(0%,0%,0%);fill-opacity:1;stroke-width:0.75;stroke-linecap:round;stroke-linejoin:round;stroke:rgb(20%,20%,20%);stroke-opacity:1;stroke-miterlimit:10;" d="M 182.589844 462.902344 L 179.917969 460.234375 L 177.25 452.226562 L 174.578125 442.882812 L 171.910156 434.871094 L 171.910156 338.765625 L 167.90625 330.753906 L 167.90625 278.695312 L 165.234375 269.351562 L 167.90625 261.34375 L 167.90625 252 L 166.570312 243.992188 L 166.570312 234.648438 L 165.234375 226.636719 L 167.90625 218.628906 L 167.90625 193.265625 L 165.234375 183.921875 L 165.234375 141.207031 L 167.90625 133.199219 L 167.90625 98.492188 L 165.234375 91.820312 L 165.234375 65.121094 L 167.90625 57.113281 L 167.90625 47.769531 L 174.578125 45.101562 L 182.589844 41.097656 L 207.949219 41.097656 L 217.292969 38.425781 L 225.304688 31.753906 L 242.65625 31.753906 L 250.664062 34.421875 L 260.007812 35.757812 L 268.019531 38.425781 L 276.027344 42.429688 L 282.703125 46.433594 L 292.046875 53.109375 L 309.398438 70.460938 L 314.738281 78.472656 L 317.40625 87.816406 L 324.082031 95.824219 L 328.085938 103.832031 L 333.425781 111.84375 L 336.09375 121.1875 L 338.765625 127.859375 L 338.765625 145.214844 L 336.09375 154.558594 L 336.09375 179.917969 L 334.761719 189.261719 L 333.425781 197.273438 L 333.425781 206.617188 L 337.429688 214.625 L 338.765625 223.96875 L 338.765625 231.976562 L 333.425781 237.316406 L 333.425781 262.679688 L 329.421875 272.023438 L 329.421875 280.03125 L 326.75 288.039062 L 325.414062 296.050781 L 324.082031 305.394531 L 324.082031 313.402344 L 322.746094 322.746094 L 320.078125 329.421875 L 317.40625 338.765625 L 314.738281 345.4375 L 310.734375 354.78125 L 308.0625 362.792969 L 304.058594 370.800781 L 298.71875 376.140625 L 292.046875 384.148438 L 286.707031 390.824219 L 277.363281 400.167969 L 273.355469 408.175781 L 264.011719 416.183594 L 257.339844 422.859375 L 252 429.535156 L 247.996094 436.207031 L 234.648438 449.554688 L 226.636719 456.230469 L 218.628906 460.234375 L 213.289062 466.910156 L 206.617188 472.246094 L 197.273438 470.914062 L 189.261719 469.578125 Z M 182.589844 462.902344 "/>
</g>
</svg>
