<?xml version="1.0" encoding="UTF-8"?>
<svg xmlns="http://www.w3.org/2000/svg" xmlns:xlink="http://www.w3.org/1999/xlink" width="504pt" height="504pt" viewBox="0 0 504 504" version="1.1">
<g id="surface440">
<rect x="0" y="0" width="504" height="504" style="fill:rgb(100%,100%,100%);fill-opacity:1;stroke:none;"/>
<path style="fill-rule:nonzero;fill:rgb(0%,0%,0%);fill-opacity:1;stroke-width:0.75;stroke-linecap:round;stroke-linejoin:round;stroke:rgb(20%,20%,20%);stroke-opacity:1;stroke-miterlimit:10;" d="M 219.40625 436.691406 L 215.457031 444.59375 L 213.480469 452.496094 L 211.507812 458.421875 L 207.554688 466.320312 L 201.628906 472.246094 L 193.726562 472.246094 L 189.777344 464.347656 L 185.828125 458.421875 L 185.828125 450.519531 L 183.851562 442.617188 L 181.875 434.71875 L 183.851562 426.816406 L 183.851562 418.914062 L 185.828125 412.988281 L 185.828125 351.753906 L 183.851562 343.851562 L 183.851562 330.023438 L 185.828125 322.125 L 185.828125 262.863281 L 187.800781 254.964844 L 187.800781 247.0625 L 185.828125 239.160156 L 181.875 231.257812 L 181.875 217.433594 L 183.851562 209.53125 L 183.851562 201.628906 L 185.828125 193.726562 L 185.828125 172 L 183.851562 164.097656 L 183.851562 142.371094 L 185.828125 134.46875 L 185.828125 126.566406 L 187.800781 118.664062 L 187.800781 110.765625 L 189.777344 104.839844 L 191.753906 96.9375 L 191.753906 89.035156 L 193.726562 81.136719 L 197.679688 65.332031 L 201.628906 59.40625 L 203.605469 51.503906 L 207.554688 43.605469 L 209.53125 35.703125 L 217.433594 31.753906 L 223.359375 37.679688 L 229.285156 45.578125 L 241.136719 61.382812 L 247.0625 69.28125 L 249.035156 75.210938 L 252.988281 83.109375 L 256.9375 91.011719 L 260.890625 98.914062 L 262.863281 106.8125 L 268.789062 112.738281 L 274.714844 120.640625 L 280.640625 124.59375 L 286.566406 132.492188 L 292.492188 140.394531 L 298.421875 144.34375 L 310.273438 160.148438 L 316.199219 166.074219 L 322.125 173.976562 L 320.148438 181.875 L 314.222656 187.800781 L 312.246094 195.703125 L 304.347656 211.507812 L 304.347656 219.40625 L 302.371094 225.332031 L 300.394531 233.234375 L 296.445312 241.136719 L 292.492188 249.035156 L 290.519531 256.9375 L 288.542969 262.863281 L 284.59375 270.765625 L 278.667969 278.667969 L 276.691406 286.566406 L 272.742188 294.46875 L 270.765625 300.394531 L 270.765625 316.199219 L 266.816406 324.097656 L 262.863281 332 L 262.863281 337.925781 L 258.914062 345.828125 L 256.9375 353.730469 L 254.964844 361.628906 L 251.011719 369.53125 L 249.035156 377.433594 L 247.0625 383.359375 L 245.085938 391.261719 L 241.136719 399.160156 L 235.210938 407.0625 L 231.257812 414.964844 L 227.308594 420.890625 L 225.332031 428.789062 Z M 219.40625 436.691406 "/>
</g>
</svg>
